<?xml version="1.0" encoding="UTF-8" standalone="no"?>
<!DOCTYPE svg PUBLIC "-//W3C//DTD SVG 1.1//EN" "http://www.w3.org/Graphics/SVG/1.1/DTD/svg11.dtd">
<svg xmlns="http://www.w3.org/2000/svg">
<metadata>
This is a custom SVG webfont generated by Font Squirrel.
Copyright   : Copyright 19902001 Bitstream Inc All rights reserved
</metadata>
<defs>
<font id="CaslonOpnfaceBTRegular" horiz-adv-x="1104">
<font-face units-per-em="2048" ascent="1556" descent="-492"/>
<missing-glyph horiz-adv-x="553"/>
<glyph unicode=" " horiz-adv-x="553"/>
<glyph unicode="	" horiz-adv-x="553"/>
<glyph unicode=" " horiz-adv-x="553"/>
<glyph unicode="!" horiz-adv-x="844" d="M414 25q23 0 33 18.5t10 62.5q0 46 -10 64t-33 18q-29 0 -49.5 -23.5t-20.5 -58.5q0 -34 20.5 -57.5t49.5 -23.5zM297 106q0 54 36 89.5t89 35.5q52 0 88.5 -36t36.5 -89q0 -52 -36.5 -88t-88.5 -36t-88.5 36t-36.5 88zM426 625l53 782h-135zM414 399l-113 1047h285 l-131 -1047h-41z"/>
<glyph unicode="&quot;" horiz-adv-x="672" d="M514 868h-31l-61 455q-3 18 -3.5 26.5t-0.5 16.5q0 46 21 71t61 25q38 0 59 -25.5t21 -72.5q0 -12 -4 -37q0 -2 -1 -4zM188 868h-30l-62 455v4q-4 25 -4 37q0 47 20.5 72.5t59.5 25.5t60.5 -25t21.5 -71q0 -10 -3 -36q-1 -5 -1 -7z"/>
<glyph unicode="#" horiz-adv-x="1575" d="M700 872l-104 -294h295l104 294h-295zM793 1454h114l-172 -483h295l172 483h113l-172 -483h315l-35 -99h-315l-102 -294h340l-37 -99h-340l-170 -479h-113l170 479h-293l-172 -479h-112l170 479h-332l37 99h329l105 294h-359l35 99h359z"/>
<glyph unicode="$" d="M496 948v475q-78 -19 -125 -78t-47 -137q0 -66 41 -128.5t131 -131.5zM539 920l63 -41v548q-7 2 -15.5 2.5t-27.5 0.5h-20v-510zM539 23h18q19 0 28.5 0.5t16.5 1.5v585l-63 39v-626zM645 29q113 27 173.5 92t60.5 158q0 88 -58.5 165.5t-175.5 143.5v-559zM133 291 l157 69q2 -133 55 -219t151 -114v643q-161 97 -236.5 200t-75.5 224q0 133 84 232.5t228 133.5v80h43v-78q11 0 32.5 1t30.5 1v76h43v-80q97 -11 173 -62.5t132 -144.5l-119 -63q-15 97 -61.5 155t-124.5 78v-573q188 -100 273.5 -207.5t85.5 -241.5q0 -149 -97.5 -260.5 t-261.5 -148.5v-133h-43v128q-16 -2 -23 -2.5t-14 -0.5q-5 0 -14 1t-12 1v-127h-43v129q-133 18 -226.5 96t-136.5 207zM782 1378q22 -31 38 -65.5t26 -73.5l47 25q-22 32 -49.5 60t-61.5 54zM330 84q-35 45 -60 96.5t-39 108.5l-55 -21q29 -61 66.5 -105.5t87.5 -78.5z M897 195q28 43 41.5 87.5t13.5 92.5q0 92 -51.5 163t-234.5 191l-64 40q-159 96 -229 167q-47 47 -70.5 104t-23.5 123q0 40 9.5 81t28.5 83q-48 -46 -72 -103t-24 -124q0 -117 63 -203t296 -229q218 -136 275.5 -214t57.5 -180q0 -19 -3.5 -38t-12.5 -41z"/>
<glyph unicode="%" horiz-adv-x="1413" d="M952 47q-34 63 -50.5 160t-16.5 229q0 116 16.5 196.5t52.5 137.5q-64 -57 -98.5 -150t-34.5 -212q0 -113 34 -206t97 -155zM1208 47q54 55 77.5 137.5t23.5 223.5q0 132 -25 217t-80 145q21 -44 30 -147t9 -304q0 -103 -8.5 -169.5t-26.5 -102.5zM1372 408 q0 -183 -86 -308t-205 -125t-206 126t-87 307t87.5 307.5t205.5 126.5q119 0 205 -126t86 -308zM1079 10q73 0 102 71.5t29 268.5q0 308 -28 382.5t-103 74.5q-74 0 -102.5 -70.5t-28.5 -326.5q0 -258 28 -329t103 -71zM201 676q-34 63 -51 160t-17 229q0 116 17 196t53 138 q-65 -57 -99 -150t-34 -213q0 -112 34 -205.5t97 -154.5zM459 676q52 54 75 135.5t23 224.5q0 135 -24 219t-78 144q20 -44 29.5 -147.5t9.5 -303.5q0 -104 -8.5 -170.5t-26.5 -101.5zM330 639q72 0 101.5 71.5t29.5 268.5q0 307 -28 382t-103 75t-103 -71t-28 -327 q0 -257 28 -328t103 -71zM623 1036q0 -182 -87 -307t-206 -125t-205 125.5t-86 306.5q0 182 86 308t205 126t206 -126t87 -308zM193 -25l966 1495h58l-967 -1495h-57z"/>
<glyph unicode="&amp;" horiz-adv-x="1626" d="M1425 791h-256q42 -53 71 -108t46 -114q29 55 64 110t75 112zM1260 25q-48 21 -87 58.5t-73 94.5q-31 50 -93.5 178.5t-107.5 198.5q-68 104 -252 267q-85 74 -125 114q-62 62 -92.5 127t-30.5 135q0 42 16 83t46 77q-56 -40 -85.5 -102.5t-29.5 -139.5 q0 -68 27.5 -126.5t115.5 -155.5q21 -24 72 -77q209 -219 334 -401l46 -68q168 -249 319 -263zM524 18q-144 54 -231.5 172t-87.5 261q0 73 27 140t85 134q-99 -41 -157 -126.5t-58 -190.5q0 -142 116 -249.5t306 -140.5zM831 915q56 41 85.5 99.5t29.5 128.5q0 74 -34 137 t-99 111q43 -67 63.5 -129.5t20.5 -124.5q0 -64 -17 -120.5t-49 -101.5zM733 860q62 39 93.5 108t31.5 167q0 131 -60 215t-153 84q-80 0 -137 -62t-57 -149q0 -133 272 -355zM979 158q-117 185 -240.5 340.5t-261.5 289.5q-85 -46 -132.5 -131t-47.5 -192 q0 -173 120.5 -304.5t280.5 -131.5q71 0 141.5 32t139.5 97zM457 813q-77 77 -111.5 147t-34.5 150q0 154 102 257t255 103q148 0 249 -90.5t101 -222.5q0 -107 -67 -192.5t-187 -128.5q98 -83 183.5 -208t168.5 -311q86 121 108.5 163.5t22.5 70.5q0 33 -22.5 81.5 t-61.5 100.5q-20 28 -47 43t-57 15h-119v36h725v-36h-2q-103 0 -231 -125.5t-293 -386.5q63 -132 124.5 -191t133.5 -59q50 0 106.5 32t106.5 89l28 -17q-61 -77 -141 -117.5t-172 -40.5q-88 0 -164.5 35.5t-156.5 114.5q-93 -76 -189.5 -113t-204.5 -37q-82 0 -164.5 23.5 t-166.5 71.5q-104 59 -161 147t-57 189q0 147 108.5 259t287.5 148z"/>
<glyph unicode="'" horiz-adv-x="346" d="M188 868h-30l-62 455v4q-4 25 -4 37q0 47 20.5 72.5t59.5 25.5t59.5 -24.5t20.5 -71.5q0 -16 -0.5 -25t-1.5 -17z"/>
<glyph unicode="(" horiz-adv-x="739" d="M381 147q-46 93 -71 237t-25 321q0 209 28.5 358t85.5 242q-104 -93 -160.5 -243.5t-56.5 -340.5q0 -187 53.5 -340t145.5 -234zM608 20v-45q-221 53 -343 248t-122 496q0 290 128.5 495.5t336.5 255.5v-49q-119 -11 -165 -155t-46 -607q0 -390 45.5 -506.5t165.5 -132.5 z"/>
<glyph unicode=")" horiz-adv-x="739" d="M332 1298q24 -41 36.5 -188.5t12.5 -386.5q0 -231 -16 -378t-48 -204q82 93 125 242.5t43 341.5q0 190 -41 341.5t-112 231.5zM131 1425v45q221 -52 343 -247t122 -496q0 -290 -128 -495.5t-337 -256.5v50q119 11 164 153t45 608q0 395 -44.5 509.5t-164.5 129.5z"/>
<glyph unicode="*" horiz-adv-x="1024" d="M362 1059l125 96l-10 -158h68l-8 158l122 -96l39 55l-137 82l137 82l-39 53l-124 -96l10 160h-66l8 -160l-125 96l-38 -53l137 -82l-137 -82zM340 997l-78 117l139 82l-141 78l80 115l115 -91l-13 148h136l-11 -148l113 97l82 -127l-135 -72l133 -82l-76 -117l-119 93 l13 -146h-136l15 146z"/>
<glyph unicode="+" horiz-adv-x="1706" d="M805 1221h98v-562h549v-98h-549v-561h-98v561h-551v98h551v562z"/>
<glyph unicode="," horiz-adv-x="506" d="M250 -33q11 33 16.5 67t5.5 70q0 48 -14 74.5t-39 26.5q-20 0 -34.5 -17t-14.5 -43q0 -24 38 -82t42 -96zM176 -254l-43 41q42 45 63 82t21 65q0 31 -46 97.5t-46 107.5q0 47 32 79t81 32q60 0 94.5 -37.5t34.5 -103.5q0 -78 -50 -173t-141 -190z"/>
<glyph unicode="-" horiz-adv-x="811" d="M166 266h438l23 72h-439zM80 184l72 234h499l15 43h63l-72 -234h-501l-15 -43h-61z"/>
<glyph unicode="." horiz-adv-x="506" d="M127 106q0 54 36 89.5t89 35.5q52 0 88.5 -36t36.5 -89q0 -52 -36.5 -88t-88.5 -36t-88.5 36t-36.5 88zM240 25q24 0 35.5 19t11.5 62q0 45 -11 63.5t-36 18.5q-31 0 -52.5 -23.5t-21.5 -58.5q0 -34 21.5 -57.5t52.5 -23.5z"/>
<glyph unicode="/" horiz-adv-x="569" d="M618 1470l-665 -1660h-68l666 1660h67z"/>
<glyph unicode="0" d="M336 102q-59 105 -88 272.5t-29 399.5q0 206 28.5 342.5t90.5 233.5q-111 -98 -170 -258.5t-59 -368.5q0 -196 59 -357t168 -264zM551 14q132 0 183.5 125.5t51.5 485.5q0 243 -7 394t-21 226q-18 89 -72.5 139t-134.5 50q-133 0 -183.5 -126t-50.5 -585 q0 -458 50.5 -583.5t183.5 -125.5zM764 102q90 91 131 236.5t41 384.5q0 228 -43 375t-137 252q36 -75 51.5 -253.5t15.5 -525.5q0 -188 -14 -298.5t-45 -170.5zM1032 723q0 -146 -33.5 -279t-93.5 -227q-74 -118 -165 -180t-189 -62q-96 0 -188 63.5t-164 178.5 q-60 96 -93.5 228.5t-33.5 277.5t33.5 277.5t93.5 228.5q72 115 164 178t188 63q98 0 189 -61.5t165 -179.5q60 -96 93.5 -228.5t33.5 -277.5z"/>
<glyph unicode="1" d="M397 39h267q-45 36 -61.5 65t-16.5 68v1225q-47 -18 -97 -29t-101 -14q51 -24 71 -62t20 -118v-992q0 -42 -20.5 -78.5t-61.5 -64.5zM444 1184q0 77 -43.5 117t-126.5 40q-12 0 -28 -2l-35 -3l4 40q134 3 250.5 29t212.5 74v-1252q0 -88 43 -138t119 -50h135v-39h-795v39 h105q74 0 116.5 50t42.5 138v957z"/>
<glyph unicode="2" d="M446 944h-14q-96 0 -152.5 58.5t-56.5 158.5q0 75 37.5 139t108.5 111q-114 -31 -180 -107.5t-66 -175.5q0 -92 61.5 -155.5t151.5 -63.5q32 0 60 9t50 26zM473 518q197 145 294 288.5t97 291.5q0 109 -60.5 195t-168.5 128q60 -45 93.5 -123t33.5 -176 q0 -144 -68.5 -288t-220.5 -316zM809 39l35 111h-649l-74 -111h688zM43 0q25 49 79 126.5t142 190.5l155 189q119 143 181 233q61 89 92 186t31 197q0 135 -56.5 218t-146.5 83q-87 0 -149 -72t-62 -175q0 -86 47 -144.5t113 -58.5q8 0 16 1.5t18 4.5l19 -23 q-37 -40 -84.5 -61t-103.5 -21q-106 0 -177 72.5t-71 179.5q0 145 128 244.5t318 99.5q189 0 314 -111t125 -278q0 -131 -87.5 -255.5t-310.5 -299.5l-22 -17q-198 -156 -289 -278h502q81 0 123 32t67 114l47 -17q-36 -87 -66.5 -177.5t-55.5 -182.5h-836z"/>
<glyph unicode="3" d="M377 51q-43 38 -63.5 80.5t-20.5 91.5q0 23 8 69.5t8 69.5q0 41 -18 66t-47 25q-33 0 -52.5 -31t-19.5 -82q0 -89 54 -165.5t151 -123.5zM670 35q110 35 176.5 138t66.5 237q0 126 -61.5 225t-165.5 139q53 -42 79 -127.5t26 -220.5q0 -153 -29.5 -247.5t-91.5 -143.5z M825 1280l70 84h-614l-45 -121q22 18 55.5 27.5t77.5 9.5h456zM371 682l-31 29l453 532h-412q-87 0 -127.5 -29.5t-71.5 -109.5l-41 12l125 330h752l-529 -625q20 4 39.5 6t40.5 2q176 0 302 -122.5t126 -294.5q0 -66 -21 -127.5t-65 -124.5q-57 -84 -156 -134.5t-206 -50.5 q-70 0 -141.5 26t-133.5 75q-66 52 -103.5 124t-37.5 146q0 64 35.5 103.5t91.5 39.5q57 0 90 -37t33 -102q0 -25 -6 -78.5t-6 -83.5q0 -81 42 -126.5t117 -45.5q112 0 166 103.5t54 316.5q0 189 -49.5 273t-159.5 84q-46 0 -86 -26t-84 -85z"/>
<glyph unicode="4" d="M664 39h147q-9 14 -12.5 30.5t-3.5 43.5v18v997l-117 -122v-447h-479l-74 -86h553v-350q0 -27 -3.5 -47.5t-10.5 -36.5zM603 0q18 27 27 53.5t9 57.5v325h-598l504 582q122 140 195.5 268t81.5 209h169q-39 -73 -297 -367l-149 -172l-275 -317h369v369l229 256l25 -9 v-1077q0 -59 14.5 -98.5t48.5 -79.5h-353z"/>
<glyph unicode="5" d="M375 1274l6 -1q59 -7 84 -7q93 0 168.5 33t116.5 92q-57 -25 -112.5 -37.5t-109.5 -12.5q-36 0 -70.5 4t-70.5 13zM367 51q-43 38 -63.5 80.5t-20.5 91.5q0 23 9 69.5t9 69.5q0 41 -18 66t-47 25q-33 0 -52.5 -31t-19.5 -82q0 -90 53.5 -166t149.5 -123zM662 35 q110 35 176.5 138t66.5 237q0 126 -61.5 225t-165.5 139q53 -42 78.5 -127.5t25.5 -220.5q0 -153 -29 -247.5t-91 -143.5zM250 635l-31 14q35 63 44 138q1 7 1 10l101 686q45 -29 100.5 -43.5t122.5 -14.5q74 0 132 12.5t103 37.5l23 -23q-68 -111 -166.5 -166t-228.5 -55 q-10 0 -44 2q-22 1 -36 2l-70 -473q69 37 130 54.5t122 17.5q183 0 309.5 -123t126.5 -299q0 -66 -21 -128t-65 -124q-58 -83 -157.5 -134t-206.5 -51q-70 0 -140 26t-133 75q-66 52 -103.5 124t-37.5 146q0 64 35.5 103.5t91.5 39.5q57 0 91 -37.5t34 -101.5 q0 -25 -7.5 -78.5t-7.5 -83.5q0 -81 42.5 -126.5t117.5 -45.5q111 0 165 104.5t54 319.5q0 188 -50.5 269.5t-166.5 81.5q-93 0 -167.5 -42.5t-106.5 -113.5z"/>
<glyph unicode="6" d="M739 33q111 49 169.5 147t58.5 236q0 127 -54.5 218t-156.5 136q56 -48 80 -125.5t24 -224.5q0 -133 -29.5 -227.5t-91.5 -159.5zM416 80q-68 105 -98.5 238.5t-30.5 340.5q0 179 34.5 312.5t110.5 255.5q-126 -126 -189 -273.5t-63 -316.5q0 -177 61.5 -322.5 t174.5 -234.5zM383 696q-3 -32 -4.5 -60.5t-1.5 -55.5q0 -292 54 -428t169 -136q109 0 165 109.5t56 323.5q0 177 -52.5 262.5t-162.5 85.5q-60 0 -117 -26t-106 -75zM858 1468v-59h-27q-212 0 -316.5 -153t-129.5 -506q61 45 122.5 67.5t125.5 22.5q55 0 109.5 -16 t105.5 -48q98 -58 151.5 -154.5t53.5 -215.5q0 -87 -35 -166.5t-98 -139.5q-63 -59 -141 -91t-161 -32q-105 0 -188 48t-154 149q-65 95 -99 213t-34 250q0 320 198.5 551.5t516.5 279.5z"/>
<glyph unicode="7" d="M410 39q25 162 105.5 360t215.5 432q-191 -253 -306 -452t-153 -340h138zM252 1249q16 15 36.5 22t47.5 7h647l51 82h-751zM217 0q62 262 530 930l216 311h-576q-85 0 -124 -35.5t-70 -144.5l-31 8l98 377h877q-300 -484 -453.5 -833t-183.5 -613h-283z"/>
<glyph unicode="8" d="M897 216q23 34 34 71t11 78q0 101 -53.5 180t-183.5 166l-84 53q-223 142 -283 229q-32 47 -48 94.5t-16 92.5q0 42 14 84t44 90q-61 -48 -92 -113.5t-31 -142.5q0 -196 382 -441l25 -16q168 -107 227.5 -188t59.5 -183q0 -12 -1.5 -26t-4.5 -28zM717 803q55 42 86 118 t31 171q0 155 -74.5 249.5t-196.5 94.5q-103 0 -174.5 -65t-71.5 -159q0 -91 88 -182.5t312 -226.5zM340 70q-67 66 -98 148t-31 190q0 73 16.5 135t51.5 114q-64 -54 -94.5 -121.5t-30.5 -152.5q0 -94 49 -177t137 -136zM403 735q-55 -25 -88.5 -108t-33.5 -199 q0 -195 77 -302.5t217 -107.5q129 0 212 71.5t83 180.5q0 181 -448 454zM817 883q48 36 72 92.5t24 130.5q0 67 -30 130t-84 107q34 -63 51.5 -125.5t17.5 -123.5q0 -62 -13 -116t-38 -95zM365 762q-96 80 -142.5 163t-46.5 175q0 159 115.5 266t288.5 107q167 0 281 -105 t114 -258q0 -112 -58.5 -195.5t-171.5 -132.5q128 -76 193.5 -174.5t65.5 -216.5q0 -172 -129.5 -294t-315.5 -122q-60 0 -117.5 16t-115.5 48q-93 52 -152 148.5t-59 191.5q0 118 64 216t186 167z"/>
<glyph unicode="9" d="M725 1339q32 -89 47.5 -207t15.5 -276q0 -232 -31.5 -401.5t-90.5 -257.5q103 94 159 251t56 357q0 179 -40 315.5t-116 218.5zM397 1419q-127 -42 -203.5 -148.5t-76.5 -240.5t75 -234.5t214 -150.5q-96 66 -146.5 163.5t-50.5 215.5q0 116 49 219t139 176zM749 747 q4 34 5.5 62.5t1.5 54.5q0 291 -55 428.5t-171 137.5q-107 0 -166 -113t-59 -322q0 -171 56 -259.5t165 -88.5q60 0 117 25.5t106 74.5zM289 -25v60h8q221 0 328 156t123 503q-61 -45 -123 -67.5t-125 -22.5q-56 0 -110.5 16t-104.5 48q-99 60 -152 155.5t-53 214.5 q0 87 34.5 166.5t98.5 138.5q62 60 140.5 91.5t160.5 31.5q105 0 187 -47t153 -149q65 -95 99 -213t34 -250q0 -186 -70 -344t-212 -293q-94 -89 -200.5 -138.5t-215.5 -56.5z"/>
<glyph unicode=":" horiz-adv-x="506" d="M240 436q24 0 35.5 20t11.5 64q0 45 -11 63.5t-36 18.5q-31 0 -52.5 -24t-21.5 -58t22 -59t52 -25zM127 518q0 54 36 90.5t89 36.5q52 0 88.5 -37t36.5 -90q0 -52 -36.5 -87.5t-88.5 -35.5q-53 0 -89 35.5t-36 87.5zM240 25q24 0 35.5 19t11.5 62q0 45 -11 63.5t-36 18.5 q-31 0 -52.5 -23.5t-21.5 -58.5q0 -34 21.5 -57.5t52.5 -23.5zM127 106q0 54 36 89.5t89 35.5q52 0 88.5 -36t36.5 -89q0 -52 -36.5 -88t-88.5 -36t-88.5 36t-36.5 88z"/>
<glyph unicode=";" horiz-adv-x="506" d="M250 -33q11 33 16.5 67t5.5 70q0 48 -14 74.5t-39 26.5q-20 0 -34.5 -17t-14.5 -43q0 -24 38 -82t42 -96zM176 -254l-43 41q42 45 63 82t21 65q0 31 -46 97.5t-46 107.5q0 47 32 79t81 32q60 0 94.5 -37.5t34.5 -103.5q0 -78 -50 -173t-141 -190zM127 518q0 54 36 90.5 t89 36.5q52 0 88.5 -37t36.5 -90q0 -52 -36.5 -87.5t-88.5 -35.5q-53 0 -89 35.5t-36 87.5zM240 436q24 0 35.5 20t11.5 64q0 45 -11 63.5t-36 18.5q-31 0 -52.5 -24t-21.5 -58t22 -59t52 -25z"/>
<glyph unicode="&lt;" horiz-adv-x="1706" d="M1442 1135v-109l-1022 -416l1022 -413v-109l-1178 481v82z"/>
<glyph unicode="=" horiz-adv-x="1706" d="M254 473h1198v-98h-1198v98zM254 846h1198v-98h-1198v98z"/>
<glyph unicode="&gt;" horiz-adv-x="1706" d="M264 1135l1178 -484v-82l-1178 -481v109l1022 413l-1022 416v109z"/>
<glyph unicode="?" horiz-adv-x="1071" d="M195 1087l81 24q-1 8 -1.5 18t-0.5 28q0 47 7.5 90.5t21.5 83.5q-54 -45 -81 -102t-27 -127v-15zM553 612q144 193 191 296.5t47 201.5q0 126 -54 209t-153 111q48 -26 72 -95.5t24 -185.5q0 -110 -27 -229t-100 -308zM446 315v27q0 57 14 118.5t52 160.5l19 47 q106 255 106 491q0 138 -32.5 201t-102.5 63q-61 0 -101.5 -53t-40.5 -135q0 -40 9 -74t26 -63l-237 -78q-5 23 -7.5 42t-3.5 34q0 149 114.5 261.5t264.5 112.5q147 0 254 -113.5t107 -271.5q0 -60 -19 -117t-55 -106q-35 -46 -105 -124t-96 -115q-51 -76 -81 -154 t-37 -153zM473 25q23 0 33 18.5t10 62.5q0 46 -9.5 64t-33.5 18q-29 0 -50.5 -24t-21.5 -58q0 -33 21.5 -57t50.5 -24zM356 106q0 54 36 89.5t89 35.5t89 -36t36 -89q0 -52 -36 -88t-89 -36q-52 0 -88.5 36t-36.5 88z"/>
<glyph unicode="@" horiz-adv-x="2019" d="M1192 340q-59 -106 -138 -160.5t-173 -54.5q-121 0 -196 92.5t-75 243.5q0 106 49 213t138 194q67 66 144 102t151 36q86 0 142.5 -51t78.5 -148l55 182h131l-170 -606q-11 -39 -14.5 -61.5t-3.5 -42.5q0 -54 26 -82.5t74 -28.5q47 0 108.5 30t114.5 81q93 88 145 219 t52 278q0 284 -194 457.5t-511 173.5q-176 0 -328.5 -58.5t-271.5 -170.5q-133 -126 -201.5 -296t-68.5 -376q0 -176 56 -304.5t177 -232.5q116 -100 264.5 -151t321.5 -51q167 0 323.5 53t293.5 155l30 -34q-147 -109 -311.5 -164.5t-341.5 -55.5q-189 0 -340.5 46 t-273.5 139q-151 115 -229.5 275.5t-78.5 355.5q0 204 86 380t250 312q132 110 290.5 165.5t340.5 55.5q345 0 552.5 -187t207.5 -497q0 -157 -58 -295t-165 -235q-59 -55 -123.5 -83t-130.5 -28q-96 0 -147.5 54t-57.5 161zM1094 969q-56 0 -101.5 -31t-93.5 -102 q-73 -111 -116.5 -236t-43.5 -221t43 -152.5t115 -56.5q67 0 129 44.5t119 133.5q57 91 91 199.5t34 200.5q0 95 -50.5 158t-125.5 63z"/>
<glyph unicode="A" horiz-adv-x="1767" d="M567 659h445l-217 488zM522 563h533l-27 60h-479zM176 39h166q-3 23 -4.5 43.5t-1.5 40.5q0 18 1.5 42t4.5 52q-42 -54 -82.5 -97.5t-83.5 -80.5zM815 1194l402 -901q5 -12 8.5 -29t3.5 -37q0 -46 -23 -95.5t-65 -92.5h372q-50 38 -91.5 96t-82.5 150l-462 1040zM16 0v39 h41q40 0 74.5 18.5t83.5 69.5q61 64 100.5 116.5t59.5 94.5l534 1151l506 -1139q69 -154 134.5 -232.5t125.5 -78.5h70v-39h-784v39h63q70 0 118 56.5t48 129.5q0 16 -3 31t-9 29l-107 239h-567l-94 -205q-13 -25 -19 -48t-6 -42q0 -90 37 -140t104 -50h72v-39h-582z"/>
<glyph unicode="B" horiz-adv-x="1413" d="M496 756v-551q0 -76 37 -120.5t99 -47.5l136 -6h14q125 0 207 95t82 236q0 173 -103 283.5t-266 110.5h-206zM496 795h202q107 0 166.5 71.5t59.5 200.5q0 143 -82.5 242.5t-194.5 99.5q-63 0 -107 -42.5t-44 -106.5v-465zM801 784q136 9 219.5 89t83.5 200 q0 130 -94.5 224t-243.5 110q96 -54 145.5 -140t49.5 -202q0 -105 -43 -179.5t-117 -101.5zM922 27q143 19 237 116t94 222q0 128 -100 231t-276 154q108 -54 169.5 -155.5t61.5 -227.5q0 -113 -48 -200.5t-138 -139.5zM545 1446h186q197 0 328 -111t131 -274 q0 -102 -62 -176t-178 -111q183 -39 285 -145t102 -256q0 -175 -123.5 -281t-328.5 -106q-63 0 -166 7t-144 7h-518v39h33q61 0 107.5 50t46.5 120v1028q0 70 -46.5 120t-107.5 50h-33v39h488zM195 39h286q-52 41 -68 66.5t-16 66.5v1102q0 31 8 51t25 33l68 49h-297 l106 -90v-19q-12 -6 -18 -18.5t-6 -32.5v-1065q0 -43 -20.5 -76.5t-67.5 -66.5z"/>
<glyph unicode="C" horiz-adv-x="1565" d="M1364 1188q-22 51 -35 103t-18 107q-29 -5 -58.5 -8.5t-58.5 -3.5t-53.5 2.5t-46.5 6.5q82 -36 149 -87t121 -120zM659 31q-218 106 -327 280.5t-109 419.5q0 187 65 345t187 272q-172 -91 -269 -258t-97 -371q0 -257 149.5 -444.5t400.5 -243.5zM1505 375 q-99 -193 -268 -296.5t-385 -103.5q-120 0 -227 27t-195 80q-173 104 -265.5 269.5t-92.5 371.5q0 144 52 277t150 237q107 113 241 173t278 60q47 0 172 -17t202 -17q80 0 138.5 10t105.5 33v-31q0 -122 22 -237.5t66 -225.5l-35 -14q-112 217 -289.5 336.5t-383.5 119.5 q-221 0 -337 -174.5t-116 -507.5q0 -341 146.5 -534t404.5 -193q177 0 332 100.5t252 278.5z"/>
<glyph unicode="D" horiz-adv-x="1579" d="M496 209q0 -92 70.5 -139t207.5 -47q228 0 348.5 182.5t120.5 529.5q0 340 -119 506t-362 166q-137 0 -201.5 -41.5t-64.5 -128.5v-1028zM1059 80q165 101 254.5 270.5t89.5 380.5q0 216 -91.5 383.5t-254.5 249.5q111 -83 167 -241.5t56 -389.5q0 -232 -54.5 -392 t-166.5 -261zM195 39h286q-52 41 -68 66.5t-16 66.5v1102q0 31 8 51t25 33l66 49h-295l106 -90v-19q-12 -6 -18 -18.5t-6 -32.5v-1065q0 -43 -20.5 -76.5t-67.5 -66.5zM565 0h-508v39h33q61 0 107.5 50t46.5 120v1028q0 70 -46.5 120t-107.5 50h-33v39h656q154 0 252 -20.5 t176 -65.5q179 -106 272.5 -268.5t93.5 -368.5q0 -185 -78 -335.5t-237 -270.5q-82 -61 -191 -97t-215 -36q-25 0 -98 8t-123 8z"/>
<glyph unicode="E" horiz-adv-x="1475" d="M854 39h352q14 51 47 122.5t86 166.5q-102 -102 -222.5 -174t-262.5 -115zM944 684v205q-35 -35 -72 -63t-79 -52q40 -18 78.5 -40.5t72.5 -49.5zM924 1407q96 -41 172.5 -92t132.5 -113q-15 57 -26 108.5t-17 96.5h-262zM496 209q0 -70 47.5 -120t113.5 -50 q177 0 391.5 120t366.5 314l31 -12q-53 -120 -84 -233.5t-43 -227.5h-1262v39h33q61 0 107.5 50t46.5 120v1028q0 70 -46.5 120t-107.5 50h-33v39h1221v-33q0 -96 8.5 -181t26.5 -161l-37 -8q-76 144 -231 244t-293 100h-99q-63 0 -110 -50t-47 -120v-444h180 q56 0 96.5 15.5t91.5 57.5q63 53 92 97t29 86v34h41v-665h-41v69q0 109 -95 189t-222 80h-172v-547zM195 39h286q-52 41 -68 66.5t-16 66.5v1102q0 31 8 51t25 33l66 49h-295l106 -90v-19q-12 -6 -18 -18.5t-6 -32.5v-1065q0 -43 -20.5 -76.5t-67.5 -66.5z"/>
<glyph unicode="F" horiz-adv-x="1327" d="M924 1407q96 -41 172.5 -92t132.5 -113q-15 57 -26 108.5t-17 96.5h-262zM944 684v205q-35 -35 -72 -63t-79 -52q40 -18 78.5 -40.5t72.5 -49.5zM496 209q0 -70 47.5 -120t113.5 -50h56v-39h-656v39h33q61 0 107.5 50t46.5 120v1028q0 70 -46.5 120t-107.5 50h-33v39 h1221v-33q0 -96 8.5 -181t26.5 -161l-37 -8q-76 144 -231 244t-293 100h-99q-63 0 -110 -50t-47 -120v-444h180q56 0 96.5 15.5t91.5 57.5q63 53 92 97t29 86v34h41v-665h-41v69q0 109 -95 189t-222 80h-172v-547zM195 39h286q-52 41 -68 66.5t-16 66.5v1102q0 31 8 51 t25 33l68 49h-297l106 -90v-19q-12 -6 -18 -18.5t-6 -32.5v-1065q0 -43 -20.5 -76.5t-67.5 -66.5z"/>
<glyph unicode="G" horiz-adv-x="1692" d="M1356 1188q-23 54 -37 106.5t-19 104.5q-27 -6 -56 -9.5t-58 -3.5q-32 1 -95 8l-6 1q87 -39 154 -90.5t117 -116.5zM1192 98l238 80q-24 25 -34 56t-10 100v225q0 32 8 51.5t25 32.5l68 51h-297l106 -92v-18q-12 -7 -18 -19.5t-6 -32.5v-219q0 -57 -21 -114t-59 -101z M1235 524q0 70 -47 120t-111 50h-125v37h709v-37h-21q-60 0 -106.5 -50t-46.5 -120v-178q0 -64 11 -101t36 -61v-38q-53 -4 -90 -10t-65 -15q-43 -13 -132 -48q-247 -98 -411 -98q-112 0 -215 27t-191 80q-172 101 -265 267.5t-93 373.5q0 153 58.5 293t166.5 246 q102 100 229 154t260 54q46 0 170 -17t203 -17q81 0 138.5 10t103.5 33v-31q0 -122 22 -237.5t66 -225.5l-35 -14q-112 215 -288.5 334.5t-379.5 119.5q-222 0 -335 -177.5t-113 -524.5q0 -159 31.5 -278.5t97.5 -208.5q75 -104 181.5 -160t228.5 -56q165 0 261.5 86.5 t96.5 233.5v184zM659 31q-219 106 -327.5 281t-108.5 421q0 185 65 343t187 272q-172 -91 -269 -258t-97 -371q0 -257 149.5 -444.5t400.5 -243.5z"/>
<glyph unicode="H" horiz-adv-x="1745" d="M496 854v-59h751v59h-751zM496 209q0 -70 47.5 -120t113.5 -50h56v-39h-656v39h33q61 0 107.5 50t46.5 120v1028q0 70 -46.5 120t-107.5 50h-33v39h656v-39h-60q-63 0 -110 -50t-47 -120v-346h751v346q0 70 -46 120t-109 50h-62v39h656v-39h-31q-61 0 -108.5 -50.5 t-47.5 -119.5v-1028q0 -70 46.5 -120t107.5 -50h33v-39h-656v39h57q67 0 113.5 49.5t46.5 120.5v547h-751v-547zM1198 39h287q-52 41 -68 66.5t-16 66.5v1102q0 31 7.5 51t25.5 33l67 49h-297l107 -90v-19q-13 -6 -19 -18.5t-6 -32.5v-1065q0 -43 -20.5 -76.5t-67.5 -66.5z M195 39h286q-52 41 -68 66.5t-16 66.5v1102q0 31 8 51t25 33l68 49h-297l106 -90v-19q-12 -6 -18 -18.5t-6 -32.5v-1065q0 -43 -20.5 -76.5t-67.5 -66.5z"/>
<glyph unicode="I" horiz-adv-x="741" d="M195 39h286q-52 41 -68 66.5t-16 66.5v1102q0 31 8 51t25 33l68 49h-297l106 -90v-19q-12 -6 -18 -18.5t-6 -32.5v-1065q0 -43 -20.5 -76.5t-67.5 -66.5zM496 209q0 -70 47.5 -120t113.5 -50h48v-39h-664v39h49q61 0 107.5 50t46.5 120v1028q0 70 -46.5 120t-107.5 50 h-49v39h664v-39h-52q-63 0 -110 -50t-47 -120v-1028z"/>
<glyph unicode="J" horiz-adv-x="1014" d="M702 1358l70 49h-299l107 -90v-19q-13 -6 -19 -18.5t-6 -32.5v-1065q0 -42 -7.5 -76.5t-23.5 -66.5q78 37 112 105.5t34 193.5v936q0 31 7.5 51t24.5 33zM333 9q-37 27 -58 67.5t-31 105.5q-2 10 -5 28q-18 114 -69 114q-28 0 -46 -26.5t-18 -70.5q0 -82 63.5 -143.5 t163.5 -74.5zM770 471q0 -260 -92 -378t-293 -118q-141 0 -231.5 73t-90.5 181q0 65 39.5 106.5t100.5 41.5q60 0 92.5 -44.5t32.5 -127.5q0 -118 19.5 -155.5t68.5 -37.5q56 0 79 50.5t23 187.5v987q0 69 -47.5 119.5t-108.5 50.5h-30v39h653v-39h-59q-64 0 -110 -50 t-46 -120v-766z"/>
<glyph unicode="K" horiz-adv-x="1526" d="M496 831l413 347q37 30 55.5 65.5t18.5 75.5q0 48 -23.5 68t-82.5 20h-78v39h663v-39h-43q-83 0 -197 -57t-239 -162l-297 -250l610 -764q50 -61 110.5 -98t109.5 -37h69v-39h-790v39h47q54 0 88.5 29t34.5 73q0 20 -9 41.5t-26 44.5l-434 551v-569q0 -70 47.5 -120 t113.5 -50h56v-39h-656v39h33q61 0 107.5 50t46.5 120v1028q0 70 -46.5 120t-107.5 50h-33v39h656v-39h-60q-63 0 -110 -50t-47 -120v-406zM524 805l402 -510q50 -64 65 -95t15 -61t-16.5 -55.5t-47.5 -44.5h408q-91 43 -183 157l-6 7l-543 682zM1008 1251q48 37 84 76 t61 80h-160q19 -14 27 -32t8 -44q0 -19 -5 -39t-15 -41zM195 39h286q-52 41 -68 66.5t-16 66.5v1102q0 31 8 51t25 33l68 49h-297l106 -90v-19q-12 -6 -18 -18.5t-6 -32.5v-1065q0 -43 -20.5 -76.5t-67.5 -66.5z"/>
<glyph unicode="L" horiz-adv-x="1427" d="M195 39h286q-52 41 -68 66.5t-16 66.5v1102q0 31 8 51t25 33l68 49h-297l106 -90v-19q-12 -6 -18 -18.5t-6 -32.5v-1065q0 -43 -20.5 -76.5t-67.5 -66.5zM496 209q0 -71 46 -119.5t115 -48.5q184 0 395 118.5t363 313.5l31 -12q-53 -120 -84 -233.5t-43 -227.5h-1262v39 h33q61 0 107.5 50t46.5 120v1028q0 70 -46.5 120t-107.5 50h-33v39h656v-39h-60q-63 0 -110 -50t-47 -120v-1028zM854 39h352q14 51 47 122.5t86 166.5q-102 -102 -222.5 -174t-262.5 -115z"/>
<glyph unicode="M" horiz-adv-x="1987" d="M324 39q-7 34 -11 71t-6 80q-26 -42 -60 -79t-79 -72h156zM1401 39h344q-68 51 -97.5 100.5t-35.5 122.5l-82 967q0 4 -1 11t-1 11q0 51 30.5 87t102.5 69h-262l106 -1180v-16q0 -46 -23.5 -85.5t-80.5 -86.5zM877 293l61 143l-422 971h-203q51 -33 90 -79.5t66 -108.5z M25 0v39h8q98 0 184.5 91t97.5 204l82 853q1 15 2.5 30t1.5 16q0 60 -63 117t-141 57h-78v39h483l387 -899l379 825l-6 74h532v-39h-71q-83 0 -141 -49t-58 -119v-12l86 -993q7 -74 73 -134.5t124 -60.5h63v-39h-735v39h31q82 0 141 54t59 132v17l-92 1050l-497 -1087 l-441 1003l-80 -848q-3 -25 -4.5 -45t-1.5 -36q0 -104 51.5 -172t128.5 -68h97v-39h-602z"/>
<glyph unicode="N" horiz-adv-x="1767" d="M1516 1221q12 56 32 101.5t49 84.5h-247q57 -29 98.5 -75.5t67.5 -110.5zM350 39q-22 39 -38.5 82.5t-28.5 91.5q-17 -56 -49 -99.5t-80 -74.5h196zM1516 12v181l-1151 1214h-199q39 -25 74 -52.5t67 -60.5zM-2 0v39h35q101 0 168 96t67 246v899q-57 60 -112 93.5 t-95 33.5h-49v39h443l1061 -1127v736q0 77 -21 133.5t-68 107.5q-49 54 -95.5 82.5t-86.5 28.5h-80v39h654v-39h-39q-81 0 -154.5 -100t-73.5 -220v-1120h-43l-1204 1278v-872q0 -122 75 -228t157 -106h118v-39h-657z"/>
<glyph unicode="O" horiz-adv-x="1626" d="M1102 80q168 99 262 270.5t94 380.5q0 216 -100 395t-264 258q117 -94 173 -253.5t56 -397.5t-55.5 -403t-165.5 -250zM485 88q-130 132 -196 293t-66 350q0 196 72.5 364t200.5 271q-185 -98 -286 -267.5t-101 -381.5q0 -197 96.5 -358.5t279.5 -270.5zM72 723 q0 148 52 279.5t152 236.5q106 112 244.5 171.5t292.5 59.5q153 0 293 -60t248 -173q97 -101 148.5 -230.5t51.5 -275.5q0 -153 -54 -289t-159 -243q-106 -110 -240.5 -167t-287.5 -57t-289.5 58t-240.5 168q-104 108 -157.5 240.5t-53.5 281.5zM813 14q235 0 354 182.5 t119 544.5q0 346 -118 518.5t-353 172.5q-234 0 -355.5 -173t-121.5 -507q0 -367 119.5 -552.5t355.5 -185.5z"/>
<glyph unicode="P" horiz-adv-x="1403" d="M940 1417q99 -61 152 -164t53 -233q0 -134 -51.5 -237t-151.5 -169q151 34 238.5 141t87.5 259q0 158 -86.5 264.5t-241.5 138.5zM496 688q82 -36 156 -54t139 -18q139 0 228 112t89 290q0 176 -88.5 282.5t-233.5 106.5h-57h-57q-76 0 -126 -50t-50 -126v-543zM496 647 v-438q0 -70 47.5 -120t113.5 -50h56v-39h-656v39h33q61 0 107.5 50t46.5 120v1028q0 70 -46.5 120t-107.5 50h-33v39h813q218 0 356 -121t138 -311q0 -194 -147 -317.5t-379 -123.5q-84 0 -169.5 18.5t-172.5 55.5zM195 39h286q-52 41 -68 66.5t-16 66.5v1102q0 31 8 51 t25 33l68 49h-297l106 -90v-19q-12 -6 -18 -18.5t-6 -32.5v-1065q0 -43 -20.5 -76.5t-67.5 -66.5z"/>
<glyph unicode="Q" horiz-adv-x="1626" d="M670 33l-64 196q20 4 34 5l28 2q76 0 180 -30t246 -91q97 87 144.5 240t47.5 382q0 349 -117.5 522t-355.5 173q-234 0 -354.5 -173t-120.5 -507q0 -301 84.5 -484.5t247.5 -234.5zM775 -23q-77 8 -146.5 26t-132.5 46q-193 87 -308.5 270.5t-115.5 403.5q0 148 52 280.5 t150 235.5q106 112 245.5 171.5t293.5 59.5q153 0 293 -60t248 -173q97 -101 148.5 -232t51.5 -274q0 -218 -96 -383t-282 -266q92 -46 172 -70t137 -24q67 0 113.5 22t72.5 66q8 -4 11.5 -7.5t3.5 -7.5q0 -9 -10 -24t-27 -31q-72 -67 -155.5 -96t-211.5 -29 q-95 0 -223 24.5t-284 71.5zM889 -18q123 -34 229 -51t197 -17q59 0 109 10t91 31q-11 -1 -24.5 -1.5t-40.5 -0.5q-94 0 -187.5 21.5t-185.5 64.5q-39 -23 -85.5 -37t-102.5 -20zM715 23q4 -1 11 -2q58 -7 85 -7q61 0 113.5 13t97.5 39q-99 42 -187 66t-167 30zM1135 98 q155 106 239 270.5t84 362.5q0 216 -100 395t-264 258q116 -92 172.5 -252t56.5 -399q0 -222 -49.5 -381.5t-147.5 -251.5zM485 88q-130 132 -196 293t-66 350q0 196 72.5 364t200.5 271q-185 -98 -286 -267.5t-101 -381.5q0 -197 96.5 -358.5t279.5 -270.5z"/>
<glyph unicode="R" horiz-adv-x="1546" d="M938 782q122 17 195 94.5t73 188.5q0 115 -80 208t-211 126q85 -68 125.5 -148.5t40.5 -181.5q0 -98 -37 -172t-106 -115zM1393 -8q-136 46 -318 353l-22 38l-11 17q-159 263 -266 300q48 -55 118 -202t114 -217q95 -153 182.5 -221t185.5 -68h17zM496 782h303 q120 0 181.5 74.5t61.5 218.5q0 146 -85.5 240t-219.5 94h-55q-53 0 -76.5 -7t-40.5 -24q-36 -29 -52.5 -61t-16.5 -70v-465zM569 1446h205q93 0 163.5 -13t127.5 -40q116 -54 184 -144t68 -190q0 -142 -113 -230t-297 -88h-119q111 -42 192.5 -107t127.5 -149 q15 -26 42 -77q223 -410 337 -410q21 0 83 23l4 1l19 -32q-42 -21 -89.5 -31t-98.5 -10q-135 0 -249.5 94.5t-223.5 296.5q-29 54 -75 150q-120 251 -228 251h-133v-532q0 -70 47.5 -120t113.5 -50h56v-39h-656v39h33q61 0 107.5 50t46.5 120v1028q0 70 -46.5 120t-107.5 50 h-33v39h512zM195 39h286q-52 41 -68 66.5t-16 66.5v1102q0 31 8 51t25 33l68 49h-297l106 -90v-19q-12 -6 -18 -18.5t-6 -32.5v-1065q0 -43 -20.5 -76.5t-67.5 -66.5z"/>
<glyph unicode="S" horiz-adv-x="1255" d="M203 80q66 -21 129 -34t121 -19q-86 42 -153 100.5t-116 132.5zM973 1251l-33 174q-8 -1 -16 -1.5t-27 -0.5q-20 0 -44 2.5t-54 7.5q66 -52 107 -95t67 -87zM166 45l-41 471l39 8q72 -233 201.5 -367t279.5 -134q131 0 221 94t90 231q0 40 -11 76.5t-34 69.5 q-55 83 -228 152q-20 7 -30 11q-25 11 -75 30q-215 82 -304 175q-41 44 -62.5 100t-21.5 119q0 167 135.5 278t344.5 111q50 0 132 -7t113 -7q30 0 56 6t49 19q13 -122 27 -226t30 -196l-39 -10q-83 193 -179.5 284.5t-217.5 91.5q-113 0 -187.5 -62.5t-74.5 -158.5 q0 -89 53 -148.5t182 -111.5q32 -13 95 -36q209 -78 301 -156q61 -53 92 -124t31 -157q0 -209 -160.5 -352.5t-399.5 -143.5q-114 0 -217 18t-190 52zM905 111q75 60 115.5 146.5t40.5 182.5q0 126 -79 210t-277 163q-25 10 -75 28q-174 64 -247 128q-39 34 -59.5 80 t-20.5 98q0 59 29 118t88 119q-91 -44 -142 -125t-51 -182q0 -110 78.5 -189.5t269.5 -158.5l82 -32q172 -65 246 -132q44 -39 65 -92.5t21 -124.5q0 -58 -21 -118t-63 -119z"/>
<glyph unicode="T" horiz-adv-x="1546" d="M903 211q0 -71 47 -121.5t113 -50.5h47v-39h-676v39h62q60 0 106.5 51t46.5 121v1028q0 66 -43.5 117t-91.5 51q-72 0 -203 -103t-241 -260l-31 15q13 79 20 145.5t7 118.5q0 25 -2 53t-6 70h1458q-7 -37 -10 -66t-3 -51q0 -90 7.5 -157.5t23.5 -118.5l-37 -11 q-98 155 -235 259t-222 104q-52 0 -94.5 -50t-42.5 -116v-1028zM90 1174q42 70 95.5 127.5t119.5 105.5h-206q0 -11 0.5 -26t0.5 -46q0 -35 -2.5 -75.5t-7.5 -85.5zM1438 1194q-17 49 -26 101.5t-12 111.5h-243q82 -45 151.5 -98t129.5 -115zM598 39h287q-52 41 -68 66.5 t-16 66.5v1102q0 31 7.5 51t25.5 33l67 49h-297l107 -90v-19q-13 -6 -19 -18.5t-6 -32.5v-1065q0 -43 -20.5 -76.5t-67.5 -66.5z"/>
<glyph unicode="U" horiz-adv-x="1626" d="M397 580v694q0 31 8 51t25 33l68 49h-297l106 -90v-19q-12 -6 -18 -18.5t-6 -32.5v-643q0 -254 118.5 -402.5t348.5 -178.5q-185 59 -269 191t-84 366zM1358 1221q12 56 32 101.5t50 84.5h-248q57 -29 98.5 -75.5t67.5 -110.5zM244 616v621q0 70 -46.5 120t-107.5 50h-33 v39h656v-39h-60q-63 0 -110 -50t-47 -120v-731q0 -114 18 -176.5t59 -114.5q62 -77 146.5 -116.5t187.5 -39.5q224 0 337.5 157t113.5 466v373q0 77 -21 133.5t-67 107.5q-50 54 -96.5 82.5t-86.5 28.5h-77v39h651v-39h-39q-79 0 -153 -100.5t-74 -219.5v-401 q0 -186 -22.5 -285.5t-74.5 -181.5q-74 -117 -198.5 -180.5t-282.5 -63.5q-138 0 -257 59.5t-206 170.5q-57 73 -83.5 172.5t-26.5 238.5z"/>
<glyph unicode="V" horiz-adv-x="1642" d="M1466 1407h-161q32 -43 47.5 -82.5t15.5 -81.5v-14l51 95q24 45 47 83zM1702 1446v-39h-43q-39 0 -72 -18t-84 -70q-64 -67 -103.5 -118.5t-58.5 -92.5l-532 -1133l-508 1121q-69 155 -133.5 233t-124.5 78h-43v39h758v-39h-64q-70 0 -119 -57t-49 -129q0 -16 3.5 -31 t9.5 -29l385 -862l383 827q14 31 20 52t6 39q0 89 -37.5 139.5t-105.5 50.5h-72v39h584zM864 180l-434 973q-6 12 -9 29t-3 37q0 46 23 95.5t65 92.5h-356q44 -38 84.5 -99t78.5 -147l494 -1106z"/>
<glyph unicode="W" horiz-adv-x="2189" d="M1308 1407h-378l160 -121l-1 -31q-9 -3 -12.5 -7.5t-3.5 -12.5q0 -4 3 -15q1 -4 1 -6l414 -1183l63 170l-335 939q-14 39 -21.5 70t-7.5 47q0 54 110 143zM1937 1247q16 35 48 74.5t81 85.5h-247q61 -57 86.5 -92.5t31.5 -67.5zM536 1407h-380l159 -121v-31 q-9 -3 -13.5 -8t-4.5 -12q0 -3 2.5 -10t3.5 -11l414 -1183l63 164l-336 946q-13 39 -20.5 69t-7.5 47q0 52 107 139zM733 -25h-28l-441 1231q-28 82 -98 141.5t-131 59.5h-58v39h723v-39h-6q-59 0 -117.5 -59.5t-58.5 -110.5q0 -12 4 -31t10 -38l297 -836l265 725l-58 149 q-33 86 -100.5 143.5t-128.5 57.5h-57v39h723v-39h-7q-59 0 -118.5 -59.5t-59.5 -110.5q0 -10 4 -27.5t13 -42.5l297 -829l286 788q9 22 13 40t4 34q0 67 -72 137t-143 70h-45v39h618v-39q-114 -24 -207.5 -109t-136.5 -204l-416 -1119h-24l-367 1022z"/>
<glyph unicode="X" horiz-adv-x="1640" d="M1081 39h387q-52 33 -100 80.5t-119 138.5l-706 905q-21 27 -31 55t-10 58q0 47 20.5 79t63.5 52h-426q54 -28 101.5 -69.5t109.5 -118.5l714 -913l9 -12q55 -71 55 -122q0 -37 -17 -71t-51 -62zM1202 1221q39 52 89 97.5t118 88.5h-248q27 -24 41.5 -54.5t14.5 -66.5 q0 -12 -3.5 -27t-11.5 -38zM322 39l-1 6q-8 60 -8 86q0 10 1 22.5t3 30.5q-42 -43 -90.5 -79.5t-103.5 -65.5h199zM-57 0v39h37q68 0 168 63.5t200 171.5l387 422l-405 518q-69 88 -146 140.5t-133 52.5h-51v39h778v-39h-49q-66 0 -96.5 -25.5t-30.5 -81.5q0 -31 12 -61 t37 -61l242 -310l223 248q33 36 49.5 76.5t16.5 87.5q0 59 -29.5 93t-79.5 34h-72v39h672v-39h-53q-84 0 -190 -62.5t-207 -173.5l-305 -333l438 -562q82 -105 169.5 -171t139.5 -66h57v-39h-858v39h88q67 0 111.5 39t44.5 96q0 22 -9.5 44t-35.5 56l-305 390l-348 -379 q-23 -24 -34 -52.5t-11 -60.5q0 -55 36 -94t88 -39h119v-39h-665z"/>
<glyph unicode="Y" horiz-adv-x="1546" d="M1217 1214q42 55 89.5 103t100.5 90h-231q24 -36 36.5 -70t12.5 -67q0 -14 -2 -28t-6 -28zM819 172v641l-276 336q-27 32 -38 58t-11 55q0 33 16 66.5t53 78.5h-395q45 -30 85.5 -67.5t88.5 -96.5l363 -448v-613q0 -43 -20.5 -76.5t-68.5 -66.5h287q-52 41 -68 66.5 t-16 66.5zM920 209q0 -71 46.5 -120.5t112.5 -49.5h47v-39h-663v39h51q61 0 107.5 50t46.5 120v575l-379 467q-51 63 -123.5 109.5t-112.5 46.5h-59v39h782v-39h-76q-44 0 -74 -35.5t-30 -85.5q0 -27 9 -50t30 -48l260 -324l238 260q25 27 40 63t15 68q0 70 -29 111t-78 41 h-80v39h670v-39h-69q-68 0 -176 -68.5t-209 -179.5l-297 -328v-622z"/>
<glyph unicode="Z" horiz-adv-x="1606" d="M1032 39h318q21 65 49.5 136.5t64.5 152.5q-91 -98 -200 -171t-232 -118zM178 1169q72 85 149 144.5t160 93.5h-217q-14 -50 -37 -108.5t-55 -129.5zM231 39l1078 1368h-150l-1065 -1368h137zM18 0l1096 1407h-418q-152 0 -296.5 -94t-284.5 -283l-39 21q37 66 59.5 162 t32.5 233h1294l-1095 -1407h432q192 0 392.5 118.5t369.5 331.5l34 -16q-47 -89 -81 -206.5t-56 -266.5h-1440z"/>
<glyph unicode="[" horiz-adv-x="739" d="M184 0v1446h424v-39h-200v-1368h200v-39h-424zM223 39h94v1368h-94v-1368z"/>
<glyph unicode="\" horiz-adv-x="569" d="M616 -190l-665 1660h67l666 -1660h-68z"/>
<glyph unicode="]" horiz-adv-x="739" d="M465 1407h-94v-1368h94v1368zM555 1446v-1446h-424v39h201v1368h-201v39h424z"/>
<glyph unicode="^" horiz-adv-x="2048" d="M940 1462h166l526 -565h-88l-522 451l-524 -451h-86z"/>
<glyph unicode="_" horiz-adv-x="1024" d="M0 -383h1024v-100h-1024v100z"/>
<glyph unicode="`" horiz-adv-x="1024" d="M547 821l-195 205q-15 16 -26 22.5t-21 6.5q-16 0 -25.5 -9t-9.5 -24q1 -13 8.5 -23.5t22.5 -19.5zM688 737h-67l-330 205q-31 20 -46.5 41t-15.5 43q0 31 20.5 50.5t53.5 19.5q20 0 40.5 -12t55.5 -48z"/>
<glyph unicode="a" horiz-adv-x="891" d="M299 18q-62 23 -95.5 66.5t-33.5 99.5q0 46 20 85t62 75q-79 -23 -120.5 -68.5t-41.5 -107.5q0 -63 53 -107.5t131 -44.5q5 0 13 1t12 1zM309 500q0 18 5 39t15 50q-22 -14 -40.5 -30t-32.5 -35zM519 614q10 -21 16 -52.5t6 -69.5v-334q0 -73 29.5 -108.5t88.5 -35.5 q11 0 23.5 2t21.5 4q-48 8 -65.5 32.5t-17.5 88.5v211q0 131 -23 179t-79 83zM504 377q-131 -11 -194.5 -56t-63.5 -126q0 -60 36 -99t91 -39q38 0 71 21t60 61v238zM506 84q-54 -55 -109 -82t-116 -27q-98 0 -161 56t-63 139q0 101 83 155t263 70q11 1 30 3q71 6 71 48v93 q0 43 -16 64.5t-48 21.5q-39 0 -64.5 -23.5t-25.5 -60.5q0 -31 15.5 -56t48.5 -49l-23 -33l-194 99q54 79 118 120.5t134 41.5q125 0 193.5 -75.5t68.5 -213.5v-240q0 -35 9.5 -52t29.5 -17q27 0 55.5 30.5t42.5 77.5l33 -18q-29 -83 -88.5 -132t-128.5 -49q-57 0 -99.5 30 t-58.5 79z"/>
<glyph unicode="b" horiz-adv-x="874" d="M514 27q97 20 153 100t56 199q0 108 -52 186t-141 102q47 -40 71 -114.5t24 -177.5q0 -106 -29 -183t-82 -112zM152 29l81 34v1352q-36 -7 -67.5 -11t-58.5 -5q23 -24 34 -63.5t11 -102.5v-1204zM319 584v-400q0 -80 27 -118.5t82 -38.5q76 0 119 80t43 223 q0 134 -42.5 213.5t-113.5 79.5q-26 0 -54.5 -10t-60.5 -29zM117 -25v1260q0 89 -23.5 126.5t-79.5 37.5h-51v40q9 0 21 -0.5t36 -0.5q64 0 137.5 8t161.5 24v-845q34 19 72 29t82 10q147 0 244.5 -94.5t97.5 -237.5q0 -149 -96 -246.5t-244 -97.5q-52 0 -100 13.5t-92 41.5 z"/>
<glyph unicode="c" horiz-adv-x="803" d="M653 532l-21 78q-5 -2 -11.5 -3t-20.5 -1q-11 0 -17 0.5t-11 1.5q22 -15 42.5 -34t38.5 -42zM307 37q-62 54 -93.5 125.5t-31.5 156.5q0 96 36.5 176.5t94.5 118.5q-103 -27 -162 -105t-59 -187q0 -102 56.5 -176.5t158.5 -108.5zM729 254l27 -8q-28 -122 -121 -196.5 t-217 -74.5q-157 0 -259 100t-102 251q0 144 99.5 241t249.5 97q49 0 115.5 -12.5t82.5 -12.5q12 0 18.5 4t8.5 12l37 4l82 -253l-35 -7q-62 110 -136.5 170t-148.5 60q-79 0 -117.5 -78t-38.5 -238q0 -159 40 -229t130 -70q95 0 172.5 65t112.5 175z"/>
<glyph unicode="d" horiz-adv-x="874" d="M299 31q-55 47 -80.5 117.5t-25.5 173.5q0 99 22.5 169.5t71.5 120.5q-94 -38 -142.5 -113t-48.5 -182q0 -105 55.5 -183.5t147.5 -102.5zM553 104v437q-30 33 -65 51t-66 18q-69 0 -103 -77t-34 -234q0 -125 36.5 -196.5t100.5 -71.5q36 0 69 18t62 55zM672 39l-1 1376 q-39 -7 -70 -11t-58 -5q24 -25 34.5 -59t10.5 -107v-1194h84zM758 201q0 -101 19.5 -131.5t74.5 -30.5h70v-39h-369v51q-38 -30 -80.5 -44.5t-93.5 -14.5q-139 0 -230.5 95.5t-91.5 242.5q0 141 92 235t230 94q43 0 87 -18t87 -53v647q0 89 -23.5 126.5t-78.5 37.5h-50l1 41 q9 -1 20.5 -1.5t36.5 -0.5q64 0 137 8t162 24v-1269z"/>
<glyph unicode="e" horiz-adv-x="803" d="M729 254l27 -8q-28 -122 -121 -196.5t-217 -74.5q-157 0 -259 100t-102 251q0 148 101.5 243t261.5 95q134 0 223 -72.5t123 -208.5h-467v31h239q-1 105 -33.5 160t-92.5 55q-67 0 -102.5 -81.5t-35.5 -234.5q0 -158 40 -225.5t130 -67.5q97 0 174 63t111 171zM307 37 q-62 54 -93.5 125.5t-31.5 156.5q0 96 36.5 176.5t94.5 118.5q-103 -27 -162 -105t-59 -187q0 -102 56.5 -176.5t158.5 -108.5zM664 414q-13 67 -50.5 117t-97.5 77q24 -31 38 -75.5t22 -118.5h88z"/>
<glyph unicode="f" horiz-adv-x="602" d="M561 1285l60 22q-22 66 -55.5 99t-79.5 36q34 -16 53 -56t22 -101zM213 940v-793q0 -45 -8.5 -70.5t-28.5 -39.5h45q46 0 60 13.5t14 68.5v934q0 96 9.5 168.5t29.5 121.5q-60 -70 -90.5 -172t-30.5 -231zM381 608v-428q0 -80 29.5 -111.5t103.5 -31.5h55v-37h-538v37h37 q59 0 84.5 28.5t25.5 96.5v446h-147v37h147v279q0 234 93 390t223 156q71 0 126 -44t80 -123l-159 -70q-5 92 -28 143t-58 51q-41 0 -57.5 -50t-16.5 -183v-549h205v-37h-205z"/>
<glyph unicode="g" horiz-adv-x="702" d="M525 652l7 -1q25 0 43.5 -10t36.5 -33l31 29q-13 16 -30 24.5t-35 8.5q-17 0 -30 -4.5t-23 -13.5zM260 -324q-81 40 -123.5 82.5t-42.5 83.5v15q0 7 0.5 11t1.5 9l-30 -33q-11 -10 -15 -17.5t-4 -14.5q0 -34 64 -77.5t149 -58.5zM301 -84q-69 0 -129 19q-11 4 -12 4 q-7 0 -11 -6.5t-4 -16.5q0 -87 82.5 -163.5t188.5 -76.5q86 0 142 46.5t56 115.5q0 46 -29 71t-83 25q-24 0 -91 -9t-110 -9zM141 81q-12 -10 -18 -22t-6 -24q0 -38 46.5 -61t125.5 -23q40 0 112 8t103 8q71 0 103 -29.5t34 -96.5q3 11 4.5 22t1.5 22q0 70 -50 115t-128 45 q-50 0 -139 -11t-125 -11q-35 0 -50.5 9t-15.5 29q0 7 0.5 11.5t1.5 8.5zM424 252q42 19 67 67.5t25 112.5q0 68 -23.5 115.5t-68.5 68.5q12 -16 18.5 -45.5t6.5 -70.5v-115q0 -55 -6 -86t-19 -47zM244 258q-24 25 -33.5 60t-9.5 108q0 90 11 128.5t38 63.5 q-58 -24 -91.5 -76t-33.5 -116q0 -59 30.5 -102.5t88.5 -65.5zM227 233q-68 31 -101.5 79t-33.5 114q0 99 73.5 168.5t178.5 69.5q30 0 60.5 -7.5t60.5 -21.5q30 35 58.5 51t60.5 16q28 0 57 -15t53 -42l-84 -78q-27 34 -49 50t-41 16q-8 0 -14 -3.5t-12 -11.5 q49 -34 72.5 -80.5t23.5 -109.5q0 -93 -69.5 -158t-170.5 -65q-18 0 -40 3t-56 11q-27 -34 -42 -60t-15 -38q0 -20 15 -31.5t42 -11.5q33 0 106.5 10t112.5 10q103 0 167.5 -57t64.5 -145q0 -117 -94 -187.5t-249 -70.5q-134 0 -240 56t-106 113q0 12 6.5 24t26.5 36l74 94 q-19 12 -28 29t-9 39q0 19 10 40.5t31 45.5zM268 508v-141q0 -67 17.5 -97t54.5 -30q38 0 56 30.5t18 96.5v141q0 65 -18 96t-56 31q-37 0 -54.5 -30.5t-17.5 -96.5z"/>
<glyph unicode="h" horiz-adv-x="1034" d="M203 1317v-1170q0 -45 -8.5 -70.5t-28.5 -39.5h45q47 0 61.5 14t14.5 68l-1 1296q-14 -3 -36.5 -5.5t-68.5 -4.5q11 -12 16.5 -32t5.5 -56zM782 119v299q0 92 -41 140.5t-127 55.5q45 -18 64.5 -54.5t19.5 -104.5v-308q0 -45 -8.5 -70.5t-27.5 -39.5h45q46 0 60.5 14 t14.5 68zM23 0v37h34q60 0 85.5 28.5t25.5 96.5v1145q0 59 -16 75.5t-68 16.5h-61v35q116 3 202.5 12t145.5 24v-974l92 84q52 48 89.5 66t78.5 18q114 0 174.5 -88t60.5 -254v-78q0 -147 17.5 -177t74.5 -30h62v-37h-463v37h27q41 0 60.5 28.5t19.5 92.5v303 q0 60 -27.5 96.5t-71.5 36.5q-20 0 -39.5 -9.5t-38.5 -27.5l-116 -108v-293q0 -77 18 -98t76 -21h29v-37h-471z"/>
<glyph unicode="i" horiz-adv-x="541" d="M205 1116q0 -28 13.5 -44.5t37.5 -16.5q22 0 36.5 17t14.5 44t-14.5 44.5t-36.5 17.5q-24 0 -37.5 -16.5t-13.5 -45.5zM68 0v37h6q56 0 80 28.5t24 96.5v338q0 58 -16.5 75t-69.5 17h-45v36q134 6 210 14.5t124 20.5v-507q0 -77 18 -98t76 -21h37v-37h-444zM295 119 l-1 489q-21 -5 -78 -7q-17 -1 -26 -1q12 -12 17.5 -32t5.5 -56v-365q0 -45 -8.5 -70.5t-28.5 -39.5h45q46 0 60 13.5t14 68.5zM174 1114q0 45 29 75t73 30t74.5 -30.5t30.5 -74.5q0 -43 -30.5 -72.5t-74.5 -29.5q-43 0 -72.5 29t-29.5 73z"/>
<glyph unicode="j" horiz-adv-x="483" d="M178 1116q0 -28 14 -44.5t37 -16.5t37.5 17t14.5 44t-14.5 44.5t-37.5 17.5t-37 -16.5t-14 -45.5zM145 1114q0 45 29.5 75t73.5 30q43 0 73.5 -30.5t30.5 -74.5q0 -43 -30.5 -72.5t-73.5 -29.5q-44 0 -73.5 29t-29.5 73zM268 51v557q-20 -4 -80 -7q-16 0 -26 -1 q12 -12 17 -32t5 -56v-502q0 -71 -14 -124t-43 -87q71 44 106 106t35 146zM150 0v500q0 58 -17 75t-70 17h-45l1 37q133 5 208.5 13t124.5 21v-507q0 -177 -82 -289t-254 -170l-10 35q74 32 109 97t35 171z"/>
<glyph unicode="k" horiz-adv-x="997" d="M39 0v37h18q60 0 85.5 28.5t25.5 96.5v1145q0 59 -16 75.5t-68 16.5h-45v34q120 6 199 14.5t133 22.5v-1173l259 235q9 7 15 19t6 20q0 16 -15 25.5t-40 9.5h-82v39h424v-39h-107q-37 0 -69.5 -15t-67.5 -48l-80 -74l271 -375q28 -36 46.5 -45.5t47.5 -9.5h16v-39h-469 v39h29q41 0 58.5 10t17.5 33q0 11 -3 21t-9 19l-152 212l-96 -82v-96q0 -77 18 -98t76 -21h29v-37h-455zM203 1317v-1170q0 -45 -8.5 -70.5t-28.5 -39.5h45q47 0 61.5 14t14.5 68l-1 1296q-43 -5 -64.5 -7t-40.5 -3q11 -12 16.5 -32t5.5 -56zM655 39h174l-274 377l-63 -56 l157 -218q11 -15 17 -30t6 -28q0 -12 -4.5 -24t-12.5 -21zM682 574l45 32h-61q6 -6 10 -14.5t6 -17.5z"/>
<glyph unicode="l" horiz-adv-x="530" d="M203 1317v-1170q0 -45 -8.5 -70.5t-28.5 -39.5h45q47 0 61.5 14t14.5 68l-1 1296q-43 -5 -64.5 -7t-40.5 -3q11 -12 16.5 -32t5.5 -56zM39 0v37h18q60 0 85.5 28.5t25.5 96.5v1145q0 59 -16 75.5t-68 16.5h-45v34q120 6 199 14.5t133 22.5v-1314q0 -77 18 -98t76 -21h29 v-37h-455z"/>
<glyph unicode="m" horiz-adv-x="1538" d="M1286 119v299q0 92 -41 140.5t-127 55.5q45 -18 64.5 -54.5t19.5 -104.5v-308q0 -45 -8.5 -70.5t-28.5 -39.5h45q47 0 61.5 14t14.5 68zM381 156q0 -77 18 -98t76 -21h29v-37h-473v37h37q59 0 84.5 28.5t25.5 96.5v338q0 58 -16.5 75t-69.5 17h-61v37q124 3 209.5 11.5 t140.5 23.5v-168l92 84q54 49 90.5 66.5t77.5 17.5q70 0 132.5 -49t92.5 -128l101 93q56 49 92.5 66.5t77.5 17.5q114 0 173.5 -88t59.5 -254v-78q0 -144 18 -175.5t76 -31.5h62v-37h-457v37h18q42 0 61 28.5t19 92.5v303q0 60 -26.5 96.5t-69.5 36.5q-21 0 -41.5 -9.5 t-38.5 -27.5l-114 -108v-205q0 -147 17 -177t75 -30h39v-37h-443v37h29q41 0 59.5 28t18.5 93v303q0 60 -26.5 96.5t-70.5 36.5q-20 0 -39.5 -9.5t-37.5 -27.5l-117 -108v-293zM791 119v299q0 92 -41.5 140.5t-126.5 55.5q45 -18 65.5 -55.5t20.5 -103.5v-308q0 -46 -9 -71 t-30 -39h47q45 0 59.5 13.5t14.5 68.5zM295 119l-1 489q-21 -5 -78 -7q-17 -1 -26 -1q12 -12 17.5 -32t5.5 -56v-365q0 -45 -8.5 -70.5t-28.5 -39.5h45q46 0 60 13.5t14 68.5z"/>
<glyph unicode="n" horiz-adv-x="1042" d="M295 119l-1 489q-21 -5 -78 -7q-17 -1 -26 -1q12 -12 17.5 -32t5.5 -56v-365q0 -45 -8.5 -70.5t-28.5 -39.5h45q46 0 60 13.5t14 68.5zM791 119v299q0 92 -41.5 140.5t-126.5 55.5q45 -18 65.5 -55.5t20.5 -103.5v-308q0 -46 -9 -71t-30 -39h47q45 0 59.5 13.5t14.5 68.5 zM31 0v37h37q59 0 84.5 28.5t25.5 96.5v338q0 58 -16.5 75t-69.5 17h-61v37q124 3 209.5 11.5t140.5 23.5v-168l92 84q52 48 89.5 66t78.5 18q115 0 175.5 -88t60.5 -254v-78q0 -147 17 -177t75 -30h61v-37h-465v37h29q41 0 59.5 28t18.5 93v303q0 60 -26.5 96.5t-70.5 36.5 q-20 0 -39.5 -9.5t-37.5 -27.5l-117 -108v-293q0 -77 18 -98t76 -21h29v-37h-473z"/>
<glyph unicode="o" horiz-adv-x="854" d="M319 25q-69 55 -104 129.5t-35 167.5q0 101 38.5 177t113.5 122q-106 -28 -170 -109.5t-64 -187.5q0 -100 60 -181.5t161 -117.5zM426 627q-74 0 -113 -78t-39 -227q0 -151 39 -230.5t113 -79.5t113 79.5t39 230.5q0 149 -39 227t-113 78zM528 25q85 36 132 114t47 180 q0 101 -45.5 177.5t-133.5 121.5q41 -32 63.5 -111.5t22.5 -189.5q0 -102 -21 -175t-65 -117zM426 664q158 0 263.5 -99t105.5 -243q0 -146 -106 -246.5t-263 -100.5t-263 100.5t-106 246.5q0 144 105.5 243t263.5 99z"/>
<glyph unicode="p" horiz-adv-x="903" d="M281 -184l-1 792q-21 -5 -78 -7q-16 0 -26 -1q12 -12 17.5 -32t5.5 -56v-668q0 -45 -9 -70.5t-28 -39.5h45q46 0 60 13.5t14 68.5zM367 76q20 -20 49 -30.5t59 -10.5q72 0 112 75t40 212q0 143 -36.5 217.5t-105.5 74.5q-28 0 -59 -13.5t-59 -39.5v-485zM545 25 q97 24 154 104t57 190q0 102 -49 177.5t-144 121.5q51 -34 76 -111t25 -202q0 -104 -29.5 -174t-89.5 -106zM164 -141v641q0 58 -17 75t-69 17h-62l1 37q124 3 209 11.5t141 23.5v-60q42 26 79 37.5t76 11.5q134 0 228 -96.5t94 -234.5q0 -137 -93.5 -234.5t-226.5 -97.5 q-38 0 -77 10t-80 31v-178q0 -78 18 -98.5t76 -20.5h45v-37h-490v37h37q60 0 85.5 28.5t25.5 96.5z"/>
<glyph unicode="q" horiz-adv-x="903" d="M664 -184v800l-82 -10v-762q0 -45 -9 -70.5t-28 -39.5h43q46 0 61 14t15 68zM543 76v508q-36 21 -64.5 31t-54.5 10q-70 0 -105.5 -76t-35.5 -227q0 -140 38.5 -213.5t112.5 -73.5q30 0 59 10.5t50 30.5zM272 53q-39 42 -57 104t-18 162q0 96 16 158.5t51 110.5 q-77 -39 -120.5 -111.5t-43.5 -163.5q0 -86 45 -154t127 -106zM745 -141q0 -68 25.5 -96.5t85.5 -28.5h37v-37h-580v37h136q57 0 75.5 20.5t18.5 98.5v178q-36 -19 -73 -28t-77 -9q-137 0 -233.5 95.5t-96.5 232.5q0 135 102.5 238.5t235.5 103.5q36 0 72 -10.5t70 -30.5v12 l338 43v-33q-79 -16 -107.5 -46.5t-28.5 -129.5v-610z"/>
<glyph unicode="r" horiz-adv-x="750" d="M555 625q19 -9 28 -23t13 -41q2 -18 4 -49q5 -80 35 -80q19 0 29 18t10 52q0 60 -27 91.5t-78 31.5h-14zM381 156q0 -77 18 -98t76 -21h39v-37h-475v37h29q59 0 84.5 28.5t25.5 96.5v336q0 57 -16 73.5t-70 16.5h-55v36q126 4 208 13.5t136 26.5v-117q65 62 116.5 89.5 t100.5 27.5q65 0 109.5 -45.5t44.5 -112.5q0 -55 -29 -91t-72 -36q-37 0 -61 28t-27 75v12q-6 106 -39 106q-23 0 -61 -27t-82 -75v-342zM295 123l-1 485q-21 -5 -83 -7q-18 -1 -27 -1q16 -10 22.5 -29t6.5 -59v-360q0 -46 -8.5 -71.5t-28.5 -39.5h45q46 0 60 13.5t14 68.5z "/>
<glyph unicode="s" horiz-adv-x="723" d="M250 39q-22 16 -42.5 37.5t-37.5 46.5l21 -90q11 3 21.5 4.5t20.5 1.5h17zM557 537l-18 77h-15h-36q12 -11 28 -28zM532 66q23 19 34.5 39.5t11.5 44.5q0 50 -36.5 86.5t-143.5 82.5l-7 3q-196 85 -196 182q0 24 9 47.5t29 50.5q-37 -26 -55 -59t-18 -74q0 -71 47 -119 t174 -98l7 -3q159 -63 159 -140q0 -10 -3 -19.5t-12 -23.5zM147 -27l-49 275l39 12q42 -113 116.5 -180.5t156.5 -67.5q48 0 77 25.5t29 66.5q0 60 -151 119l-52 21q-94 38 -140 92.5t-46 126.5q0 84 61.5 142.5t151.5 58.5q27 0 80.5 -8.5t79.5 -8.5q14 0 22.5 5t10.5 14 l40 6l54 -269l-29 -6q-53 119 -109 174.5t-124 55.5q-53 0 -87 -25.5t-34 -64.5q0 -33 26.5 -60.5t83.5 -52.5q15 -7 44 -19q239 -102 239 -227q0 -87 -59.5 -145t-151.5 -58q-39 0 -97.5 16.5t-76.5 16.5q-22 0 -37 -7t-27 -21z"/>
<glyph unicode="t" horiz-adv-x="639" d="M362 645h267v-37h-267v37zM135 279v288q0 29 -6.5 38t-24.5 9q-13 0 -29.5 -2t-35.5 -6v43q61 21 145 108.5t185 235.5l108 162l33 -16l-109 -160q-30 -45 -42.5 -81.5t-12.5 -104.5v-576q0 -83 18.5 -118.5t61.5 -35.5q51 0 100.5 38t104.5 120l24 -18 q-61 -107 -140.5 -167.5t-158.5 -60.5q-104 0 -162.5 80t-58.5 224zM258 784q-21 -26 -42 -48.5t-44 -41.5v-426q0 -127 47.5 -186t150.5 -63q-62 21 -87 70.5t-25 166.5v528z"/>
<glyph unicode="u" horiz-adv-x="1010" d="M180 512v-231q0 -112 45.5 -178.5t128.5 -77.5q-51 29 -71.5 72.5t-20.5 150.5v360q-20 -4 -79 -7q-17 -1 -25 -1q12 -12 17 -32t5 -56zM670 512v-481l82 12l-1 565q-21 -5 -78 -7q-16 0 -26 -1q12 -12 17.5 -32t5.5 -56zM838 190q0 -79 18.5 -108t65.5 -29h47v-34 q-133 -6 -210.5 -16t-125.5 -28v152q-57 -70 -117 -104.5t-125 -34.5q-120 0 -184 82t-64 237v193q0 59 -16 75.5t-68 16.5h-47l1 37q133 5 209 13t126 22v-439q0 -86 29 -131t84 -45q44 0 90.5 38t81.5 103v310q0 59 -16.5 75.5t-67.5 16.5h-47v36q135 6 211.5 14.5 t124.5 20.5v-473z"/>
<glyph unicode="v" horiz-adv-x="770" d="M612 514q11 23 25 46t31 46h-119q24 -18 39.5 -40.5t23.5 -51.5zM389 35l47 98l-190 377q-6 13 -8 21.5t-2 17.5q0 17 7 31.5t21 25.5h-184q31 -23 65 -91l2 -5zM379 -25l-273 541q-23 48 -53.5 69t-77.5 21h-6v39h424v-39q-29 -1 -47 -19t-18 -46q0 -9 2.5 -20.5 t7.5 -22.5l139 -273l90 196q6 14 9.5 29t3.5 27q0 52 -38 91.5t-91 39.5q-4 0 -10 -1t-9 -1v39h367l-1 -39q-57 -5 -99 -39t-72 -100l-224 -492h-24z"/>
<glyph unicode="w" horiz-adv-x="1233" d="M852 31l43 96l-180 379q-9 19 -13 32.5t-4 24.5q0 17 3 27t10 16h-148q15 -12 28 -32t32 -62zM1081 522l28 45q14 21 28 39h-105q19 -21 31 -41.5t18 -42.5zM401 31l45 96l-182 379q-8 19 -12 32.5t-4 24.5q0 15 3.5 25.5t10.5 17.5h-147q12 -10 25 -29.5t34 -64.5z M387 -25l-266 566q-17 36 -39 51.5t-53 15.5q-9 0 -14 -0.5t-9 -0.5v38h402v-39q-34 0 -50 -12.5t-16 -40.5q0 -11 2.5 -22t7.5 -21l137 -293l119 250l-37 80q-13 30 -33.5 44.5t-50.5 14.5h-20v39h383v-38q-29 -2 -43 -15.5t-14 -40.5q0 -9 2.5 -19.5t7.5 -21.5l137 -295 l102 215q7 14 10 27t3 26q0 54 -32.5 88.5t-84.5 34.5h-31v39h355v-39h-5q-48 0 -86 -32.5t-73 -104.5l-234 -494h-22l-217 451l-213 -451h-25z"/>
<glyph unicode="x" horiz-adv-x="874" d="M166 39h65q-6 7 -9 16t-3 19q0 8 0.5 12.5t1.5 7.5zM610 560l60 46h-82q10 -11 15 -22t7 -24zM385 606h-221q17 -17 32 -35.5t29 -38.5l257 -363l7 -10q23 -30 23 -61q0 -18 -6.5 -32.5t-20.5 -26.5h195l-314 437q-10 14 -16 30.5t-6 32.5q0 22 9.5 37.5t31.5 29.5zM23 0 v39h26q44 0 72.5 13t64.5 52l170 185l-172 243q-31 46 -54.5 60t-59.5 14h-29v39h453v-39h-7q-32 0 -48.5 -14.5t-16.5 -42.5q0 -8 4 -18.5t10 -18.5l60 -78l61 66q10 12 16.5 26t6.5 27q0 24 -17.5 38.5t-46.5 14.5v39h313v-39h-43q-39 0 -81.5 -21.5t-77.5 -60.5 l-111 -121l203 -282q39 -54 62.5 -68t58.5 -14h32v-39h-473v39h9q34 0 51.5 14.5t17.5 42.5q0 12 -4.5 24.5t-13.5 26.5l-80 111l-88 -98q-14 -16 -21.5 -33t-7.5 -33q0 -25 15.5 -40t41.5 -15h27v-39h-323z"/>
<glyph unicode="y" horiz-adv-x="793" d="M135 -296q52 4 93.5 36t72.5 92q-45 -31 -76.5 -44t-60.5 -13q-9 0 -34 3q-5 1 -7 1zM623 512q14 27 32 50.5t39 43.5h-116q13 -13 23.5 -34.5t21.5 -59.5zM403 49l46 96l-176 356q-10 20 -14.5 35t-4.5 27q0 11 4.5 21.5t13.5 21.5h-159q25 -17 63 -97l4 -9zM115 -383 l-35 215q22 -10 43 -14t43 -4q60 0 107 32t79 95l31 63l-258 528q-20 40 -45 57t-62 17h-28v39h426l-1 -39q-36 -2 -51.5 -15t-15.5 -42q0 -13 2.5 -26.5t5.5 -20.5l136 -271l83 185q1 1 3 5q18 40 18 64q0 46 -31 83.5t-69 37.5h-35v39h354v-39q-59 0 -103.5 -41.5 t-93.5 -142.5l-247 -531q-70 -150 -129 -212t-127 -62z"/>
<glyph unicode="z" horiz-adv-x="856" d="M539 39h136q8 23 18.5 45t25.5 45q-38 -26 -82.5 -48.5t-97.5 -41.5zM158 537q23 22 58 38.5t87 30.5h-125zM51 0l475 606h-26q-136 0 -237.5 -55.5t-156.5 -159.5l-24 15q28 67 45 126t25 113h655l-475 -606q138 0 256 52t203 151l32 -15q-24 -42 -47.5 -100t-42.5 -127 h-682zM127 39h106l445 567h-107z"/>
<glyph unicode="{" horiz-adv-x="1024" d="M846 1516v-49q-147 -2 -200.5 -55t-53.5 -210v-145q0 -225 -63 -308t-234 -114q171 -32 234 -114.5t63 -307.5v-145q0 -156 53 -208.5t201 -54.5v-49h-10q-215 0 -295 73t-80 273v217q0 156 -60 216t-225 73v56q168 15 226.5 73.5t58.5 214.5v217q0 200 80 273.5 t295 73.5h10z"/>
<glyph unicode="|" horiz-adv-x="1024" d="M459 1565h108v-2048h-108v2048z"/>
<glyph unicode="}" horiz-adv-x="1024" d="M178 1516h10q216 0 296.5 -74t80.5 -273v-217q0 -157 58 -215t225 -73v-56q-165 -13 -224 -72.5t-59 -216.5v-217q0 -199 -80.5 -272.5t-296.5 -73.5h-10v49q149 2 202.5 55t53.5 208v145q0 226 62.5 308.5t232.5 113.5q-170 31 -232.5 113.5t-62.5 308.5v145 q0 155 -53.5 208.5t-202.5 56.5v49z"/>
<glyph unicode="~" horiz-adv-x="1706" d="M1530 750v-113q-102 -72 -198 -107.5t-189 -35.5q-99 0 -260 57l-29 10l-16 6q-176 64 -273 64q-83 0 -175 -38t-212 -122v113q106 73 202 109t185 36q104 0 272 -61q11 -4 18 -7q9 -3 31 -11q167 -60 257 -60q85 0 177 38t210 122z"/>
<glyph d="M981 1188q-14 50 -23 102.5t-12 107.5q-18 -5 -36.5 -8.5t-37.5 -3.5q-18 0 -33.5 2t-29.5 7q53 -36 96 -87.5t76 -119.5zM535 29q-64 49 -108.5 112.5t-72.5 145.5q-27 78 -40 184t-13 260q0 153 7.5 242t25.5 155q16 66 50.5 133.5t84.5 133.5q-135 -103 -207 -275.5 t-72 -394.5q0 -252 92 -439t253 -257zM162 866h-146l17 49h135q16 91 45 170t74 152q66 111 159.5 172t192.5 61q51 0 111.5 -17t105.5 -17q49 0 85 10t67 33v-31q0 -109 10.5 -212t32.5 -200l-31 -10q-71 189 -174 298.5t-207 109.5q-117 0 -173 -119.5t-67 -399.5h568 l-17 -49h-550q-2 -21 -2.5 -45t-0.5 -76v-86h482l-17 -49h-463q10 -312 76 -454t199 -142q103 0 207 109.5t153 267.5l33 -16q-60 -185 -171.5 -292.5t-244.5 -107.5q-74 0 -139 27t-125 82q-95 91 -154 225.5t-75 300.5h-142l17 49l123 1q-1 10 -1.5 23.5t-0.5 39.5 q0 43 2 78t6 65z"/>
<glyph unicode="€" d="M981 1188q-14 50 -23 102.5t-12 107.5q-18 -5 -36.5 -8.5t-37.5 -3.5q-18 0 -33.5 2t-29.5 7q53 -36 96 -87.5t76 -119.5zM535 29q-64 49 -108.5 112.5t-72.5 145.5q-27 78 -40 184t-13 260q0 153 7.5 242t25.5 155q16 66 50.5 133.5t84.5 133.5q-135 -103 -207 -275.5 t-72 -394.5q0 -252 92 -439t253 -257zM162 866h-146l17 49h135q16 91 45 170t74 152q66 111 159.5 172t192.5 61q51 0 111.5 -17t105.5 -17q49 0 85 10t67 33v-31q0 -109 10.5 -212t32.5 -200l-31 -10q-71 189 -174 298.5t-207 109.5q-117 0 -173 -119.5t-67 -399.5h568 l-17 -49h-550q-2 -21 -2.5 -45t-0.5 -76v-86h482l-17 -49h-463q10 -312 76 -454t199 -142q103 0 207 109.5t153 267.5l33 -16q-60 -185 -171.5 -292.5t-244.5 -107.5q-74 0 -139 27t-125 82q-95 91 -154 225.5t-75 300.5h-142l17 49l123 1q-1 10 -1.5 23.5t-0.5 39.5 q0 43 2 78t6 65z"/>
<glyph unicode=" "/>
<glyph unicode="¡" horiz-adv-x="844" d="M453 1255q22 0 31.5 18t9.5 64q0 48 -9.5 66t-31.5 18q-29 0 -50.5 -24.5t-21.5 -59.5q0 -34 21.5 -58t50.5 -24zM336 1337q0 54 36 90.5t89 36.5q52 0 88.5 -37t36.5 -90q0 -52 -36.5 -87.5t-88.5 -35.5q-53 0 -89 35.5t-36 87.5zM436 821l-92 -782h143zM469 1047 l113 -1047h-285l131 1047h41z"/>
<glyph unicode="¢" d="M563 410v591q-72 -7 -106.5 -82t-34.5 -225q0 -141 33.5 -208t107.5 -76zM457 422q-62 53 -93.5 123t-31.5 155q0 94 35 171.5t94 115.5q-103 -27 -160 -102.5t-57 -182.5q0 -99 56.5 -173.5t156.5 -106.5zM872 635l27 -8q-24 -107 -101.5 -173.5t-193.5 -80.5v-281h-41 v278q-157 4 -255.5 97.5t-98.5 237.5q0 142 97 233t257 97v132h41v-135q69 -12 99 -16t45 -4q12 0 17.5 3.5t8.5 12.5l37 2l82 -246l-35 -6q-57 100 -122.5 157t-131.5 64v-593q97 9 166.5 68.5t101.5 160.5zM796 908l-20 75q-8 -2 -14.5 -3t-11.5 -1q-8 0 -16 1t-19 3 q26 -18 46 -37t35 -38z"/>
<glyph unicode="£" d="M442 1417q-119 -36 -188.5 -125.5t-69.5 -208.5q0 -164 217 -414l17 -20q96 -114 123.5 -171t27.5 -116v-13q3 11 4.5 24.5t1.5 27.5q0 49 -20 106.5t-63 131.5l-32 52q-149 246 -149 423q0 97 33.5 174.5t97.5 128.5zM234 299q87 -30 243 -174l21 -19 q51 -45 109.5 -69.5t115.5 -24.5q101 0 168.5 56.5t91.5 160.5q-41 -72 -101 -109.5t-137 -37.5q-98 0 -263 106l-76 48q-54 30 -94.5 45t-77.5 18zM422 127q-82 82 -136 114.5t-104 32.5q-52 0 -86.5 -33.5t-34.5 -84.5q0 -58 44 -97t110 -39q55 0 106.5 27t100.5 80z M672 938q21 -6 39.5 -9t33.5 -3q86 0 140.5 61.5t54.5 159.5q0 85 -48.5 145t-148.5 99q51 -48 76 -102.5t25 -117.5q0 -88 -48.5 -153.5t-123.5 -79.5zM559 219q51 -33 99 -49t96 -16q104 0 172 81.5t102 247.5l37 -8q-6 -236 -93.5 -367t-238.5 -131q-71 0 -136.5 27 t-135.5 84q-62 -59 -123 -88t-123 -29q-90 0 -147.5 50.5t-57.5 128.5q0 84 64 139t164 55q57 0 120.5 -22t145.5 -70q14 20 21 44.5t7 55.5q0 64 -31.5 128t-97.5 132h-268v58h207q-112 131 -157.5 225t-45.5 186q0 167 125 278t314 111q190 0 319 -100t129 -244 q0 -107 -71 -179.5t-177 -72.5q-56 0 -103.5 21t-84.5 61l17 23q10 -3 18 -4.5t16 -1.5q66 0 113 58t47 145q0 103 -61.5 175t-147.5 72q-89 0 -145 -83t-56 -218q0 -106 36.5 -214t117.5 -238h325v-58h-297q27 -56 40.5 -103t13.5 -85q0 -54 -16.5 -104.5t-51.5 -100.5z "/>
<glyph unicode="¤" d="M981 1188q-14 50 -23 102.5t-12 107.5q-18 -5 -36.5 -8.5t-37.5 -3.5q-18 0 -33.5 2t-29.5 7q53 -36 96 -87.5t76 -119.5zM535 29q-64 49 -108.5 112.5t-72.5 145.5q-27 78 -40 184t-13 260q0 153 7.5 242t25.5 155q16 66 50.5 133.5t84.5 133.5q-135 -103 -207 -275.5 t-72 -394.5q0 -252 92 -439t253 -257zM162 866h-146l17 49h135q16 91 45 170t74 152q66 111 159.5 172t192.5 61q51 0 111.5 -17t105.5 -17q49 0 85 10t67 33v-31q0 -109 10.5 -212t32.5 -200l-31 -10q-71 189 -174 298.5t-207 109.5q-117 0 -173 -119.5t-67 -399.5h568 l-17 -49h-550q-2 -21 -2.5 -45t-0.5 -76v-86h482l-17 -49h-463q10 -312 76 -454t199 -142q103 0 207 109.5t153 267.5l33 -16q-60 -185 -171.5 -292.5t-244.5 -107.5q-74 0 -139 27t-125 82q-95 91 -154 225.5t-75 300.5h-142l17 49l123 1q-1 10 -1.5 23.5t-0.5 39.5 q0 43 2 78t6 65z"/>
<glyph unicode="¥" horiz-adv-x="1489" d="M1128 1214q40 56 83.5 103.5t93.5 89.5h-215q23 -36 35 -71t12 -68q0 -11 -6 -39q-2 -9 -3 -15zM764 172v641l-254 336q-24 31 -34.5 57.5t-10.5 55.5q0 32 15 67t48 78h-364q40 -28 76 -63.5t86 -100.5l333 -448v-613q0 -41 -19 -75.5t-62 -67.5h264q-48 40 -63 66 t-15 67zM856 209q0 -71 43 -120.5t105 -49.5h43v-39h-611v39h47q56 0 99 50t43 120v444h-527v49h527v82l-101 127h-426v50h391l-213 290q-45 62 -112 109t-105 47h-53v39h719v-39h-70q-41 0 -68.5 -35.5t-27.5 -85.5q0 -29 7.5 -50.5t27.5 -47.5l237 -324l220 260 q24 29 37.5 63t13.5 66q0 70 -27 112t-71 42h-74v39h616v-39h-61q-63 0 -163.5 -68.5t-193.5 -179.5l-165 -198h428v-50h-467l-68 -80v-129h535v-49h-535v-444z"/>
<glyph unicode="¦" horiz-adv-x="1024" d="M459 408h108v-758h-108v758zM459 1432h108v-758h-108v758z"/>
<glyph unicode="§" horiz-adv-x="1024" d="M774 1317q-24 39 -62.5 65t-86.5 35q35 -17 59 -47t41 -80zM188 -61q23 -43 57.5 -71.5t82.5 -43.5q-34 21 -56 55.5t-34 85.5zM309 1374q-38 -22 -60 -64.5t-22 -92.5q0 -60 32.5 -118t94.5 -110l310 -256q63 -52 98 -109.5t35 -107.5q0 -25 -5 -45.5t-16 -38.5 q34 26 50 60.5t16 80.5q0 65 -34.5 125.5t-105.5 120.5l-292 248q-63 52 -96 107t-33 106q0 19 6.5 41t21.5 53zM211 825q-39 -22 -62.5 -65.5t-23.5 -95.5q0 -58 32 -116t93 -110l307 -260q61 -52 94 -109t33 -110q0 -24 -5 -45.5t-15 -40.5q34 26 50.5 61.5t16.5 83.5 q0 64 -33.5 125t-101.5 121l-289 252q-60 52 -92.5 107t-32.5 106q0 22 7 45t22 51zM646 313q96 -81 142 -153t46 -144q0 -114 -100 -186t-261 -72q-118 0 -205.5 53t-120.5 144l129 74q16 -101 71 -157t138 -56q73 0 118.5 40t45.5 103q0 48 -35 97.5t-165 160.5l-181 154 q-89 77 -132.5 147t-43.5 137q0 109 78 179t209 77q-102 89 -145.5 157t-43.5 138q0 120 89.5 192t238.5 72q110 0 188 -39.5t130 -121.5l-127 -70q-30 90 -74.5 133t-108.5 43q-70 0 -111.5 -36t-41.5 -97q0 -54 39.5 -109.5t167.5 -164.5l178 -152q89 -75 131.5 -146 t42.5 -145q0 -106 -78 -174.5t-208 -77.5zM260 733q0 -48 32.5 -98.5t100.5 -110.5q110 -95 156 -123t80 -28q57 0 96 36t39 91q0 46 -29.5 94t-99.5 115q-82 79 -140 114t-104 35q-55 0 -93 -36.5t-38 -88.5z"/>
<glyph unicode="¨" horiz-adv-x="1024" d="M326 813q23 0 33 17.5t10 60.5q0 42 -10 60t-33 18q-29 0 -49.5 -22.5t-20.5 -55.5t20.5 -55.5t49.5 -22.5zM219 891q0 50 33.5 84.5t83.5 34.5q49 0 84 -35t35 -84t-35 -83t-84 -34t-83 34t-34 83zM676 813q23 0 33 17.5t10 60.5q0 44 -9.5 61t-31.5 17q-29 0 -50.5 -23 t-21.5 -55q0 -33 20.5 -55.5t49.5 -22.5zM569 891q0 50 34.5 84.5t84.5 34.5q49 0 83 -35t34 -84t-34 -83t-83 -34t-84 34t-35 83z"/>
<glyph unicode="©" horiz-adv-x="1683" d="M1120 1093l31 1v-310h-37q-32 135 -104 205t-179 70q-125 0 -189 -95t-64 -280q0 -188 69 -285.5t203 -97.5q88 0 158.5 43.5t126.5 130.5l32 -22q-58 -105 -142.5 -156t-199.5 -51q-163 0 -280 122.5t-117 295.5q0 185 115 310.5t282 125.5q74 0 148 -34t82 -34 q28 0 44.5 16t20.5 45zM844 1300q-122 0 -236 -48t-200 -136q-89 -91 -135 -203t-46 -235q0 -125 47 -237.5t136 -200.5q89 -90 198.5 -136.5t233.5 -46.5q125 0 237 47t197 136q88 91 135 204t47 234q0 122 -48 239t-134 203t-199 133t-233 47zM844 1376q137 0 265 -53 t224 -149q97 -96 151 -227t54 -269q0 -137 -52.5 -264t-152.5 -228q-97 -99 -224 -151.5t-267 -52.5q-139 0 -264.5 52t-227.5 152q-100 99 -152.5 225t-52.5 267q0 140 52.5 267.5t150.5 225.5q97 98 226 151.5t270 53.5z"/>
<glyph unicode="ª" horiz-adv-x="668" d="M225 1008q-47 16 -72.5 46.5t-25.5 69.5q0 32 15 60t46 53q-59 -17 -89.5 -49t-30.5 -76q0 -43 40 -73.5t99 -30.5h18zM231 1346q0 12 3.5 26t13.5 37q-20 -12 -33 -23.5t-22 -23.5zM389 1425q8 -16 12.5 -37.5t4.5 -48.5v-233q0 -51 22 -75.5t68 -24.5q6 0 14 1t18 3 q-36 5 -49.5 23t-13.5 61v147q0 92 -17 125.5t-59 58.5zM379 1260q-98 -8 -146.5 -39.5t-48.5 -87.5q0 -43 27 -70t70 -27q28 0 53.5 15t44.5 43v166zM379 1055q-41 -39 -82 -57.5t-86 -18.5q-73 0 -120.5 38.5t-47.5 96.5q0 71 62.5 109t198.5 49q8 1 22 2q53 4 53 35v63 q0 31 -12.5 46.5t-36.5 15.5q-30 0 -49 -17t-19 -43q0 -21 11.5 -38t37.5 -36l-18 -22l-146 70q41 54 89.5 83t99.5 29q94 0 145 -52.5t51 -150.5v-167q0 -25 8 -37.5t23 -12.5q20 0 41.5 22t32.5 56l25 -14q-23 -58 -67.5 -91.5t-96.5 -33.5q-42 0 -74.5 20.5t-44.5 55.5z "/>
<glyph unicode="«" horiz-adv-x="778" d="M575 195q-30 50 -53 83.5t-43 57.5q20 24 43 57t53 84q-29 -29 -70.5 -64.5t-94.5 -76.5l94 -77q42 -35 71 -64zM352 336q101 77 212.5 174.5t125.5 97.5q9 0 15 -5.5t6 -14.5q0 -26 -40.5 -87t-125.5 -165q85 -104 125.5 -165t40.5 -85q-1 -10 -6 -16t-15 -7 q-14 0 -126 97.5t-212 175.5zM281 195q-40 65 -59 93t-36 48q17 20 36 47.5t59 93.5q-33 -32 -74 -67.5t-90 -73.5q49 -38 90 -73.5t74 -67.5zM57 336q100 76 213 174t127 98q10 0 15.5 -5.5t5.5 -14.5q0 -23 -37 -79t-131 -173q88 -108 128 -167.5t40 -82.5 q0 -9 -5.5 -15.5t-15.5 -7.5q-14 0 -128 98.5t-212 174.5z"/>
<glyph unicode="¬" horiz-adv-x="1706" d="M254 858h1198v-502h-96v402h-1102v100z"/>
<glyph unicode="­" horiz-adv-x="811" d="M166 266h438l23 72h-439zM80 184l72 234h499l15 43h63l-72 -234h-501l-15 -43h-61z"/>
<glyph unicode="®" horiz-adv-x="1683" d="M723 717h33h35q119 0 183 45.5t64 130.5q0 74 -55.5 118t-151.5 44q-52 0 -80 -19t-28 -55v-264zM469 1090h393q147 0 231.5 -54t84.5 -145q0 -75 -68.5 -122.5t-220.5 -76.5q94 -31 141.5 -79t69.5 -134q6 -23 13 -64q14 -85 58 -85q37 0 54.5 32t17.5 99h41v-12 q0 -86 -40 -131.5t-116 -45.5q-45 0 -79 18.5t-48 51.5q-16 38 -17 111.5t-9 99.5q-21 66 -73.5 97.5t-141.5 31.5q-6 0 -18.5 -1t-18.5 -1v-246q0 -56 29 -78.5t102 -24.5v-40h-385v40q75 3 103 25t28 78v514q0 56 -28 77.5t-103 23.5v41zM844 1300q-122 0 -236 -48 t-200 -136q-88 -89 -134.5 -202t-46.5 -236q0 -125 47 -237.5t136 -200.5q89 -90 198.5 -136.5t233.5 -46.5q125 0 237 47t197 136q88 91 135 204t47 234q0 122 -48.5 239.5t-133.5 202.5q-86 86 -199 133t-233 47zM844 1376q137 0 265 -53.5t226 -151.5 q96 -96 149.5 -225.5t53.5 -267.5q0 -139 -53.5 -266.5t-153.5 -227.5q-99 -99 -225.5 -150.5t-267.5 -51.5q-138 0 -263 52.5t-225 151.5t-152.5 225t-52.5 267q0 140 52.5 267.5t150.5 225.5q97 98 226 151.5t270 53.5z"/>
<glyph unicode="¯" horiz-adv-x="1024" d="M289 909v-47h446v47h-446zM254 829v125h516v-125h-516z"/>
<glyph unicode="°" horiz-adv-x="674" d="M338 1382q-86 0 -147.5 -61t-61.5 -147q0 -87 61 -147t148 -60t147 60t60 147q0 86 -60.5 147t-146.5 61zM338 1452q115 0 195.5 -81.5t80.5 -196.5t-81.5 -197t-196.5 -82q-117 0 -197 81t-80 198q0 116 81.5 197t197.5 81z"/>
<glyph unicode="±" horiz-adv-x="1706" d="M254 150h1198v-99h-1198v99zM805 1169h98v-348h549v-98h-549v-348h-98v348h-551v98h551v348z"/>
<glyph unicode="²" horiz-adv-x="729" d="M295 1145h-10q-64 0 -101 34.5t-37 94.5q0 45 25 83.5t72 65.5q-75 -17 -118.5 -63t-43.5 -105q0 -56 40 -94.5t99 -38.5q22 0 40 5.5t34 17.5zM311 889q131 86 195.5 172.5t64.5 175.5q0 65 -40.5 116.5t-110.5 76.5q39 -27 61.5 -74.5t22.5 -104.5q0 -87 -45.5 -173 t-147.5 -189zM535 600l22 68h-428l-49 -68h455zM29 578q14 26 46 68t99 122l71 78q104 114 150 176q41 53 61.5 111t20.5 118q0 81 -37 131t-96 50q-58 0 -98.5 -43.5t-40.5 -106.5q0 -51 31 -86t73 -35q3 0 8 1l15 3l12 -14q-26 -24 -57 -36.5t-66 -12.5q-70 0 -117 43.5 t-47 107.5q0 87 84.5 147t210.5 60q124 0 206.5 -67t82.5 -166q0 -80 -58 -155.5t-204 -178.5q-6 -4 -18 -13q-129 -92 -189 -163h332q54 0 81 18.5t46 67.5l31 -8q-23 -49 -43 -102.5t-39 -114.5h-551z"/>
<glyph unicode="³" horiz-adv-x="729" d="M248 608q-28 24 -41.5 49t-13.5 54q0 14 6 41.5t6 42.5q0 24 -12 39.5t-31 15.5q-23 0 -36 -18.5t-13 -49.5q0 -53 35 -99t100 -75zM442 598q73 22 116.5 83t43.5 142q0 76 -40.5 135.5t-108.5 83.5q35 -26 52 -77.5t17 -130.5q0 -93 -19 -149.5t-61 -86.5zM545 1346 l45 51h-406l-28 -74q16 11 38 17t50 6h301zM244 987l-19 17l297 319h-270q-60 0 -86 -17.5t-45 -66.5l-27 8l82 199h496l-348 -375q23 3 33 3.5t18 0.5q116 0 199 -73.5t83 -176.5q0 -40 -13 -76.5t-42 -74.5q-38 -51 -103.5 -81t-136.5 -30q-46 0 -92.5 15.5t-89.5 44.5 q-43 31 -67.5 74t-24.5 87q0 39 23 62.5t61 23.5q37 0 58.5 -21.5t21.5 -60.5q0 -14 -4 -47t-4 -51q0 -48 28 -75t78 -27q74 0 110 62t36 190q0 112 -33.5 162.5t-106.5 50.5q-29 0 -55.5 -15.5t-56.5 -50.5z"/>
<glyph unicode="´" horiz-adv-x="1024" d="M469 831l254 152q15 9 23 20t8 23q0 15 -9.5 24t-25.5 9q-10 0 -21 -6.5t-26 -22.5zM336 737l289 299q35 36 55.5 48t40.5 12q33 0 53.5 -19.5t20.5 -50.5q0 -22 -15.5 -43t-46.5 -41l-330 -205h-67z"/>
<glyph unicode="µ" horiz-adv-x="1079" d="M162 190q-23 -131 -44 -329q-31 -277 -106 -277q-34 0 -52.5 19.5t-18.5 54.5q0 40 60 279.5t99 429.5l111 518h129l-109 -509q-5 -26 -7.5 -49.5t-2.5 -45.5q0 -91 44.5 -144t119.5 -53q100 0 170 79t102 228l111 494h129l-115 -527q-11 -53 -16.5 -91.5t-5.5 -63.5 q0 -51 21 -79t59 -28q39 0 71.5 22.5t57.5 67.5q12 24 29 74q24 72 49 72q10 0 16 -9.5t6 -25.5q0 -27 -16.5 -80.5t-40.5 -93.5q-39 -68 -90.5 -102.5t-112.5 -34.5q-75 0 -113.5 45.5t-38.5 134.5v27q-44 -108 -112 -160.5t-162 -52.5q-95 0 -151.5 53.5t-69.5 156.5z"/>
<glyph unicode="¶" horiz-adv-x="1024" d="M940 1479v-70h-127v-1409h-82v1409h-186v-1409h-84v782q-174 8 -275.5 102.5t-101.5 245.5q0 157 107.5 253t285.5 96h463z"/>
<glyph unicode="·" horiz-adv-x="553" d="M264 641q24 0 34.5 18.5t10.5 63.5q0 46 -10 64t-35 18q-30 0 -52 -24t-22 -58t22 -58t52 -24zM152 723q0 53 35 89t87 36q53 0 90 -36.5t37 -88.5t-37 -88.5t-90 -36.5q-51 0 -86.5 36t-35.5 89z"/>
<glyph unicode="¸" horiz-adv-x="1024" d="M586 -152q47 -13 74.5 -46.5t27.5 -77.5q0 -54 -35 -87t-100 -40h20q75 0 119.5 36.5t44.5 96.5q0 56 -35.5 87t-99.5 31h-16zM533 -115q18 3 35 4.5t34 1.5q85 0 138 -42t53 -109q0 -78 -61.5 -126t-162.5 -48q-69 0 -142.5 25.5t-137.5 72.5l16 37q65 -39 121 -57.5 t109 -18.5q54 0 87 28t33 75q0 43 -29.5 66.5t-84.5 23.5q-7 0 -17.5 -1t-29.5 -3v186h38z"/>
<glyph unicode="¹" horiz-adv-x="729" d="M262 600h174q-29 22 -40 40t-11 40v735q-30 -10 -63.5 -16.5t-67.5 -7.5q35 -16 48 -38.5t13 -70.5v-596q0 -24 -13 -45.5t-40 -40.5zM293 1288q0 46 -29 70t-84 24q-9 0 -34 -3q-4 0 -7 -1l3 25q84 1 161 16.5t143 44.5v-749q0 -54 29 -84.5t78 -30.5h90v-22h-524v22h67 q50 0 78.5 30.5t28.5 84.5v573z"/>
<glyph unicode="º" horiz-adv-x="641" d="M240 1012q-53 40 -79 91.5t-26 117.5q0 71 29 123.5t86 85.5q-79 -18 -127.5 -75.5t-48.5 -131.5q0 -70 45 -128t121 -83zM319 1434q-55 0 -83.5 -54t-28.5 -159q0 -107 28.5 -162t83.5 -55q56 0 85.5 55.5t29.5 161.5q0 104 -29 158.5t-86 54.5zM397 1012 q64 26 98.5 80.5t34.5 126.5q0 69 -33.5 122.5t-99.5 85.5q30 -23 47 -78t17 -130q0 -73 -16 -124t-48 -83zM319 1460q119 0 198 -69t79 -170q0 -102 -79.5 -172t-197.5 -70q-117 0 -196.5 70t-79.5 172q0 101 79 170t197 69z"/>
<glyph unicode="»" horiz-adv-x="778" d="M424 336q-100 -77 -212.5 -175t-127.5 -98q-9 0 -15 6t-6 15q0 23 37 79t131 173q-85 105 -126.5 166.5t-41.5 85.5q0 8 6 14t15 6q14 0 128 -98t212 -174zM270 336q-27 -30 -84 -113l-20 -28q49 44 110.5 91.5t62.5 48.5q-2 3 -63 50.5t-110 91.5l20 -29q57 -82 84 -112 zM565 336q-27 -30 -84 -112l-20 -29q49 44 110.5 91.5t62.5 48.5q-2 3 -63 50.5t-110 91.5l20 -29q57 -82 84 -112zM719 336q-100 -77 -213 -175t-127 -98q-9 0 -15 6t-6 15q0 23 37 79t131 173q-86 105 -127 166.5t-41 85.5q0 8 6 14t15 6q14 0 128 -98t212 -174z"/>
<glyph unicode="¼" horiz-adv-x="1733" d="M1456 23h92q-5 7 -7.5 17.5t-2.5 22.5v11v559l-72 -70v-250h-303l-47 -49h350v-194q0 -15 -2.5 -26t-7.5 -21zM1418 0q13 17 18.5 31t5.5 30v183h-377l317 325q77 79 123 151t52 118h106q-25 -42 -189 -208l-92 -93l-174 -179h234v207l143 144l17 -7v-602q0 -35 8.5 -57 t29.5 -43h-222zM354 -25l967 1495h57l-966 -1495h-58zM252 659h166q-28 20 -38.5 36t-10.5 38v686q-29 -10 -61 -16.5t-64 -7.5q33 -13 46 -34t13 -67v-555q0 -24 -13 -44.5t-38 -35.5zM281 1300q0 44 -27.5 66.5t-79.5 22.5q-8 0 -34 -4q-4 0 -7 -1l3 23q82 1 156 15.5 t136 41.5v-700q0 -50 27 -77.5t75 -27.5h84v-22h-499v22h65q47 0 74 28t27 77v536z"/>
<glyph unicode="½" horiz-adv-x="1733" d="M1319 528h-8q-61 0 -96 33t-35 90q0 41 23 76.5t67 63.5q-71 -18 -112.5 -61t-41.5 -97q0 -53 38.5 -88t94.5 -35q23 0 39.5 4.5t30.5 13.5zM1337 291q124 80 185 160.5t61 162.5q0 61 -38.5 109.5t-106.5 73.5q38 -27 59 -70t21 -98q0 -81 -42.5 -161t-138.5 -177z M1548 23l23 61h-410l-47 -61h434zM1065 0q16 26 50 69l89 109q21 24 97 104.5t116 131.5q38 49 57 104t19 111q0 75 -35.5 121.5t-91.5 46.5q-55 0 -94 -40.5t-39 -99.5q0 -47 29.5 -79.5t70.5 -32.5q4 0 8 0.5t14 3.5l13 -12q-23 -24 -53.5 -36t-65.5 -12q-67 0 -112 41 t-45 101q0 80 81 136t201 56q119 0 198 -62t79 -155q0 -75 -56 -145.5t-196 -165.5l-6 -4q-129 -91 -189 -162h316q51 0 77.5 18t42.5 64l29 -8q-25 -55 -44 -105t-34 -98h-526zM354 -25l967 1495h57l-966 -1495h-58zM252 659h166q-28 20 -38.5 36t-10.5 38v686 q-29 -10 -61 -16.5t-64 -7.5q33 -13 46 -34t13 -67v-555q0 -24 -13 -44.5t-38 -35.5zM281 1300q0 44 -27.5 66.5t-79.5 22.5q-8 0 -34 -4q-4 0 -7 -1l3 23q82 1 156 15.5t136 41.5v-700q0 -50 27 -77.5t75 -27.5h84v-22h-499v22h65q47 0 74 28t27 77v536z"/>
<glyph unicode="¾" horiz-adv-x="1733" d="M1456 23h92q-5 7 -7.5 17.5t-2.5 22.5v11v559l-72 -70v-250h-303l-47 -49h350v-194q0 -15 -2.5 -26t-7.5 -21zM1418 0q13 17 18.5 31t5.5 30v183h-377l317 325q77 79 123 151t52 118h106q-25 -42 -189 -208l-92 -93l-174 -179h234v207l143 144l17 -7v-602q0 -35 8.5 -57 t29.5 -43h-222zM354 -25l967 1495h57l-966 -1495h-58zM238 666q-28 21 -41 44.5t-13 51.5q0 12 5.5 38t5.5 40q0 23 -11.5 37t-29.5 14q-21 0 -33 -17t-12 -47q0 -50 34 -93t95 -68zM422 657q69 19 111 76.5t42 132.5q0 70 -39 126t-104 79q34 -24 50 -72t16 -125 q0 -84 -18.5 -137t-57.5 -80zM520 1354l43 47h-387l-29 -68q15 11 36 16t48 5h289zM233 1018l-18 16l285 299h-260q-56 0 -80.5 -16t-44.5 -62l-27 7l80 184h473l-331 -348q17 2 29 3t19 1q111 0 191 -69t80 -165q0 -37 -13.5 -71.5t-42.5 -69.5q-35 -47 -97 -75.5 t-130 -28.5q-44 0 -89 14.5t-85 42.5q-41 29 -64.5 69.5t-23.5 81.5q0 36 22.5 58t57.5 22q36 0 57 -20.5t21 -56.5q0 -15 -4.5 -45t-4.5 -46q0 -46 26.5 -72t74.5 -26q70 0 104.5 58.5t34.5 177.5q0 106 -31.5 153t-101.5 47q-29 0 -54 -14.5t-53 -48.5z"/>
<glyph unicode="¿" horiz-adv-x="1071" d="M430 1343q0 54 35.5 90.5t87.5 36.5t89.5 -37t37.5 -90q0 -51 -37 -86.5t-90 -35.5q-52 0 -87.5 35t-35.5 87zM545 1264q23 0 34 19t11 63q0 43 -10.5 62t-34.5 19q-29 0 -49.5 -23.5t-20.5 -57.5t20 -58t48 -24h2zM469 840q-54 -83 -113 -149q-7 -8 -8 -9 q-87 -103 -120 -174.5t-33 -147.5q0 -117 65.5 -208.5t177.5 -128.5q-64 43 -96.5 125t-32.5 198q0 151 117 399q29 62 43 95zM792 356l-90 -30q9 -28 13 -54t4 -51q0 -28 -6 -56.5t-19 -60.5q51 45 76 98t25 117q0 16 -0.5 23t-2.5 14zM588 1137v-27q0 -60 -14 -122.5 t-50 -156.5l-20 -50q-107 -255 -107 -488q0 -137 33.5 -200.5t104.5 -63.5q60 0 100.5 53t40.5 135q0 40 -8.5 74t-26.5 63l238 78q4 -19 6 -37.5t2 -36.5q0 -149 -114.5 -262.5t-264.5 -113.5q-147 0 -252.5 113.5t-105.5 271.5q0 60 18.5 117t54.5 106q35 45 104 123.5 t95 115.5q51 76 81 154t38 154h47z"/>
<glyph unicode="À" horiz-adv-x="1767" d="M567 659h445l-217 488zM522 563h533l-27 60h-479zM176 39h166q-3 23 -4.5 43.5t-1.5 40.5q0 18 1.5 42t4.5 52q-42 -54 -82.5 -97.5t-83.5 -80.5zM815 1194l402 -901q5 -12 8.5 -29t3.5 -37q0 -46 -23 -95.5t-65 -92.5h372q-50 38 -91.5 96t-82.5 150l-462 1040zM16 0v39 h41q40 0 74.5 18.5t83.5 69.5q61 64 100.5 116.5t59.5 94.5l534 1151l506 -1139q69 -154 134.5 -232.5t125.5 -78.5h70v-39h-784v39h63q70 0 118 56.5t48 129.5q0 16 -3 31t-9 29l-107 239h-567l-94 -205q-13 -25 -19 -48t-6 -42q0 -90 37 -140t104 -50h72v-39h-582z M932 1628l-195 205q-15 16 -26 22.5t-21 6.5q-16 0 -25.5 -9t-9.5 -24q1 -13 8.5 -23.5t22.5 -19.5zM1073 1544h-67l-330 205q-31 20 -46.5 41t-15.5 43q0 31 20.5 50.5t53.5 19.5q20 0 40.5 -12t55.5 -48z"/>
<glyph unicode="Á" horiz-adv-x="1767" d="M567 659h445l-217 488zM522 563h533l-27 60h-479zM176 39h166q-3 23 -4.5 43.5t-1.5 40.5q0 18 1.5 42t4.5 52q-42 -54 -82.5 -97.5t-83.5 -80.5zM815 1194l402 -901q5 -12 8.5 -29t3.5 -37q0 -46 -23 -95.5t-65 -92.5h372q-50 38 -91.5 96t-82.5 150l-462 1040zM16 0v39 h41q40 0 74.5 18.5t83.5 69.5q61 64 100.5 116.5t59.5 94.5l534 1151l506 -1139q69 -154 134.5 -232.5t125.5 -78.5h70v-39h-784v39h63q70 0 118 56.5t48 129.5q0 16 -3 31t-9 29l-107 239h-567l-94 -205q-13 -25 -19 -48t-6 -42q0 -90 37 -140t104 -50h72v-39h-582z M854 1638l254 152q15 9 23 20t8 23q0 15 -9.5 24t-25.5 9q-10 0 -21 -6.5t-26 -22.5zM721 1544l289 299q35 36 55.5 48t40.5 12q33 0 53.5 -19.5t20.5 -50.5q0 -22 -15.5 -43t-46.5 -41l-330 -205h-67z"/>
<glyph unicode="Â" horiz-adv-x="1767" d="M567 659h445l-217 488zM522 563h533l-27 60h-479zM176 39h166q-3 23 -4.5 43.5t-1.5 40.5q0 18 1.5 42t4.5 52q-42 -54 -82.5 -97.5t-83.5 -80.5zM815 1194l402 -901q5 -12 8.5 -29t3.5 -37q0 -46 -23 -95.5t-65 -92.5h372q-50 38 -91.5 96t-82.5 150l-462 1040zM16 0v39 h41q40 0 74.5 18.5t83.5 69.5q61 64 100.5 116.5t59.5 94.5l534 1151l506 -1139q69 -154 134.5 -232.5t125.5 -78.5h70v-39h-784v39h63q70 0 118 56.5t48 129.5q0 16 -3 31t-9 29l-107 239h-567l-94 -205q-13 -25 -19 -48t-6 -42q0 -90 37 -140t104 -50h72v-39h-582z M856 1860l-154 -230l195 168l199 -168l-160 230h-80zM606 1544l232 350h118l232 -350h-58l-233 211l-233 -211h-58z"/>
<glyph unicode="Ã" horiz-adv-x="1767" d="M567 659h445l-217 488zM522 563h533l-27 60h-479zM176 39h166q-3 23 -4.5 43.5t-1.5 40.5q0 18 1.5 42t4.5 52q-42 -54 -82.5 -97.5t-83.5 -80.5zM815 1194l402 -901q5 -12 8.5 -29t3.5 -37q0 -46 -23 -95.5t-65 -92.5h372q-50 38 -91.5 96t-82.5 150l-462 1040zM16 0v39 h41q40 0 74.5 18.5t83.5 69.5q61 64 100.5 116.5t59.5 94.5l534 1151l506 -1139q69 -154 134.5 -232.5t125.5 -78.5h70v-39h-784v39h63q70 0 118 56.5t48 129.5q0 16 -3 31t-9 29l-107 239h-567l-94 -205q-13 -25 -19 -48t-6 -42q0 -90 37 -140t104 -50h72v-39h-582z M657 1655q24 28 50 41.5t57 13.5q40 0 115 -21.5t110 -21.5q52 0 88.5 27t55.5 80q-20 -23 -44 -33t-57 -10q-39 0 -115 20.5t-112 20.5q-56 0 -94 -30.5t-54 -86.5zM1184 1841q-20 -103 -68.5 -154t-126.5 -51q-14 0 -32 2.5t-42 8.5l-108 28q-12 3 -24 4.5t-25 1.5 q-39 0 -60.5 -19.5t-36.5 -70.5h-51q19 107 68 160t129 53q14 0 28.5 -2t35.5 -8l110 -29q16 -4 30 -6t25 -2q37 0 58.5 19.5t35.5 64.5h54z"/>
<glyph unicode="Ä" horiz-adv-x="1767" d="M567 659h445l-217 488zM522 563h533l-27 60h-479zM176 39h166q-3 23 -4.5 43.5t-1.5 40.5q0 18 1.5 42t4.5 52q-42 -54 -82.5 -97.5t-83.5 -80.5zM815 1194l402 -901q5 -12 8.5 -29t3.5 -37q0 -46 -23 -95.5t-65 -92.5h372q-50 38 -91.5 96t-82.5 150l-462 1040zM16 0v39 h41q40 0 74.5 18.5t83.5 69.5q61 64 100.5 116.5t59.5 94.5l534 1151l506 -1139q69 -154 134.5 -232.5t125.5 -78.5h70v-39h-784v39h63q70 0 118 56.5t48 129.5q0 16 -3 31t-9 29l-107 239h-567l-94 -205q-13 -25 -19 -48t-6 -42q0 -90 37 -140t104 -50h72v-39h-582z M711 1620q23 0 33 17.5t10 60.5q0 42 -10 60t-33 18q-29 0 -49.5 -22.5t-20.5 -55.5t20.5 -55.5t49.5 -22.5zM604 1698q0 50 33.5 84.5t83.5 34.5q49 0 84 -35t35 -84t-35 -83t-84 -34t-83 34t-34 83zM1061 1620q23 0 33 17.5t10 60.5q0 44 -9.5 61t-31.5 17 q-29 0 -50.5 -23t-21.5 -55q0 -33 20.5 -55.5t49.5 -22.5zM954 1698q0 50 34.5 84.5t84.5 34.5q49 0 83 -35t34 -84t-34 -83t-83 -34t-84 34t-35 83z"/>
<glyph unicode="Å" horiz-adv-x="1767" d="M735 1751q0 -69 49.5 -118.5t118.5 -49.5t118.5 49.5t49.5 118.5t-49.5 118.5t-118.5 49.5t-117.5 -48.5t-50.5 -119.5zM682 1751q0 92 64.5 156.5t156.5 64.5t156.5 -64.5t64.5 -156.5t-64.5 -156.5t-156.5 -64.5t-156.5 64.5t-64.5 156.5zM567 659h445l-217 488z M522 563h533l-27 60h-479zM176 39h166q-3 23 -4.5 43.5t-1.5 40.5q0 18 1.5 42t4.5 52q-42 -54 -82.5 -97.5t-83.5 -80.5zM815 1194l402 -901q5 -12 8.5 -29t3.5 -37q0 -46 -23 -95.5t-65 -92.5h372q-50 38 -91.5 96t-82.5 150l-462 1040zM16 0v39h41q40 0 74.5 18.5 t83.5 69.5q61 64 100.5 116.5t59.5 94.5l534 1151l506 -1139q69 -154 134.5 -232.5t125.5 -78.5h70v-39h-784v39h63q70 0 118 56.5t48 129.5q0 16 -3 31t-9 29l-107 239h-567l-94 -205q-13 -25 -19 -48t-6 -42q0 -90 37 -140t104 -50h72v-39h-582z"/>
<glyph unicode="Æ" horiz-adv-x="2150" d="M1620 684v205q-35 -35 -72 -63t-80 -52q41 -18 79.5 -40.5t72.5 -49.5zM915 39h289q-52 41 -68 66.5t-16 66.5v1102q0 31 8 51t25 33l68 49h-297l106 -90v-19q-12 -6 -18 -18.5t-6 -32.5v-1065q0 -42 -21 -75.5t-70 -67.5zM43 39h168q-1 4 -1 10q-7 50 -7 74q0 18 1.5 42 t4.5 52q-42 -54 -82.5 -97.5t-83.5 -80.5zM1528 39h354q14 51 47 122.5t86 166.5q-101 -102 -222.5 -173.5t-264.5 -115.5zM1599 1407q97 -41 173.5 -92t132.5 -113q-17 61 -28 113.5t-16 91.5h-262zM1219 209q0 -71 44.5 -118.5t112.5 -47.5q60 0 160 33.5t201 89.5 q108 60 196.5 137t157.5 170l29 -12q-52 -122 -83 -235t-42 -226h-1215v39h33q61 0 107.5 50t46.5 120v315h-531l-127 -176q-28 -40 -39.5 -73.5t-11.5 -71.5q0 -75 37.5 -119.5t101.5 -44.5h72v-39h-582v39h41q60 0 135 68.5t191 230.5l651 909q11 16 16 30.5t5 31.5 q0 42 -32.5 70t-80.5 28h-33v39h1174v-39q0 -100 8 -181.5t25 -154.5l-35 -8q-76 144 -231 244t-294 100h-51q-63 0 -110 -50t-47 -120v-444h131q56 0 98 15.5t92 57.5q61 52 90 96t29 87v34h43v-665h-43v69q0 109 -94.5 189t-221.5 80h-124v-547zM465 563h502v60h-461z M535 659h432v598z"/>
<glyph unicode="Ç" horiz-adv-x="1565" d="M1364 1188q-22 51 -35 103t-18 107q-29 -5 -58.5 -8.5t-58.5 -3.5t-53.5 2.5t-46.5 6.5q82 -36 149 -87t121 -120zM659 31q-218 106 -327 280.5t-109 419.5q0 187 65 345t187 272q-172 -91 -269 -258t-97 -371q0 -257 149.5 -444.5t400.5 -243.5zM1505 375 q-99 -193 -268 -296.5t-385 -103.5q-120 0 -227 27t-195 80q-173 104 -265.5 269.5t-92.5 371.5q0 144 52 277t150 237q107 113 241 173t278 60q47 0 172 -17t202 -17q80 0 138.5 10t105.5 33v-31q0 -122 22 -237.5t66 -225.5l-35 -14q-112 217 -289.5 336.5t-383.5 119.5 q-221 0 -337 -174.5t-116 -507.5q0 -341 146.5 -534t404.5 -193q177 0 332 100.5t252 278.5zM920 -152q47 -13 74.5 -46.5t27.5 -77.5q0 -54 -35 -87t-100 -40h20q75 0 119.5 36.5t44.5 96.5q0 56 -35.5 87t-99.5 31h-16zM867 -115q18 3 35 4.5t34 1.5q85 0 138 -42t53 -109 q0 -78 -61.5 -126t-162.5 -48q-69 0 -142.5 25.5t-137.5 72.5l16 37q65 -39 121 -57.5t109 -18.5q54 0 87 28t33 75q0 43 -29.5 66.5t-84.5 23.5q-7 0 -17.5 -1t-29.5 -3v186h38z"/>
<glyph unicode="È" horiz-adv-x="1475" d="M854 39h352q14 51 47 122.5t86 166.5q-102 -102 -222.5 -174t-262.5 -115zM944 684v205q-35 -35 -72 -63t-79 -52q40 -18 78.5 -40.5t72.5 -49.5zM924 1407q96 -41 172.5 -92t132.5 -113q-15 57 -26 108.5t-17 96.5h-262zM496 209q0 -70 47.5 -120t113.5 -50 q177 0 391.5 120t366.5 314l31 -12q-53 -120 -84 -233.5t-43 -227.5h-1262v39h33q61 0 107.5 50t46.5 120v1028q0 70 -46.5 120t-107.5 50h-33v39h1221v-33q0 -96 8.5 -181t26.5 -161l-37 -8q-76 144 -231 244t-293 100h-99q-63 0 -110 -50t-47 -120v-444h180 q56 0 96.5 15.5t91.5 57.5q63 53 92 97t29 86v34h41v-665h-41v69q0 109 -95 189t-222 80h-172v-547zM195 39h286q-52 41 -68 66.5t-16 66.5v1102q0 31 8 51t25 33l66 49h-295l106 -90v-19q-12 -6 -18 -18.5t-6 -32.5v-1065q0 -43 -20.5 -76.5t-67.5 -66.5zM772 1628 l-195 205q-15 16 -26 22.5t-21 6.5q-16 0 -25.5 -9t-9.5 -24q1 -13 8.5 -23.5t22.5 -19.5zM913 1544h-67l-330 205q-31 20 -46.5 41t-15.5 43q0 31 20.5 50.5t53.5 19.5q20 0 40.5 -12t55.5 -48z"/>
<glyph unicode="É" horiz-adv-x="1475" d="M854 39h352q14 51 47 122.5t86 166.5q-102 -102 -222.5 -174t-262.5 -115zM944 684v205q-35 -35 -72 -63t-79 -52q40 -18 78.5 -40.5t72.5 -49.5zM924 1407q96 -41 172.5 -92t132.5 -113q-15 57 -26 108.5t-17 96.5h-262zM496 209q0 -70 47.5 -120t113.5 -50 q177 0 391.5 120t366.5 314l31 -12q-53 -120 -84 -233.5t-43 -227.5h-1262v39h33q61 0 107.5 50t46.5 120v1028q0 70 -46.5 120t-107.5 50h-33v39h1221v-33q0 -96 8.5 -181t26.5 -161l-37 -8q-76 144 -231 244t-293 100h-99q-63 0 -110 -50t-47 -120v-444h180 q56 0 96.5 15.5t91.5 57.5q63 53 92 97t29 86v34h41v-665h-41v69q0 109 -95 189t-222 80h-172v-547zM195 39h286q-52 41 -68 66.5t-16 66.5v1102q0 31 8 51t25 33l66 49h-295l106 -90v-19q-12 -6 -18 -18.5t-6 -32.5v-1065q0 -43 -20.5 -76.5t-67.5 -66.5zM694 1638l254 152 q15 9 23 20t8 23q0 15 -9.5 24t-25.5 9q-10 0 -21 -6.5t-26 -22.5zM561 1544l289 299q35 36 55.5 48t40.5 12q33 0 53.5 -19.5t20.5 -50.5q0 -22 -15.5 -43t-46.5 -41l-330 -205h-67z"/>
<glyph unicode="Ê" horiz-adv-x="1475" d="M854 39h352q14 51 47 122.5t86 166.5q-102 -102 -222.5 -174t-262.5 -115zM944 684v205q-35 -35 -72 -63t-79 -52q40 -18 78.5 -40.5t72.5 -49.5zM924 1407q96 -41 172.5 -92t132.5 -113q-15 57 -26 108.5t-17 96.5h-262zM496 209q0 -70 47.5 -120t113.5 -50 q177 0 391.5 120t366.5 314l31 -12q-53 -120 -84 -233.5t-43 -227.5h-1262v39h33q61 0 107.5 50t46.5 120v1028q0 70 -46.5 120t-107.5 50h-33v39h1221v-33q0 -96 8.5 -181t26.5 -161l-37 -8q-76 144 -231 244t-293 100h-99q-63 0 -110 -50t-47 -120v-444h180 q56 0 96.5 15.5t91.5 57.5q63 53 92 97t29 86v34h41v-665h-41v69q0 109 -95 189t-222 80h-172v-547zM195 39h286q-52 41 -68 66.5t-16 66.5v1102q0 31 8 51t25 33l66 49h-295l106 -90v-19q-12 -6 -18 -18.5t-6 -32.5v-1065q0 -43 -20.5 -76.5t-67.5 -66.5zM696 1860 l-154 -230l195 168l199 -168l-160 230h-80zM446 1544l232 350h118l232 -350h-58l-233 211l-233 -211h-58z"/>
<glyph unicode="Ë" horiz-adv-x="1475" d="M854 39h352q14 51 47 122.5t86 166.5q-102 -102 -222.5 -174t-262.5 -115zM944 684v205q-35 -35 -72 -63t-79 -52q40 -18 78.5 -40.5t72.5 -49.5zM924 1407q96 -41 172.5 -92t132.5 -113q-15 57 -26 108.5t-17 96.5h-262zM496 209q0 -70 47.5 -120t113.5 -50 q177 0 391.5 120t366.5 314l31 -12q-53 -120 -84 -233.5t-43 -227.5h-1262v39h33q61 0 107.5 50t46.5 120v1028q0 70 -46.5 120t-107.5 50h-33v39h1221v-33q0 -96 8.5 -181t26.5 -161l-37 -8q-76 144 -231 244t-293 100h-99q-63 0 -110 -50t-47 -120v-444h180 q56 0 96.5 15.5t91.5 57.5q63 53 92 97t29 86v34h41v-665h-41v69q0 109 -95 189t-222 80h-172v-547zM195 39h286q-52 41 -68 66.5t-16 66.5v1102q0 31 8 51t25 33l66 49h-295l106 -90v-19q-12 -6 -18 -18.5t-6 -32.5v-1065q0 -43 -20.5 -76.5t-67.5 -66.5zM551 1620 q23 0 33 17.5t10 60.5q0 42 -10 60t-33 18q-29 0 -49.5 -22.5t-20.5 -55.5t20.5 -55.5t49.5 -22.5zM444 1698q0 50 33.5 84.5t83.5 34.5q49 0 84 -35t35 -84t-35 -83t-84 -34t-83 34t-34 83zM901 1620q23 0 33 17.5t10 60.5q0 44 -9.5 61t-31.5 17q-29 0 -50.5 -23 t-21.5 -55q0 -33 20.5 -55.5t49.5 -22.5zM794 1698q0 50 34.5 84.5t84.5 34.5q49 0 83 -35t34 -84t-34 -83t-83 -34t-84 34t-35 83z"/>
<glyph unicode="Ì" horiz-adv-x="741" d="M195 39h286q-52 41 -68 66.5t-16 66.5v1102q0 31 8 51t25 33l68 49h-297l106 -90v-19q-12 -6 -18 -18.5t-6 -32.5v-1065q0 -43 -20.5 -76.5t-67.5 -66.5zM496 209q0 -70 47.5 -120t113.5 -50h48v-39h-664v39h49q61 0 107.5 50t46.5 120v1028q0 70 -46.5 120t-107.5 50 h-49v39h664v-39h-52q-63 0 -110 -50t-47 -120v-1028zM406 1628l-195 205q-15 16 -26 22.5t-21 6.5q-16 0 -25.5 -9t-9.5 -24q1 -13 8.5 -23.5t22.5 -19.5zM547 1544h-67l-330 205q-31 20 -46.5 41t-15.5 43q0 31 20.5 50.5t53.5 19.5q20 0 40.5 -12t55.5 -48z"/>
<glyph unicode="Í" horiz-adv-x="741" d="M195 39h286q-52 41 -68 66.5t-16 66.5v1102q0 31 8 51t25 33l68 49h-297l106 -90v-19q-12 -6 -18 -18.5t-6 -32.5v-1065q0 -43 -20.5 -76.5t-67.5 -66.5zM496 209q0 -70 47.5 -120t113.5 -50h48v-39h-664v39h49q61 0 107.5 50t46.5 120v1028q0 70 -46.5 120t-107.5 50 h-49v39h664v-39h-52q-63 0 -110 -50t-47 -120v-1028zM328 1638l254 152q15 9 23 20t8 23q0 15 -9.5 24t-25.5 9q-10 0 -21 -6.5t-26 -22.5zM195 1544l289 299q35 36 55.5 48t40.5 12q33 0 53.5 -19.5t20.5 -50.5q0 -22 -15.5 -43t-46.5 -41l-330 -205h-67z"/>
<glyph unicode="Î" horiz-adv-x="741" d="M195 39h286q-52 41 -68 66.5t-16 66.5v1102q0 31 8 51t25 33l68 49h-297l106 -90v-19q-12 -6 -18 -18.5t-6 -32.5v-1065q0 -43 -20.5 -76.5t-67.5 -66.5zM496 209q0 -70 47.5 -120t113.5 -50h48v-39h-664v39h49q61 0 107.5 50t46.5 120v1028q0 70 -46.5 120t-107.5 50 h-49v39h664v-39h-52q-63 0 -110 -50t-47 -120v-1028zM330 1860l-154 -230l195 168l199 -168l-160 230h-80zM80 1544l232 350h118l232 -350h-58l-233 211l-233 -211h-58z"/>
<glyph unicode="Ï" horiz-adv-x="741" d="M195 39h286q-52 41 -68 66.5t-16 66.5v1102q0 31 8 51t25 33l68 49h-297l106 -90v-19q-12 -6 -18 -18.5t-6 -32.5v-1065q0 -43 -20.5 -76.5t-67.5 -66.5zM496 209q0 -70 47.5 -120t113.5 -50h48v-39h-664v39h49q61 0 107.5 50t46.5 120v1028q0 70 -46.5 120t-107.5 50 h-49v39h664v-39h-52q-63 0 -110 -50t-47 -120v-1028zM185 1620q23 0 33 17.5t10 60.5q0 42 -10 60t-33 18q-29 0 -49.5 -22.5t-20.5 -55.5t20.5 -55.5t49.5 -22.5zM78 1698q0 50 33.5 84.5t83.5 34.5q49 0 84 -35t35 -84t-35 -83t-84 -34t-83 34t-34 83zM535 1620 q23 0 33 17.5t10 60.5q0 44 -9.5 61t-31.5 17q-29 0 -50.5 -23t-21.5 -55q0 -33 20.5 -55.5t49.5 -22.5zM428 1698q0 50 34.5 84.5t84.5 34.5q49 0 83 -35t34 -84t-34 -83t-83 -34t-84 34t-35 83z"/>
<glyph unicode="Ð" horiz-adv-x="1597" d="M1069 80q165 101 254.5 270.5t89.5 380.5q0 216 -91.5 383.5t-254.5 249.5q111 -83 167 -241.5t56 -389.5q0 -232 -54 -392t-167 -261zM584 0h-508v39h33q60 0 106.5 50t46.5 120v543h-244v61h244v424q0 70 -46.5 120t-106.5 50h-33v39h655q154 0 252.5 -20.5 t175.5 -65.5q180 -106 273.5 -268.5t93.5 -368.5q0 -185 -78.5 -335.5t-237.5 -270.5q-81 -61 -190.5 -97t-214.5 -36q-26 0 -98.5 8t-122.5 8zM506 209q0 -92 70.5 -139t207.5 -47q228 0 348.5 182.5t120.5 529.5q0 340 -118.5 506t-362.5 166q-137 0 -201.5 -41.5 t-64.5 -128.5v-424h362v-61h-362v-543zM205 39h287q-53 41 -68.5 66.5t-15.5 66.5v1102q0 31 7.5 51t24.5 33l68 49h-297l106 -90v-19q-12 -6 -18 -18.5t-6 -32.5v-1065q0 -43 -20.5 -76.5t-67.5 -66.5z"/>
<glyph unicode="Ñ" horiz-adv-x="1767" d="M1516 1221q12 56 32 101.5t49 84.5h-247q57 -29 98.5 -75.5t67.5 -110.5zM350 39q-22 39 -38.5 82.5t-28.5 91.5q-17 -56 -49 -99.5t-80 -74.5h196zM1516 12v181l-1151 1214h-199q39 -25 74 -52.5t67 -60.5zM-2 0v39h35q101 0 168 96t67 246v899q-57 60 -112 93.5 t-95 33.5h-49v39h443l1061 -1127v736q0 77 -21 133.5t-68 107.5q-49 54 -95.5 82.5t-86.5 28.5h-80v39h654v-39h-39q-81 0 -154.5 -100t-73.5 -220v-1120h-43l-1204 1278v-872q0 -122 75 -228t157 -106h118v-39h-657zM645 1655q24 28 50 41.5t57 13.5q40 0 115 -21.5 t110 -21.5q52 0 88.5 27t55.5 80q-20 -23 -44 -33t-57 -10q-39 0 -115 20.5t-112 20.5q-56 0 -94 -30.5t-54 -86.5zM1172 1841q-20 -103 -68.5 -154t-126.5 -51q-14 0 -32 2.5t-42 8.5l-108 28q-12 3 -24 4.5t-25 1.5q-39 0 -60.5 -19.5t-36.5 -70.5h-51q19 107 68 160 t129 53q14 0 28.5 -2t35.5 -8l110 -29q16 -4 30 -6t25 -2q37 0 58.5 19.5t35.5 64.5h54z"/>
<glyph unicode="Ò" horiz-adv-x="1626" d="M1102 80q168 99 262 270.5t94 380.5q0 216 -100 395t-264 258q117 -94 173 -253.5t56 -397.5t-55.5 -403t-165.5 -250zM485 88q-130 132 -196 293t-66 350q0 196 72.5 364t200.5 271q-185 -98 -286 -267.5t-101 -381.5q0 -197 96.5 -358.5t279.5 -270.5zM72 723 q0 148 52 279.5t152 236.5q106 112 244.5 171.5t292.5 59.5q153 0 293 -60t248 -173q97 -101 148.5 -230.5t51.5 -275.5q0 -153 -54 -289t-159 -243q-106 -110 -240.5 -167t-287.5 -57t-289.5 58t-240.5 168q-104 108 -157.5 240.5t-53.5 281.5zM813 14q235 0 354 182.5 t119 544.5q0 346 -118 518.5t-353 172.5q-234 0 -355.5 -173t-121.5 -507q0 -367 119.5 -552.5t355.5 -185.5zM848 1628l-195 205q-15 16 -26 22.5t-21 6.5q-16 0 -25.5 -9t-9.5 -24q1 -13 8.5 -23.5t22.5 -19.5zM989 1544h-67l-330 205q-31 20 -46.5 41t-15.5 43 q0 31 20.5 50.5t53.5 19.5q20 0 40.5 -12t55.5 -48z"/>
<glyph unicode="Ó" horiz-adv-x="1626" d="M1102 80q168 99 262 270.5t94 380.5q0 216 -100 395t-264 258q117 -94 173 -253.5t56 -397.5t-55.5 -403t-165.5 -250zM485 88q-130 132 -196 293t-66 350q0 196 72.5 364t200.5 271q-185 -98 -286 -267.5t-101 -381.5q0 -197 96.5 -358.5t279.5 -270.5zM72 723 q0 148 52 279.5t152 236.5q106 112 244.5 171.5t292.5 59.5q153 0 293 -60t248 -173q97 -101 148.5 -230.5t51.5 -275.5q0 -153 -54 -289t-159 -243q-106 -110 -240.5 -167t-287.5 -57t-289.5 58t-240.5 168q-104 108 -157.5 240.5t-53.5 281.5zM813 14q235 0 354 182.5 t119 544.5q0 346 -118 518.5t-353 172.5q-234 0 -355.5 -173t-121.5 -507q0 -367 119.5 -552.5t355.5 -185.5zM770 1638l254 152q15 9 23 20t8 23q0 15 -9.5 24t-25.5 9q-10 0 -21 -6.5t-26 -22.5zM637 1544l289 299q35 36 55.5 48t40.5 12q33 0 53.5 -19.5t20.5 -50.5 q0 -22 -15.5 -43t-46.5 -41l-330 -205h-67z"/>
<glyph unicode="Ô" horiz-adv-x="1626" d="M1102 80q168 99 262 270.5t94 380.5q0 216 -100 395t-264 258q117 -94 173 -253.5t56 -397.5t-55.5 -403t-165.5 -250zM485 88q-130 132 -196 293t-66 350q0 196 72.5 364t200.5 271q-185 -98 -286 -267.5t-101 -381.5q0 -197 96.5 -358.5t279.5 -270.5zM72 723 q0 148 52 279.5t152 236.5q106 112 244.5 171.5t292.5 59.5q153 0 293 -60t248 -173q97 -101 148.5 -230.5t51.5 -275.5q0 -153 -54 -289t-159 -243q-106 -110 -240.5 -167t-287.5 -57t-289.5 58t-240.5 168q-104 108 -157.5 240.5t-53.5 281.5zM813 14q235 0 354 182.5 t119 544.5q0 346 -118 518.5t-353 172.5q-234 0 -355.5 -173t-121.5 -507q0 -367 119.5 -552.5t355.5 -185.5zM772 1860l-154 -230l195 168l199 -168l-160 230h-80zM522 1544l232 350h118l232 -350h-58l-233 211l-233 -211h-58z"/>
<glyph unicode="Õ" horiz-adv-x="1626" d="M1102 80q168 99 262 270.5t94 380.5q0 216 -100 395t-264 258q117 -94 173 -253.5t56 -397.5t-55.5 -403t-165.5 -250zM485 88q-130 132 -196 293t-66 350q0 196 72.5 364t200.5 271q-185 -98 -286 -267.5t-101 -381.5q0 -197 96.5 -358.5t279.5 -270.5zM72 723 q0 148 52 279.5t152 236.5q106 112 244.5 171.5t292.5 59.5q153 0 293 -60t248 -173q97 -101 148.5 -230.5t51.5 -275.5q0 -153 -54 -289t-159 -243q-106 -110 -240.5 -167t-287.5 -57t-289.5 58t-240.5 168q-104 108 -157.5 240.5t-53.5 281.5zM813 14q235 0 354 182.5 t119 544.5q0 346 -118 518.5t-353 172.5q-234 0 -355.5 -173t-121.5 -507q0 -367 119.5 -552.5t355.5 -185.5zM573 1655q24 28 50 41.5t57 13.5q40 0 115 -21.5t110 -21.5q52 0 88.5 27t55.5 80q-20 -23 -44 -33t-57 -10q-39 0 -115 20.5t-112 20.5q-56 0 -94 -30.5 t-54 -86.5zM1100 1841q-20 -103 -68.5 -154t-126.5 -51q-14 0 -32 2.5t-42 8.5l-108 28q-12 3 -24 4.5t-25 1.5q-39 0 -60.5 -19.5t-36.5 -70.5h-51q19 107 68 160t129 53q14 0 28.5 -2t35.5 -8l110 -29q16 -4 30 -6t25 -2q37 0 58.5 19.5t35.5 64.5h54z"/>
<glyph unicode="Ö" horiz-adv-x="1626" d="M1102 80q168 99 262 270.5t94 380.5q0 216 -100 395t-264 258q117 -94 173 -253.5t56 -397.5t-55.5 -403t-165.5 -250zM485 88q-130 132 -196 293t-66 350q0 196 72.5 364t200.5 271q-185 -98 -286 -267.5t-101 -381.5q0 -197 96.5 -358.5t279.5 -270.5zM72 723 q0 148 52 279.5t152 236.5q106 112 244.5 171.5t292.5 59.5q153 0 293 -60t248 -173q97 -101 148.5 -230.5t51.5 -275.5q0 -153 -54 -289t-159 -243q-106 -110 -240.5 -167t-287.5 -57t-289.5 58t-240.5 168q-104 108 -157.5 240.5t-53.5 281.5zM813 14q235 0 354 182.5 t119 544.5q0 346 -118 518.5t-353 172.5q-234 0 -355.5 -173t-121.5 -507q0 -367 119.5 -552.5t355.5 -185.5zM627 1620q23 0 33 17.5t10 60.5q0 42 -10 60t-33 18q-29 0 -49.5 -22.5t-20.5 -55.5t20.5 -55.5t49.5 -22.5zM520 1698q0 50 33.5 84.5t83.5 34.5q49 0 84 -35 t35 -84t-35 -83t-84 -34t-83 34t-34 83zM977 1620q23 0 33 17.5t10 60.5q0 44 -9.5 61t-31.5 17q-29 0 -50.5 -23t-21.5 -55q0 -33 20.5 -55.5t49.5 -22.5zM870 1698q0 50 34.5 84.5t84.5 34.5q49 0 83 -35t34 -84t-34 -83t-83 -34t-84 34t-35 83z"/>
<glyph unicode="×" horiz-adv-x="1706" d="M375 1161l481 -481l481 481l70 -67l-481 -484l481 -481l-70 -68l-481 482l-481 -482l-70 68l481 481l-481 484z"/>
<glyph unicode="Ø" horiz-adv-x="1626" d="M434 246l719 1032q-56 76 -141.5 115t-198.5 39q-231 0 -353 -172t-122 -496q0 -167 25 -301.5t71 -216.5zM473 176q51 -79 138 -120.5t202 -41.5q232 0 352.5 181t120.5 530q0 169 -23.5 292t-68.5 195zM262 -115h-82l174 248q-138 117 -210 267.5t-72 322.5 q0 146 52 277.5t152 238.5q107 111 246.5 171t290.5 60q111 0 209 -28.5t190 -87.5l148 211h84l-172 -248q143 -126 212.5 -270.5t69.5 -315.5q0 -153 -54 -289t-159 -245q-104 -108 -239.5 -165t-288.5 -57q-106 0 -208 30t-197 89zM1102 80q168 99 262 270.5t94 380.5 q0 216 -100 395t-264 258q117 -94 173 -253.5t56 -397.5t-55.5 -403t-165.5 -250zM485 88q-130 132 -196 293t-66 350q0 196 72.5 364t200.5 271q-185 -98 -286 -267.5t-101 -381.5q0 -197 96.5 -358.5t279.5 -270.5z"/>
<glyph unicode="Ù" horiz-adv-x="1626" d="M397 580v694q0 31 8 51t25 33l68 49h-297l106 -90v-19q-12 -6 -18 -18.5t-6 -32.5v-643q0 -254 118.5 -402.5t348.5 -178.5q-185 59 -269 191t-84 366zM1358 1221q12 56 32 101.5t50 84.5h-248q57 -29 98.5 -75.5t67.5 -110.5zM244 616v621q0 70 -46.5 120t-107.5 50h-33 v39h656v-39h-60q-63 0 -110 -50t-47 -120v-731q0 -114 18 -176.5t59 -114.5q62 -77 146.5 -116.5t187.5 -39.5q224 0 337.5 157t113.5 466v373q0 77 -21 133.5t-67 107.5q-50 54 -96.5 82.5t-86.5 28.5h-77v39h651v-39h-39q-79 0 -153 -100.5t-74 -219.5v-401 q0 -186 -22.5 -285.5t-74.5 -181.5q-74 -117 -198.5 -180.5t-282.5 -63.5q-138 0 -257 59.5t-206 170.5q-57 73 -83.5 172.5t-26.5 238.5zM887 1628l-195 205q-15 16 -26 22.5t-21 6.5q-16 0 -25.5 -9t-9.5 -24q1 -13 8.5 -23.5t22.5 -19.5zM1028 1544h-67l-330 205 q-31 20 -46.5 41t-15.5 43q0 31 20.5 50.5t53.5 19.5q20 0 40.5 -12t55.5 -48z"/>
<glyph unicode="Ú" horiz-adv-x="1626" d="M397 580v694q0 31 8 51t25 33l68 49h-297l106 -90v-19q-12 -6 -18 -18.5t-6 -32.5v-643q0 -254 118.5 -402.5t348.5 -178.5q-185 59 -269 191t-84 366zM1358 1221q12 56 32 101.5t50 84.5h-248q57 -29 98.5 -75.5t67.5 -110.5zM244 616v621q0 70 -46.5 120t-107.5 50h-33 v39h656v-39h-60q-63 0 -110 -50t-47 -120v-731q0 -114 18 -176.5t59 -114.5q62 -77 146.5 -116.5t187.5 -39.5q224 0 337.5 157t113.5 466v373q0 77 -21 133.5t-67 107.5q-50 54 -96.5 82.5t-86.5 28.5h-77v39h651v-39h-39q-79 0 -153 -100.5t-74 -219.5v-401 q0 -186 -22.5 -285.5t-74.5 -181.5q-74 -117 -198.5 -180.5t-282.5 -63.5q-138 0 -257 59.5t-206 170.5q-57 73 -83.5 172.5t-26.5 238.5zM809 1638l254 152q15 9 23 20t8 23q0 15 -9.5 24t-25.5 9q-10 0 -21 -6.5t-26 -22.5zM676 1544l289 299q35 36 55.5 48t40.5 12 q33 0 53.5 -19.5t20.5 -50.5q0 -22 -15.5 -43t-46.5 -41l-330 -205h-67z"/>
<glyph unicode="Û" horiz-adv-x="1626" d="M397 580v694q0 31 8 51t25 33l68 49h-297l106 -90v-19q-12 -6 -18 -18.5t-6 -32.5v-643q0 -254 118.5 -402.5t348.5 -178.5q-185 59 -269 191t-84 366zM1358 1221q12 56 32 101.5t50 84.5h-248q57 -29 98.5 -75.5t67.5 -110.5zM244 616v621q0 70 -46.5 120t-107.5 50h-33 v39h656v-39h-60q-63 0 -110 -50t-47 -120v-731q0 -114 18 -176.5t59 -114.5q62 -77 146.5 -116.5t187.5 -39.5q224 0 337.5 157t113.5 466v373q0 77 -21 133.5t-67 107.5q-50 54 -96.5 82.5t-86.5 28.5h-77v39h651v-39h-39q-79 0 -153 -100.5t-74 -219.5v-401 q0 -186 -22.5 -285.5t-74.5 -181.5q-74 -117 -198.5 -180.5t-282.5 -63.5q-138 0 -257 59.5t-206 170.5q-57 73 -83.5 172.5t-26.5 238.5zM811 1860l-154 -230l195 168l199 -168l-160 230h-80zM561 1544l232 350h118l232 -350h-58l-233 211l-233 -211h-58z"/>
<glyph unicode="Ü" horiz-adv-x="1626" d="M397 580v694q0 31 8 51t25 33l68 49h-297l106 -90v-19q-12 -6 -18 -18.5t-6 -32.5v-643q0 -254 118.5 -402.5t348.5 -178.5q-185 59 -269 191t-84 366zM1358 1221q12 56 32 101.5t50 84.5h-248q57 -29 98.5 -75.5t67.5 -110.5zM244 616v621q0 70 -46.5 120t-107.5 50h-33 v39h656v-39h-60q-63 0 -110 -50t-47 -120v-731q0 -114 18 -176.5t59 -114.5q62 -77 146.5 -116.5t187.5 -39.5q224 0 337.5 157t113.5 466v373q0 77 -21 133.5t-67 107.5q-50 54 -96.5 82.5t-86.5 28.5h-77v39h651v-39h-39q-79 0 -153 -100.5t-74 -219.5v-401 q0 -186 -22.5 -285.5t-74.5 -181.5q-74 -117 -198.5 -180.5t-282.5 -63.5q-138 0 -257 59.5t-206 170.5q-57 73 -83.5 172.5t-26.5 238.5zM666 1620q23 0 33 17.5t10 60.5q0 42 -10 60t-33 18q-29 0 -49.5 -22.5t-20.5 -55.5t20.5 -55.5t49.5 -22.5zM559 1698 q0 50 33.5 84.5t83.5 34.5q49 0 84 -35t35 -84t-35 -83t-84 -34t-83 34t-34 83zM1016 1620q23 0 33 17.5t10 60.5q0 44 -9.5 61t-31.5 17q-29 0 -50.5 -23t-21.5 -55q0 -33 20.5 -55.5t49.5 -22.5zM909 1698q0 50 34.5 84.5t84.5 34.5q49 0 83 -35t34 -84t-34 -83t-83 -34 t-84 34t-35 83z"/>
<glyph unicode="Ý" horiz-adv-x="1546" d="M1217 1214q42 55 89.5 103t100.5 90h-231q24 -36 36.5 -70t12.5 -67q0 -14 -2 -28t-6 -28zM819 172v641l-276 336q-27 32 -38 58t-11 55q0 33 16 66.5t53 78.5h-395q45 -30 85.5 -67.5t88.5 -96.5l363 -448v-613q0 -43 -20.5 -76.5t-68.5 -66.5h287q-52 41 -68 66.5 t-16 66.5zM920 209q0 -71 46.5 -120.5t112.5 -49.5h47v-39h-663v39h51q61 0 107.5 50t46.5 120v575l-379 467q-51 63 -123.5 109.5t-112.5 46.5h-59v39h782v-39h-76q-44 0 -74 -35.5t-30 -85.5q0 -27 9 -50t30 -48l260 -324l238 260q25 27 40 63t15 68q0 70 -29 111t-78 41 h-80v39h670v-39h-69q-68 0 -176 -68.5t-209 -179.5l-297 -328v-622zM731 1638l254 152q15 9 23 20t8 23q0 15 -9.5 24t-25.5 9q-10 0 -21 -6.5t-26 -22.5zM598 1544l289 299q35 36 55.5 48t40.5 12q33 0 53.5 -19.5t20.5 -50.5q0 -22 -15.5 -43t-46.5 -41l-330 -205h-67z "/>
<glyph unicode="Þ" horiz-adv-x="1403" d="M496 412q81 -37 154.5 -55.5t140.5 -18.5q139 0 228 112.5t89 288.5q0 179 -89.5 291.5t-232.5 112.5h-24l-98 -6q-72 -5 -120 -55t-48 -121v-549zM942 338q151 33 238.5 140.5t87.5 258.5q0 159 -86.5 265.5t-241.5 138.5q99 -62 152 -165t53 -233q0 -133 -51.5 -236 t-151.5 -169zM713 1446v-39h-56q-66 0 -113.5 -50t-47.5 -120v-68h59q47 0 152 8.5t163 8.5q211 0 352.5 -126.5t141.5 -311.5q0 -203 -144 -327t-380 -124q-86 0 -172 18.5t-172 55.5v-162q0 -70 47.5 -120t113.5 -50h56v-39h-656v39h33q61 0 107.5 50t46.5 120v1028 q0 70 -46.5 120t-107.5 50h-33v39h656zM283 182q0 -43 -20.5 -76.5t-67.5 -66.5h286q-52 41 -68 66.5t-16 66.5v1102q0 31 8 51t25 33l68 49h-297l106 -90v-19q-12 -6 -18 -18.5t-6 -32.5v-1065z"/>
<glyph unicode="ß" horiz-adv-x="1096" d="M918 68q27 21 41 54t14 77q0 72 -38.5 122.5t-150.5 110.5l-9 5q-205 109 -240 243q-1 -2 -1 -6q-4 -35 -4 -47q0 -72 39.5 -124.5t141.5 -111.5l53 -29q170 -92 170 -210q0 -22 -4 -43t-12 -41zM555 1419q32 -33 51 -120t19 -205q0 -90 -14.5 -168.5t-43.5 -145.5 q80 52 117 128t37 188q0 119 -44 204t-122 119zM213 940v-793q0 -45 -8.5 -70.5t-28.5 -39.5h45q46 0 60 13.5t14 68.5v938q0 112 11.5 189.5t33.5 115.5q-67 -76 -97 -175.5t-30 -246.5zM31 0v37h37q59 0 84.5 28.5t25.5 96.5v446h-147v37h147v279q0 253 88.5 398.5 t239.5 145.5q125 0 212 -107.5t87 -266.5q0 -85 -29.5 -151t-89.5 -116q-14 -11 -42 -30q-64 -42 -64 -88t37 -84.5t145 -94.5q156 -81 206 -144t50 -157q0 -110 -64 -177.5t-168 -67.5q-39 0 -97.5 12t-76.5 12q-21 0 -36 -6.5t-27 -21.5l-41 -7l-49 275l39 12 q41 -111 115 -176.5t157 -65.5q59 0 93 34.5t34 94.5q0 52 -25 89.5t-81 70.5l-61 35q-236 133 -236 293q0 52 37 143l18 47q20 58 30.5 126.5t10.5 144.5q0 160 -31 247t-88 87q-52 0 -71 -40t-19 -196v-1194h-350zM610 39q-22 16 -42 37t-37 46l20 -89q11 3 22 4.5t21 1.5 h16z"/>
<glyph unicode="à" horiz-adv-x="891" d="M299 18q-62 23 -95.5 66.5t-33.5 99.5q0 46 20 85t62 75q-79 -23 -120.5 -68.5t-41.5 -107.5q0 -63 53 -107.5t131 -44.5q5 0 13 1t12 1zM309 500q0 18 5 39t15 50q-22 -14 -40.5 -30t-32.5 -35zM519 614q10 -21 16 -52.5t6 -69.5v-334q0 -73 29.5 -108.5t88.5 -35.5 q11 0 23.5 2t21.5 4q-48 8 -65.5 32.5t-17.5 88.5v211q0 131 -23 179t-79 83zM504 377q-131 -11 -194.5 -56t-63.5 -126q0 -60 36 -99t91 -39q38 0 71 21t60 61v238zM506 84q-54 -55 -109 -82t-116 -27q-98 0 -161 56t-63 139q0 101 83 155t263 70q11 1 30 3q71 6 71 48v93 q0 43 -16 64.5t-48 21.5q-39 0 -64.5 -23.5t-25.5 -60.5q0 -31 15.5 -56t48.5 -49l-23 -33l-194 99q54 79 118 120.5t134 41.5q125 0 193.5 -75.5t68.5 -213.5v-240q0 -35 9.5 -52t29.5 -17q27 0 55.5 30.5t42.5 77.5l33 -18q-29 -83 -88.5 -132t-128.5 -49q-57 0 -99.5 30 t-58.5 79zM481 821l-195 205q-15 16 -26 22.5t-21 6.5q-16 0 -25.5 -9t-9.5 -24q1 -13 8.5 -23.5t22.5 -19.5zM622 737h-67l-330 205q-31 20 -46.5 41t-15.5 43q0 31 20.5 50.5t53.5 19.5q20 0 40.5 -12t55.5 -48z"/>
<glyph unicode="á" horiz-adv-x="891" d="M299 18q-62 23 -95.5 66.5t-33.5 99.5q0 46 20 85t62 75q-79 -23 -120.5 -68.5t-41.5 -107.5q0 -63 53 -107.5t131 -44.5q5 0 13 1t12 1zM309 500q0 18 5 39t15 50q-22 -14 -40.5 -30t-32.5 -35zM519 614q10 -21 16 -52.5t6 -69.5v-334q0 -73 29.5 -108.5t88.5 -35.5 q11 0 23.5 2t21.5 4q-48 8 -65.5 32.5t-17.5 88.5v211q0 131 -23 179t-79 83zM504 377q-131 -11 -194.5 -56t-63.5 -126q0 -60 36 -99t91 -39q38 0 71 21t60 61v238zM506 84q-54 -55 -109 -82t-116 -27q-98 0 -161 56t-63 139q0 101 83 155t263 70q11 1 30 3q71 6 71 48v93 q0 43 -16 64.5t-48 21.5q-39 0 -64.5 -23.5t-25.5 -60.5q0 -31 15.5 -56t48.5 -49l-23 -33l-194 99q54 79 118 120.5t134 41.5q125 0 193.5 -75.5t68.5 -213.5v-240q0 -35 9.5 -52t29.5 -17q27 0 55.5 30.5t42.5 77.5l33 -18q-29 -83 -88.5 -132t-128.5 -49q-57 0 -99.5 30 t-58.5 79zM403 831l254 152q15 9 23 20t8 23q0 15 -9.5 24t-25.5 9q-10 0 -21 -6.5t-26 -22.5zM270 737l289 299q35 36 55.5 48t40.5 12q33 0 53.5 -19.5t20.5 -50.5q0 -22 -15.5 -43t-46.5 -41l-330 -205h-67z"/>
<glyph unicode="â" horiz-adv-x="891" d="M299 18q-62 23 -95.5 66.5t-33.5 99.5q0 46 20 85t62 75q-79 -23 -120.5 -68.5t-41.5 -107.5q0 -63 53 -107.5t131 -44.5q5 0 13 1t12 1zM309 500q0 18 5 39t15 50q-22 -14 -40.5 -30t-32.5 -35zM519 614q10 -21 16 -52.5t6 -69.5v-334q0 -73 29.5 -108.5t88.5 -35.5 q11 0 23.5 2t21.5 4q-48 8 -65.5 32.5t-17.5 88.5v211q0 131 -23 179t-79 83zM504 377q-131 -11 -194.5 -56t-63.5 -126q0 -60 36 -99t91 -39q38 0 71 21t60 61v238zM506 84q-54 -55 -109 -82t-116 -27q-98 0 -161 56t-63 139q0 101 83 155t263 70q11 1 30 3q71 6 71 48v93 q0 43 -16 64.5t-48 21.5q-39 0 -64.5 -23.5t-25.5 -60.5q0 -31 15.5 -56t48.5 -49l-23 -33l-194 99q54 79 118 120.5t134 41.5q125 0 193.5 -75.5t68.5 -213.5v-240q0 -35 9.5 -52t29.5 -17q27 0 55.5 30.5t42.5 77.5l33 -18q-29 -83 -88.5 -132t-128.5 -49q-57 0 -99.5 30 t-58.5 79zM405 1053l-154 -230l195 168l199 -168l-160 230h-80zM155 737l232 350h118l232 -350h-58l-233 211l-233 -211h-58z"/>
<glyph unicode="ã" horiz-adv-x="891" d="M299 18q-62 23 -95.5 66.5t-33.5 99.5q0 46 20 85t62 75q-79 -23 -120.5 -68.5t-41.5 -107.5q0 -63 53 -107.5t131 -44.5q5 0 13 1t12 1zM309 500q0 18 5 39t15 50q-22 -14 -40.5 -30t-32.5 -35zM519 614q10 -21 16 -52.5t6 -69.5v-334q0 -73 29.5 -108.5t88.5 -35.5 q11 0 23.5 2t21.5 4q-48 8 -65.5 32.5t-17.5 88.5v211q0 131 -23 179t-79 83zM504 377q-131 -11 -194.5 -56t-63.5 -126q0 -60 36 -99t91 -39q38 0 71 21t60 61v238zM506 84q-54 -55 -109 -82t-116 -27q-98 0 -161 56t-63 139q0 101 83 155t263 70q11 1 30 3q71 6 71 48v93 q0 43 -16 64.5t-48 21.5q-39 0 -64.5 -23.5t-25.5 -60.5q0 -31 15.5 -56t48.5 -49l-23 -33l-194 99q54 79 118 120.5t134 41.5q125 0 193.5 -75.5t68.5 -213.5v-240q0 -35 9.5 -52t29.5 -17q27 0 55.5 30.5t42.5 77.5l33 -18q-29 -83 -88.5 -132t-128.5 -49q-57 0 -99.5 30 t-58.5 79zM206 848q24 28 50 41.5t57 13.5q40 0 115 -21.5t110 -21.5q52 0 88.5 27t55.5 80q-20 -23 -44 -33t-57 -10q-39 0 -115 20.5t-112 20.5q-56 0 -94 -30.5t-54 -86.5zM733 1034q-20 -103 -68.5 -154t-126.5 -51q-14 0 -32 2.5t-42 8.5l-108 28q-12 3 -24 4.5 t-25 1.5q-39 0 -60.5 -19.5t-36.5 -70.5h-51q19 107 68 160t129 53q14 0 28.5 -2t35.5 -8l110 -29q16 -4 30 -6t25 -2q37 0 58.5 19.5t35.5 64.5h54z"/>
<glyph unicode="ä" horiz-adv-x="891" d="M299 18q-62 23 -95.5 66.5t-33.5 99.5q0 46 20 85t62 75q-79 -23 -120.5 -68.5t-41.5 -107.5q0 -63 53 -107.5t131 -44.5q5 0 13 1t12 1zM309 500q0 18 5 39t15 50q-22 -14 -40.5 -30t-32.5 -35zM519 614q10 -21 16 -52.5t6 -69.5v-334q0 -73 29.5 -108.5t88.5 -35.5 q11 0 23.5 2t21.5 4q-48 8 -65.5 32.5t-17.5 88.5v211q0 131 -23 179t-79 83zM504 377q-131 -11 -194.5 -56t-63.5 -126q0 -60 36 -99t91 -39q38 0 71 21t60 61v238zM506 84q-54 -55 -109 -82t-116 -27q-98 0 -161 56t-63 139q0 101 83 155t263 70q11 1 30 3q71 6 71 48v93 q0 43 -16 64.5t-48 21.5q-39 0 -64.5 -23.5t-25.5 -60.5q0 -31 15.5 -56t48.5 -49l-23 -33l-194 99q54 79 118 120.5t134 41.5q125 0 193.5 -75.5t68.5 -213.5v-240q0 -35 9.5 -52t29.5 -17q27 0 55.5 30.5t42.5 77.5l33 -18q-29 -83 -88.5 -132t-128.5 -49q-57 0 -99.5 30 t-58.5 79zM260 813q23 0 33 17.5t10 60.5q0 42 -10 60t-33 18q-29 0 -49.5 -22.5t-20.5 -55.5t20.5 -55.5t49.5 -22.5zM153 891q0 50 33.5 84.5t83.5 34.5q49 0 84 -35t35 -84t-35 -83t-84 -34t-83 34t-34 83zM610 813q23 0 33 17.5t10 60.5q0 44 -9.5 61t-31.5 17 q-29 0 -50.5 -23t-21.5 -55q0 -33 20.5 -55.5t49.5 -22.5zM503 891q0 50 34.5 84.5t84.5 34.5q49 0 83 -35t34 -84t-34 -83t-83 -34t-84 34t-35 83z"/>
<glyph unicode="å" horiz-adv-x="891" d="M227 932q0 92 64.5 156.5t157.5 64.5q92 0 156.5 -64.5t64.5 -156.5t-64.5 -156.5t-156.5 -64.5q-93 0 -157.5 64.5t-64.5 156.5zM281 932q0 -69 49 -118.5t119 -49.5q69 0 118 49.5t49 118.5t-49 118.5t-118 49.5q-70 0 -119 -49t-49 -119zM299 18q-62 23 -95.5 66.5 t-33.5 99.5q0 46 20 85t62 75q-79 -23 -120.5 -68.5t-41.5 -107.5q0 -63 53 -107.5t131 -44.5q5 0 13 1t12 1zM309 500q0 18 5 39t15 50q-22 -14 -40.5 -30t-32.5 -35zM519 614q10 -21 16 -52.5t6 -69.5v-334q0 -73 29.5 -108.5t88.5 -35.5q11 0 23.5 2t21.5 4 q-48 8 -65.5 32.5t-17.5 88.5v211q0 131 -23 179t-79 83zM504 377q-131 -11 -194.5 -56t-63.5 -126q0 -60 36 -99t91 -39q38 0 71 21t60 61v238zM506 84q-50 -51 -104.5 -75.5t-118.5 -24.5q-101 0 -163.5 52t-62.5 134q0 101 83 155t263 70q11 1 30 3q71 6 71 48v93 q0 43 -16 64.5t-48 21.5q-39 0 -64.5 -23.5t-25.5 -60.5q0 -31 15.5 -56t48.5 -49l-23 -33l-194 99q54 79 118 120.5t134 41.5q125 0 193.5 -75.5t68.5 -213.5v-240q0 -35 9.5 -52t29.5 -17q27 0 55.5 30.5t42.5 77.5l33 -18q-29 -81 -87.5 -127.5t-129.5 -46.5 q-59 0 -101 27t-57 75z"/>
<glyph unicode="æ" horiz-adv-x="1239" d="M743 37q-61 54 -93 125.5t-32 156.5q0 96 36.5 176.5t95.5 118.5q-52 -15 -88 -36.5t-60 -53.5q-17 31 -37.5 53t-45.5 37q11 -21 16.5 -53t5.5 -78q0 -29 -2 -73.5t-2 -59.5q0 -124 51.5 -202.5t154.5 -110.5zM1100 414q-13 67 -50.5 117t-97.5 77q25 -31 38.5 -75.5 t21.5 -118.5h88zM1165 254l27 -8q-28 -120 -120 -191t-218 -71q-89 0 -161.5 32t-129.5 97q-66 -65 -136.5 -97t-145.5 -32q-99 0 -161.5 52t-62.5 134q0 101 83 155t263 70q11 1 30 3q71 6 71 48v93q0 43 -16 64.5t-48 21.5q-39 0 -64.5 -23.5t-25.5 -60.5q0 -31 15.5 -56 t48.5 -49l-23 -33l-194 99q54 79 117.5 119.5t134.5 40.5q53 0 97.5 -16t84.5 -50q50 33 107 49.5t120 16.5q133 0 222 -72t122 -207h-467v31h240q-2 105 -34.5 160t-92.5 55q-66 0 -101.5 -81.5t-35.5 -234.5q0 -158 39.5 -225.5t130.5 -67.5q96 0 173 63t111 171zM299 18 q-62 23 -95.5 66.5t-33.5 99.5q0 46 20 85t62 75q-79 -23 -120.5 -68.5t-41.5 -107.5q0 -63 53 -107.5t131 -44.5q5 0 13 1t12 1zM309 500q0 18 5 39t15 50q-22 -14 -40.5 -30t-32.5 -35zM500 377q-130 -11 -192 -56t-62 -126q0 -63 36 -100.5t97 -37.5q41 0 82 24t78 71 q-23 36 -33 78.5t-10 95.5q0 9 2 33q1 11 2 18z"/>
<glyph unicode="ç" horiz-adv-x="803" d="M653 532l-21 78q-5 -2 -11.5 -3t-20.5 -1q-11 0 -17 0.5t-11 1.5q22 -15 42.5 -34t38.5 -42zM307 37q-62 54 -93.5 125.5t-31.5 156.5q0 96 36.5 176.5t94.5 118.5q-103 -27 -162 -105t-59 -187q0 -102 56.5 -176.5t158.5 -108.5zM729 254l27 -8q-28 -122 -121 -196.5 t-217 -74.5q-157 0 -259 100t-102 251q0 144 99.5 241t249.5 97q49 0 115.5 -12.5t82.5 -12.5q12 0 18.5 4t8.5 12l37 4l82 -253l-35 -7q-62 110 -136.5 170t-148.5 60q-79 0 -117.5 -78t-38.5 -238q0 -159 40 -229t130 -70q95 0 172.5 65t112.5 175zM475 -152 q47 -13 74.5 -46.5t27.5 -77.5q0 -54 -35 -87t-100 -40h20q75 0 119.5 36.5t44.5 96.5q0 56 -35.5 87t-99.5 31h-16zM422 -115q18 3 35 4.5t34 1.5q85 0 138 -42t53 -109q0 -78 -61.5 -126t-162.5 -48q-69 0 -142.5 25.5t-137.5 72.5l16 37q65 -39 121 -57.5t109 -18.5 q54 0 87 28t33 75q0 43 -29.5 66.5t-84.5 23.5q-7 0 -17.5 -1t-29.5 -3v186h38z"/>
<glyph unicode="è" horiz-adv-x="803" d="M729 254l27 -8q-28 -122 -121 -196.5t-217 -74.5q-157 0 -259 100t-102 251q0 148 101.5 243t261.5 95q134 0 223 -72.5t123 -208.5h-467v31h239q-1 105 -33.5 160t-92.5 55q-67 0 -102.5 -81.5t-35.5 -234.5q0 -158 40 -225.5t130 -67.5q97 0 174 63t111 171zM307 37 q-62 54 -93.5 125.5t-31.5 156.5q0 96 36.5 176.5t94.5 118.5q-103 -27 -162 -105t-59 -187q0 -102 56.5 -176.5t158.5 -108.5zM664 414q-13 67 -50.5 117t-97.5 77q24 -31 38 -75.5t22 -118.5h88zM449 821l-195 205q-15 16 -26 22.5t-21 6.5q-16 0 -25.5 -9t-9.5 -24 q1 -13 8.5 -23.5t22.5 -19.5zM590 737h-67l-330 205q-31 20 -46.5 41t-15.5 43q0 31 20.5 50.5t53.5 19.5q20 0 40.5 -12t55.5 -48z"/>
<glyph unicode="é" horiz-adv-x="803" d="M729 254l27 -8q-28 -122 -121 -196.5t-217 -74.5q-157 0 -259 100t-102 251q0 148 101.5 243t261.5 95q134 0 223 -72.5t123 -208.5h-467v31h239q-1 105 -33.5 160t-92.5 55q-67 0 -102.5 -81.5t-35.5 -234.5q0 -158 40 -225.5t130 -67.5q97 0 174 63t111 171zM307 37 q-62 54 -93.5 125.5t-31.5 156.5q0 96 36.5 176.5t94.5 118.5q-103 -27 -162 -105t-59 -187q0 -102 56.5 -176.5t158.5 -108.5zM664 414q-13 67 -50.5 117t-97.5 77q24 -31 38 -75.5t22 -118.5h88zM371 831l254 152q15 9 23 20t8 23q0 15 -9.5 24t-25.5 9q-10 0 -21 -6.5 t-26 -22.5zM238 737l289 299q35 36 55.5 48t40.5 12q33 0 53.5 -19.5t20.5 -50.5q0 -22 -15.5 -43t-46.5 -41l-330 -205h-67z"/>
<glyph unicode="ê" horiz-adv-x="803" d="M729 254l27 -8q-28 -122 -121 -196.5t-217 -74.5q-157 0 -259 100t-102 251q0 148 101.5 243t261.5 95q134 0 223 -72.5t123 -208.5h-467v31h239q-1 105 -33.5 160t-92.5 55q-67 0 -102.5 -81.5t-35.5 -234.5q0 -158 40 -225.5t130 -67.5q97 0 174 63t111 171zM307 37 q-62 54 -93.5 125.5t-31.5 156.5q0 96 36.5 176.5t94.5 118.5q-103 -27 -162 -105t-59 -187q0 -102 56.5 -176.5t158.5 -108.5zM664 414q-13 67 -50.5 117t-97.5 77q24 -31 38 -75.5t22 -118.5h88zM373 1053l-154 -230l195 168l199 -168l-160 230h-80zM123 737l232 350h118 l232 -350h-58l-233 211l-233 -211h-58z"/>
<glyph unicode="ë" horiz-adv-x="803" d="M729 254l27 -8q-28 -122 -121 -196.5t-217 -74.5q-157 0 -259 100t-102 251q0 148 101.5 243t261.5 95q134 0 223 -72.5t123 -208.5h-467v31h239q-1 105 -33.5 160t-92.5 55q-67 0 -102.5 -81.5t-35.5 -234.5q0 -158 40 -225.5t130 -67.5q97 0 174 63t111 171zM307 37 q-62 54 -93.5 125.5t-31.5 156.5q0 96 36.5 176.5t94.5 118.5q-103 -27 -162 -105t-59 -187q0 -102 56.5 -176.5t158.5 -108.5zM664 414q-13 67 -50.5 117t-97.5 77q24 -31 38 -75.5t22 -118.5h88zM228 813q23 0 33 17.5t10 60.5q0 42 -10 60t-33 18q-29 0 -49.5 -22.5 t-20.5 -55.5t20.5 -55.5t49.5 -22.5zM121 891q0 50 33.5 84.5t83.5 34.5q49 0 84 -35t35 -84t-35 -83t-84 -34t-83 34t-34 83zM578 813q23 0 33 17.5t10 60.5q0 44 -9.5 61t-31.5 17q-29 0 -50.5 -23t-21.5 -55q0 -33 20.5 -55.5t49.5 -22.5zM471 891q0 50 34.5 84.5 t84.5 34.5q49 0 83 -35t34 -84t-34 -83t-83 -34t-84 34t-35 83z"/>
<glyph unicode="ì" horiz-adv-x="541" d="M68 0v37h6q56 0 80 28.5t24 96.5v338q0 58 -16.5 75t-69.5 17h-45v36q134 6 210 14.5t124 20.5v-507q0 -77 18 -98t76 -21h37v-37h-444zM295 119l-1 489q-21 -5 -78 -7q-17 -1 -26 -1q12 -12 17.5 -32t5.5 -56v-365q0 -45 -8.5 -70.5t-28.5 -39.5h45q46 0 60 13.5 t14 68.5zM305 821l-195 205q-15 16 -26 22.5t-21 6.5q-16 0 -25.5 -9t-9.5 -24q1 -13 8.5 -23.5t22.5 -19.5zM446 737h-67l-330 205q-31 20 -46.5 41t-15.5 43q0 31 20.5 50.5t53.5 19.5q20 0 40.5 -12t55.5 -48z"/>
<glyph unicode="í" horiz-adv-x="541" d="M68 0v37h6q56 0 80 28.5t24 96.5v338q0 58 -16.5 75t-69.5 17h-45v36q134 6 210 14.5t124 20.5v-507q0 -77 18 -98t76 -21h37v-37h-444zM295 119l-1 489q-21 -5 -78 -7q-17 -1 -26 -1q12 -12 17.5 -32t5.5 -56v-365q0 -45 -8.5 -70.5t-28.5 -39.5h45q46 0 60 13.5 t14 68.5zM227 831l254 152q15 9 23 20t8 23q0 15 -9.5 24t-25.5 9q-10 0 -21 -6.5t-26 -22.5zM94 737l289 299q35 36 55.5 48t40.5 12q33 0 53.5 -19.5t20.5 -50.5q0 -22 -15.5 -43t-46.5 -41l-330 -205h-67z"/>
<glyph unicode="î" horiz-adv-x="541" d="M68 0v37h6q56 0 80 28.5t24 96.5v338q0 58 -16.5 75t-69.5 17h-45v36q134 6 210 14.5t124 20.5v-507q0 -77 18 -98t76 -21h37v-37h-444zM295 119l-1 489q-21 -5 -78 -7q-17 -1 -26 -1q12 -12 17.5 -32t5.5 -56v-365q0 -45 -8.5 -70.5t-28.5 -39.5h45q46 0 60 13.5 t14 68.5zM229 1053l-154 -230l195 168l199 -168l-160 230h-80zM-21 737l232 350h118l232 -350h-58l-233 211l-233 -211h-58z"/>
<glyph unicode="ï" horiz-adv-x="541" d="M68 0v37h6q56 0 80 28.5t24 96.5v338q0 58 -16.5 75t-69.5 17h-45v36q134 6 210 14.5t124 20.5v-507q0 -77 18 -98t76 -21h37v-37h-444zM295 119l-1 489q-21 -5 -78 -7q-17 -1 -26 -1q12 -12 17.5 -32t5.5 -56v-365q0 -45 -8.5 -70.5t-28.5 -39.5h45q46 0 60 13.5 t14 68.5zM84 813q23 0 33 17.5t10 60.5q0 42 -10 60t-33 18q-29 0 -49.5 -22.5t-20.5 -55.5t20.5 -55.5t49.5 -22.5zM-23 891q0 50 33.5 84.5t83.5 34.5q49 0 84 -35t35 -84t-35 -83t-84 -34t-83 34t-34 83zM434 813q23 0 33 17.5t10 60.5q0 44 -9.5 61t-31.5 17 q-29 0 -50.5 -23t-21.5 -55q0 -33 20.5 -55.5t49.5 -22.5zM327 891q0 50 34.5 84.5t84.5 34.5q49 0 83 -35t34 -84t-34 -83t-83 -34t-84 34t-35 83z"/>
<glyph unicode="ð" horiz-adv-x="854" d="M285 1305q161 -248 245 -503t84 -495q0 -95 -21.5 -167t-64.5 -115q93 40 138 128.5t45 231.5q0 241 -114.5 489t-311.5 431zM319 25q-70 54 -104.5 128t-34.5 169q0 101 38.5 177t113.5 122q-106 -28 -170 -109.5t-64 -187.5q0 -100 60 -181.5t161 -117.5zM528 645 q-14 86 -49.5 187t-93.5 225l-231 -135l-25 39l231 139q-69 141 -130 221.5t-130 126.5l31 33q19 -24 140 -121t206 -193l254 152l25 -39l-248 -147q145 -176 220 -360t75 -365q0 -199 -100.5 -312.5t-276.5 -113.5q-158 0 -263.5 97.5t-105.5 242.5q0 141 106.5 242.5 t258.5 101.5q25 0 51 -5t55 -16zM426 627q-74 0 -113 -78t-39 -227q0 -150 39 -227t113 -77t113 77t39 227q0 149 -39 227t-113 78z"/>
<glyph unicode="ñ" horiz-adv-x="1042" d="M295 119l-1 489q-21 -5 -78 -7q-17 -1 -26 -1q12 -12 17.5 -32t5.5 -56v-365q0 -45 -8.5 -70.5t-28.5 -39.5h45q46 0 60 13.5t14 68.5zM791 119v299q0 92 -41.5 140.5t-126.5 55.5q45 -18 65.5 -55.5t20.5 -103.5v-308q0 -46 -9 -71t-30 -39h47q45 0 59.5 13.5t14.5 68.5 zM31 0v37h37q59 0 84.5 28.5t25.5 96.5v338q0 58 -16.5 75t-69.5 17h-61v37q124 3 209.5 11.5t140.5 23.5v-168l92 84q52 48 89.5 66t78.5 18q115 0 175.5 -88t60.5 -254v-78q0 -147 17 -177t75 -30h61v-37h-465v37h29q41 0 59.5 28t18.5 93v303q0 60 -26.5 96.5t-70.5 36.5 q-20 0 -39.5 -9.5t-37.5 -27.5l-117 -108v-293q0 -77 18 -98t76 -21h29v-37h-473zM282 848q24 28 50 41.5t57 13.5q40 0 115 -21.5t110 -21.5q52 0 88.5 27t55.5 80q-20 -23 -44 -33t-57 -10q-39 0 -115 20.5t-112 20.5q-56 0 -94 -30.5t-54 -86.5zM809 1034 q-20 -103 -68.5 -154t-126.5 -51q-14 0 -32 2.5t-42 8.5l-108 28q-12 3 -24 4.5t-25 1.5q-39 0 -60.5 -19.5t-36.5 -70.5h-51q19 107 68 160t129 53q14 0 28.5 -2t35.5 -8l110 -29q16 -4 30 -6t25 -2q37 0 58.5 19.5t35.5 64.5h54z"/>
<glyph unicode="ò" horiz-adv-x="854" d="M319 25q-69 55 -104 129.5t-35 167.5q0 101 38.5 177t113.5 122q-106 -28 -170 -109.5t-64 -187.5q0 -100 60 -181.5t161 -117.5zM426 627q-74 0 -113 -78t-39 -227q0 -151 39 -230.5t113 -79.5t113 79.5t39 230.5q0 149 -39 227t-113 78zM528 25q85 36 132 114t47 180 q0 101 -45.5 177.5t-133.5 121.5q41 -32 63.5 -111.5t22.5 -189.5q0 -102 -21 -175t-65 -117zM426 664q158 0 263.5 -99t105.5 -243q0 -146 -106 -246.5t-263 -100.5t-263 100.5t-106 246.5q0 144 105.5 243t263.5 99zM463 821l-195 205q-15 16 -26 22.5t-21 6.5 q-16 0 -25.5 -9t-9.5 -24q1 -13 8.5 -23.5t22.5 -19.5zM604 737h-67l-330 205q-31 20 -46.5 41t-15.5 43q0 31 20.5 50.5t53.5 19.5q20 0 40.5 -12t55.5 -48z"/>
<glyph unicode="ó" horiz-adv-x="854" d="M319 25q-69 55 -104 129.5t-35 167.5q0 101 38.5 177t113.5 122q-106 -28 -170 -109.5t-64 -187.5q0 -100 60 -181.5t161 -117.5zM426 627q-74 0 -113 -78t-39 -227q0 -151 39 -230.5t113 -79.5t113 79.5t39 230.5q0 149 -39 227t-113 78zM528 25q85 36 132 114t47 180 q0 101 -45.5 177.5t-133.5 121.5q41 -32 63.5 -111.5t22.5 -189.5q0 -102 -21 -175t-65 -117zM426 664q158 0 263.5 -99t105.5 -243q0 -146 -106 -246.5t-263 -100.5t-263 100.5t-106 246.5q0 144 105.5 243t263.5 99zM385 831l254 152q15 9 23 20t8 23q0 15 -9.5 24 t-25.5 9q-10 0 -21 -6.5t-26 -22.5zM252 737l289 299q35 36 55.5 48t40.5 12q33 0 53.5 -19.5t20.5 -50.5q0 -22 -15.5 -43t-46.5 -41l-330 -205h-67z"/>
<glyph unicode="ô" horiz-adv-x="854" d="M319 25q-69 55 -104 129.5t-35 167.5q0 101 38.5 177t113.5 122q-106 -28 -170 -109.5t-64 -187.5q0 -100 60 -181.5t161 -117.5zM426 627q-74 0 -113 -78t-39 -227q0 -151 39 -230.5t113 -79.5t113 79.5t39 230.5q0 149 -39 227t-113 78zM528 25q85 36 132 114t47 180 q0 101 -45.5 177.5t-133.5 121.5q41 -32 63.5 -111.5t22.5 -189.5q0 -102 -21 -175t-65 -117zM426 664q158 0 263.5 -99t105.5 -243q0 -146 -106 -246.5t-263 -100.5t-263 100.5t-106 246.5q0 144 105.5 243t263.5 99zM387 1053l-154 -230l195 168l199 -168l-160 230h-80z M137 737l232 350h118l232 -350h-58l-233 211l-233 -211h-58z"/>
<glyph unicode="õ" horiz-adv-x="854" d="M319 25q-69 55 -104 129.5t-35 167.5q0 101 38.5 177t113.5 122q-106 -28 -170 -109.5t-64 -187.5q0 -100 60 -181.5t161 -117.5zM426 627q-74 0 -113 -78t-39 -227q0 -151 39 -230.5t113 -79.5t113 79.5t39 230.5q0 149 -39 227t-113 78zM528 25q85 36 132 114t47 180 q0 101 -45.5 177.5t-133.5 121.5q41 -32 63.5 -111.5t22.5 -189.5q0 -102 -21 -175t-65 -117zM426 664q158 0 263.5 -99t105.5 -243q0 -146 -106 -246.5t-263 -100.5t-263 100.5t-106 246.5q0 144 105.5 243t263.5 99zM188 848q24 28 50 41.5t57 13.5q40 0 115 -21.5 t110 -21.5q52 0 88.5 27t55.5 80q-20 -23 -44 -33t-57 -10q-39 0 -115 20.5t-112 20.5q-56 0 -94 -30.5t-54 -86.5zM715 1034q-20 -103 -68.5 -154t-126.5 -51q-14 0 -32 2.5t-42 8.5l-108 28q-12 3 -24 4.5t-25 1.5q-39 0 -60.5 -19.5t-36.5 -70.5h-51q19 107 68 160 t129 53q14 0 28.5 -2t35.5 -8l110 -29q16 -4 30 -6t25 -2q37 0 58.5 19.5t35.5 64.5h54z"/>
<glyph unicode="ö" horiz-adv-x="854" d="M319 25q-69 55 -104 129.5t-35 167.5q0 101 38.5 177t113.5 122q-106 -28 -170 -109.5t-64 -187.5q0 -100 60 -181.5t161 -117.5zM426 627q-74 0 -113 -78t-39 -227q0 -151 39 -230.5t113 -79.5t113 79.5t39 230.5q0 149 -39 227t-113 78zM528 25q85 36 132 114t47 180 q0 101 -45.5 177.5t-133.5 121.5q41 -32 63.5 -111.5t22.5 -189.5q0 -102 -21 -175t-65 -117zM426 664q158 0 263.5 -99t105.5 -243q0 -146 -106 -246.5t-263 -100.5t-263 100.5t-106 246.5q0 144 105.5 243t263.5 99zM242 813q23 0 33 17.5t10 60.5q0 42 -10 60t-33 18 q-29 0 -49.5 -22.5t-20.5 -55.5t20.5 -55.5t49.5 -22.5zM135 891q0 50 33.5 84.5t83.5 34.5q49 0 84 -35t35 -84t-35 -83t-84 -34t-83 34t-34 83zM592 813q23 0 33 17.5t10 60.5q0 44 -9.5 61t-31.5 17q-29 0 -50.5 -23t-21.5 -55q0 -33 20.5 -55.5t49.5 -22.5zM485 891 q0 50 34.5 84.5t84.5 34.5q49 0 83 -35t34 -84t-34 -83t-83 -34t-84 34t-35 83z"/>
<glyph unicode="÷" horiz-adv-x="1706" d="M854 365q45 0 76 -31t31 -76q0 -44 -31 -75t-76 -31t-75.5 31t-30.5 75t31 75.5t75 31.5zM254 659h1198v-98h-1198v98zM854 1071q44 0 75.5 -32t31.5 -76q0 -45 -31 -76t-76 -31t-75.5 30.5t-30.5 76.5q0 44 31.5 76t74.5 32z"/>
<glyph unicode="ø" horiz-adv-x="854" d="M305 115q21 -49 50.5 -73t70.5 -24q74 0 113 77t39 227q0 42 -4 80.5t-11 70.5zM289 174l258 358q-17 45 -48.5 70t-72.5 25q-74 0 -113 -78t-39 -227q0 -25 3.5 -58t11.5 -90zM90 -96l107 147q-69 54 -104.5 122t-35.5 149q0 144 105.5 243t263.5 99q47 0 92 -11t92 -32 l86 120h60l-105 -145q72 -58 108 -126.5t36 -147.5q0 -145 -105.5 -242.5t-263.5 -97.5q-52 0 -99.5 10.5t-88.5 32.5l-88 -121h-60zM319 25q-69 55 -104 129.5t-35 167.5q0 101 38.5 177t113.5 122q-106 -28 -170 -109.5t-64 -187.5q0 -100 60 -181.5t161 -117.5zM528 25 q85 36 132 114t47 180q0 101 -45.5 177.5t-133.5 121.5q41 -32 63.5 -111.5t22.5 -189.5q0 -102 -21 -175t-65 -117z"/>
<glyph unicode="ù" horiz-adv-x="1010" d="M180 512v-231q0 -112 45.5 -178.5t128.5 -77.5q-51 29 -71.5 72.5t-20.5 150.5v360q-20 -4 -79 -7q-17 -1 -25 -1q12 -12 17 -32t5 -56zM670 512v-481l82 12l-1 565q-21 -5 -78 -7q-16 0 -26 -1q12 -12 17.5 -32t5.5 -56zM838 190q0 -79 18.5 -108t65.5 -29h47v-34 q-133 -6 -210.5 -16t-125.5 -28v152q-57 -70 -117 -104.5t-125 -34.5q-120 0 -184 82t-64 237v193q0 59 -16 75.5t-68 16.5h-47l1 37q133 5 209 13t126 22v-439q0 -86 29 -131t84 -45q44 0 90.5 38t81.5 103v310q0 59 -16.5 75.5t-67.5 16.5h-47v36q135 6 211.5 14.5 t124.5 20.5v-473zM506 821l-195 205q-15 16 -26 22.5t-21 6.5q-16 0 -25.5 -9t-9.5 -24q1 -13 8.5 -23.5t22.5 -19.5zM647 737h-67l-330 205q-31 20 -46.5 41t-15.5 43q0 31 20.5 50.5t53.5 19.5q20 0 40.5 -12t55.5 -48z"/>
<glyph unicode="ú" horiz-adv-x="1010" d="M180 512v-231q0 -112 45.5 -178.5t128.5 -77.5q-51 29 -71.5 72.5t-20.5 150.5v360q-20 -4 -79 -7q-17 -1 -25 -1q12 -12 17 -32t5 -56zM670 512v-481l82 12l-1 565q-21 -5 -78 -7q-16 0 -26 -1q12 -12 17.5 -32t5.5 -56zM838 190q0 -79 18.5 -108t65.5 -29h47v-34 q-133 -6 -210.5 -16t-125.5 -28v152q-57 -70 -117 -104.5t-125 -34.5q-120 0 -184 82t-64 237v193q0 59 -16 75.5t-68 16.5h-47l1 37q133 5 209 13t126 22v-439q0 -86 29 -131t84 -45q44 0 90.5 38t81.5 103v310q0 59 -16.5 75.5t-67.5 16.5h-47v36q135 6 211.5 14.5 t124.5 20.5v-473zM428 831l254 152q15 9 23 20t8 23q0 15 -9.5 24t-25.5 9q-10 0 -21 -6.5t-26 -22.5zM295 737l289 299q35 36 55.5 48t40.5 12q33 0 53.5 -19.5t20.5 -50.5q0 -22 -15.5 -43t-46.5 -41l-330 -205h-67z"/>
<glyph unicode="û" horiz-adv-x="1010" d="M180 512v-231q0 -112 45.5 -178.5t128.5 -77.5q-51 29 -71.5 72.5t-20.5 150.5v360q-20 -4 -79 -7q-17 -1 -25 -1q12 -12 17 -32t5 -56zM670 512v-481l82 12l-1 565q-21 -5 -78 -7q-16 0 -26 -1q12 -12 17.5 -32t5.5 -56zM838 190q0 -79 18.5 -108t65.5 -29h47v-34 q-133 -6 -210.5 -16t-125.5 -28v152q-57 -70 -117 -104.5t-125 -34.5q-120 0 -184 82t-64 237v193q0 59 -16 75.5t-68 16.5h-47l1 37q133 5 209 13t126 22v-439q0 -86 29 -131t84 -45q44 0 90.5 38t81.5 103v310q0 59 -16.5 75.5t-67.5 16.5h-47v36q135 6 211.5 14.5 t124.5 20.5v-473zM430 1053l-154 -230l195 168l199 -168l-160 230h-80zM180 737l232 350h118l232 -350h-58l-233 211l-233 -211h-58z"/>
<glyph unicode="ü" horiz-adv-x="1010" d="M180 512v-231q0 -112 45.5 -178.5t128.5 -77.5q-51 29 -71.5 72.5t-20.5 150.5v360q-20 -4 -79 -7q-17 -1 -25 -1q12 -12 17 -32t5 -56zM670 512v-481l82 12l-1 565q-21 -5 -78 -7q-16 0 -26 -1q12 -12 17.5 -32t5.5 -56zM838 190q0 -79 18.5 -108t65.5 -29h47v-34 q-133 -6 -210.5 -16t-125.5 -28v152q-57 -70 -117 -104.5t-125 -34.5q-120 0 -184 82t-64 237v193q0 59 -16 75.5t-68 16.5h-47l1 37q133 5 209 13t126 22v-439q0 -86 29 -131t84 -45q44 0 90.5 38t81.5 103v310q0 59 -16.5 75.5t-67.5 16.5h-47v36q135 6 211.5 14.5 t124.5 20.5v-473zM285 813q23 0 33 17.5t10 60.5q0 42 -10 60t-33 18q-29 0 -49.5 -22.5t-20.5 -55.5t20.5 -55.5t49.5 -22.5zM178 891q0 50 33.5 84.5t83.5 34.5q49 0 84 -35t35 -84t-35 -83t-84 -34t-83 34t-34 83zM635 813q23 0 33 17.5t10 60.5q0 44 -9.5 61t-31.5 17 q-29 0 -50.5 -23t-21.5 -55q0 -33 20.5 -55.5t49.5 -22.5zM528 891q0 50 34.5 84.5t84.5 34.5q49 0 83 -35t34 -84t-34 -83t-83 -34t-84 34t-35 83z"/>
<glyph unicode="ý" horiz-adv-x="793" d="M135 -296q52 4 93.5 36t72.5 92q-45 -31 -76.5 -44t-60.5 -13q-9 0 -34 3q-5 1 -7 1zM623 512q14 27 32 50.5t39 43.5h-116q13 -13 23.5 -34.5t21.5 -59.5zM403 49l46 96l-176 356q-10 20 -14.5 35t-4.5 27q0 11 4.5 21.5t13.5 21.5h-159q25 -17 63 -97l4 -9zM115 -383 l-35 215q22 -10 43 -14t43 -4q60 0 107 32t79 95l31 63l-258 528q-20 40 -45 57t-62 17h-28v39h426l-1 -39q-36 -2 -51.5 -15t-15.5 -42q0 -13 2.5 -26.5t5.5 -20.5l136 -271l83 185q1 1 3 5q18 40 18 64q0 46 -31 83.5t-69 37.5h-35v39h354v-39q-59 0 -103.5 -41.5 t-93.5 -142.5l-247 -531q-70 -150 -129 -212t-127 -62zM354 831l254 152q15 9 23 20t8 23q0 15 -9.5 24t-25.5 9q-10 0 -21 -6.5t-26 -22.5zM221 737l289 299q35 36 55.5 48t40.5 12q33 0 53.5 -19.5t20.5 -50.5q0 -22 -15.5 -43t-46.5 -41l-330 -205h-67z"/>
<glyph unicode="þ" horiz-adv-x="903" d="M367 561v-485q20 -20 49 -30.5t59 -10.5q72 0 112 75t40 212q0 143 -36.5 217.5t-105.5 74.5q-28 0 -59 -13.5t-59 -39.5zM199 1317v-1473q0 -45 -9 -70.5t-28 -39.5h45q46 0 60 13.5t14 68.5l-1 1599q-35 -4 -59 -6.5t-44 -3.5q11 -12 16.5 -32t5.5 -56zM545 25 q97 24 154 104t57 190q0 100 -49.5 176.5t-143.5 122.5q51 -36 76 -112.5t25 -200.5q0 -104 -29.5 -174t-89.5 -106zM164 1307q0 58 -17 75t-69 17h-45v34q113 5 196.5 14.5t137.5 22.5v-866q41 25 78.5 37t76.5 12q134 0 228 -96.5t94 -234.5q0 -137 -93.5 -234.5 t-226.5 -97.5q-39 0 -78.5 10t-78.5 31v-178q0 -77 18.5 -98t75.5 -21h45v-37h-490v37h37q60 0 85.5 28.5t25.5 96.5v1448z"/>
<glyph unicode="ÿ" horiz-adv-x="793" d="M135 -296q52 4 93.5 36t72.5 92q-45 -31 -76.5 -44t-60.5 -13q-9 0 -34 3q-5 1 -7 1zM623 512q14 27 32 50.5t39 43.5h-116q13 -13 23.5 -34.5t21.5 -59.5zM403 49l46 96l-176 356q-10 20 -14.5 35t-4.5 27q0 11 4.5 21.5t13.5 21.5h-159q25 -17 63 -97l4 -9zM115 -383 l-35 215q22 -10 43 -14t43 -4q60 0 107 32t79 95l31 63l-258 528q-20 40 -45 57t-62 17h-28v39h426l-1 -39q-36 -2 -51.5 -15t-15.5 -42q0 -13 2.5 -26.5t5.5 -20.5l136 -271l83 185q1 1 3 5q18 40 18 64q0 46 -31 83.5t-69 37.5h-35v39h354v-39q-59 0 -103.5 -41.5 t-93.5 -142.5l-247 -531q-70 -150 -129 -212t-127 -62zM211 813q23 0 33 17.5t10 60.5q0 42 -10 60t-33 18q-29 0 -49.5 -22.5t-20.5 -55.5t20.5 -55.5t49.5 -22.5zM104 891q0 50 33.5 84.5t83.5 34.5q49 0 84 -35t35 -84t-35 -83t-84 -34t-83 34t-34 83zM561 813 q23 0 33 17.5t10 60.5q0 44 -9.5 61t-31.5 17q-29 0 -50.5 -23t-21.5 -55q0 -33 20.5 -55.5t49.5 -22.5zM454 891q0 50 34.5 84.5t84.5 34.5q49 0 83 -35t34 -84t-34 -83t-83 -34t-84 34t-35 83z"/>
<glyph unicode="Œ" horiz-adv-x="2353" d="M1210 0q-105 0 -237.5 -12.5t-159.5 -12.5q-154 0 -290 58.5t-242 169.5q-103 107 -156 239.5t-53 280.5q0 146 52.5 279t151.5 237q106 111 245.5 171t293.5 60q1 0 153.5 -12t305.5 -12h883v-33q0 -96 8.5 -181t25.5 -161l-34 -8q-76 144 -232 244t-295 100h-61 q-64 0 -111 -50t-47 -120v-444h143q57 0 98.5 15.5t92.5 57.5q61 52 90 96t29 87v34h43v-665h-43v69q0 109 -94.5 189t-221.5 80h-137v-547q0 -70 46 -120t110 -50q58 0 163.5 35t208.5 92q108 58 197.5 135.5t159.5 171.5l28 -12q-52 -120 -83.5 -233.5t-42.5 -227.5h-988z M1802 1407q99 -41 175.5 -92.5t131.5 -112.5q-19 72 -30 121.5t-15 83.5h-262zM1733 39h352q13 48 45.5 118t89.5 171q-101 -102 -222.5 -173.5t-264.5 -115.5zM1823 684v205q-35 -35 -72.5 -63t-79.5 -52q41 -18 79 -40.5t73 -49.5zM1159 408v659q0 111 -9 159.5t-30 80.5 q-39 60 -117.5 92.5t-189.5 32.5q-234 0 -354.5 -173.5t-120.5 -508.5q0 -365 119.5 -550.5t355.5 -185.5q129 0 211 45.5t115 133.5q10 26 15 81.5t5 133.5zM1108 39h289q-52 41 -68 66.5t-16 66.5v1102q0 31 7.5 51t25.5 33l67 49h-297l107 -90v-19q-13 -6 -20 -19t-7 -32 v-1065q0 -43 -20.5 -76.5t-67.5 -66.5zM485 88q-130 132 -196 293t-66 350q0 196 72.5 364t200.5 271q-185 -98 -286 -267.5t-101 -381.5q0 -197 96.5 -358.5t279.5 -270.5z"/>
<glyph unicode="œ" horiz-adv-x="1323" d="M666 207q15 -68 55.5 -110t107.5 -60q-61 54 -92.5 125.5t-31.5 156.5q0 97 35 177.5t94 117.5q-68 -16 -110.5 -61t-59.5 -119q-13 67 -46 112t-90 72q41 -32 63.5 -111.5t22.5 -189.5q0 -102 -21 -175t-65 -117q57 23 91 68t47 114zM1184 414q-13 67 -50.5 117 t-97.5 77q25 -31 38.5 -75.5t21.5 -118.5h88zM1251 254l25 -8q-28 -120 -119 -191t-217 -71q-76 0 -140 23t-116 69q-50 -47 -114.5 -70.5t-143.5 -23.5q-158 0 -263.5 97.5t-105.5 242.5q0 144 105.5 243t263.5 99q76 0 140.5 -24t115.5 -71q50 46 111.5 69.5t132.5 23.5 q145 0 234.5 -69.5t125.5 -209.5h-467v31h240q-2 105 -34.5 160t-92.5 55q-66 0 -101.5 -81.5t-35.5 -234.5q0 -158 39.5 -225.5t130.5 -67.5q96 0 174 63.5t112 170.5zM319 25q-69 55 -104 129.5t-35 167.5q0 101 38.5 177t113.5 122q-106 -28 -170 -109.5t-64 -187.5 q0 -100 60 -181.5t161 -117.5zM426 627q-74 0 -113 -78t-39 -227q0 -150 39 -227t113 -77t113 77t39 227q0 149 -39 227t-113 78z"/>
<glyph unicode="Ÿ" horiz-adv-x="1546" d="M1217 1214q42 55 89.5 103t100.5 90h-231q24 -36 36.5 -70t12.5 -67q0 -14 -2 -28t-6 -28zM819 172v641l-276 336q-27 32 -38 58t-11 55q0 33 16 66.5t53 78.5h-395q45 -30 85.5 -67.5t88.5 -96.5l363 -448v-613q0 -43 -20.5 -76.5t-68.5 -66.5h287q-52 41 -68 66.5 t-16 66.5zM920 209q0 -71 46.5 -120.5t112.5 -49.5h47v-39h-663v39h51q61 0 107.5 50t46.5 120v575l-379 467q-51 63 -123.5 109.5t-112.5 46.5h-59v39h782v-39h-76q-44 0 -74 -35.5t-30 -85.5q0 -27 9 -50t30 -48l260 -324l238 260q25 27 40 63t15 68q0 70 -29 111t-78 41 h-80v39h670v-39h-69q-68 0 -176 -68.5t-209 -179.5l-297 -328v-622zM588 1620q23 0 33 17.5t10 60.5q0 42 -10 60t-33 18q-29 0 -49.5 -22.5t-20.5 -55.5t20.5 -55.5t49.5 -22.5zM481 1698q0 50 33.5 84.5t83.5 34.5q49 0 84 -35t35 -84t-35 -83t-84 -34t-83 34t-34 83z M938 1620q23 0 33 17.5t10 60.5q0 44 -9.5 61t-31.5 17q-29 0 -50.5 -23t-21.5 -55q0 -33 20.5 -55.5t49.5 -22.5zM831 1698q0 50 34.5 84.5t84.5 34.5q49 0 83 -35t34 -84t-34 -83t-83 -34t-84 34t-35 83z"/>
<glyph unicode="ˆ" horiz-adv-x="1024" d="M471 1053l-154 -230l195 168l199 -168l-160 230h-80zM221 737l232 350h118l232 -350h-58l-233 211l-233 -211h-58z"/>
<glyph unicode="˜" horiz-adv-x="1024" d="M272 848q24 28 50 41.5t57 13.5q40 0 115 -21.5t110 -21.5q52 0 88.5 27t55.5 80q-20 -23 -44 -33t-57 -10q-39 0 -115 20.5t-112 20.5q-56 0 -94 -30.5t-54 -86.5zM799 1034q-20 -103 -68.5 -154t-126.5 -51q-14 0 -32 2.5t-42 8.5l-108 28q-12 3 -24 4.5t-25 1.5 q-39 0 -60.5 -19.5t-36.5 -70.5h-51q19 107 68 160t129 53q14 0 28.5 -2t35.5 -8l110 -29q16 -4 30 -6t25 -2q37 0 58.5 19.5t35.5 64.5h54z"/>
<glyph unicode="–" horiz-adv-x="1024" d="M934 365h-830l-16 -58h827zM0 225l53 176h893l15 45h63l-55 -178h-893l-13 -43h-63z"/>
<glyph unicode="—" horiz-adv-x="2048" d="M51 365l-18 -58h1962l16 58h-1960zM8 225h-61l53 176h2023l15 45h63l-55 -178h-2023z"/>
<glyph unicode="‘" horiz-adv-x="506" d="M201 1253q-17 -39 -25 -72t-8 -65q0 -44 17 -72t42 -28q21 0 34 14.5t13 38.5q0 23 -36 82.5t-37 101.5zM307 1470l43 -40q-42 -46 -63 -82.5t-21 -65.5q0 -31 46 -97t46 -108q0 -46 -32.5 -78t-79.5 -32q-55 0 -87 39t-32 106q0 80 47 174t133 184z"/>
<glyph unicode="’" horiz-adv-x="506" d="M250 1190q11 32 16.5 66.5t5.5 70.5q0 47 -13.5 72.5t-39.5 25.5q-20 0 -34.5 -17t-14.5 -42q0 -24 38 -81t42 -95zM176 969l-43 41q42 45 63 81.5t21 65.5q0 31 -46 97t-46 108q0 46 32.5 78.5t80.5 32.5q54 0 87 -40.5t33 -107.5q0 -78 -47.5 -171.5t-134.5 -184.5z "/>
<glyph unicode="‚" horiz-adv-x="506" d="M250 -33q11 33 16.5 67t5.5 70q0 48 -14 74.5t-39 26.5q-20 0 -34.5 -17t-14.5 -43q0 -24 38 -82t42 -96zM176 -254l-43 41q42 45 63 82t21 65q0 31 -46 97.5t-46 107.5q0 47 32.5 79t80.5 32q54 0 87 -39.5t33 -106.5q0 -78 -47.5 -172.5t-134.5 -185.5z"/>
<glyph unicode="“" horiz-adv-x="848" d="M543 1253q-17 -39 -25 -72t-8 -65q0 -44 17 -72t42 -28q21 0 33 14.5t12 38.5q0 23 -35 82.5t-36 101.5zM649 1470l43 -40q-42 -46 -63 -82.5t-21 -65.5q0 -31 46 -97t46 -108q0 -46 -32.5 -78t-79.5 -32q-55 0 -88 39.5t-33 105.5q0 79 47.5 173t134.5 185zM307 1470 l43 -40q-42 -46 -63 -82.5t-21 -65.5q0 -31 47 -97t47 -108q0 -46 -33.5 -78t-80.5 -32q-55 0 -87 39t-32 106q0 80 47 174t133 184zM201 1253q-17 -39 -25 -72t-8 -65q0 -44 17 -72t42 -28q21 0 34 14.5t13 38.5q0 23 -36 82.5t-37 101.5z"/>
<glyph unicode="”" horiz-adv-x="848" d="M250 1190q10 29 15 63t5 74q0 48 -13 73t-38 25q-21 0 -36 -17t-15 -42q0 -24 39 -81t43 -95zM174 969l-41 41q41 44 61.5 80.5t20.5 66.5q0 31 -46 97t-46 108q0 46 32.5 78.5t80.5 32.5q54 0 87 -40.5t33 -107.5q0 -78 -47.5 -171.5t-134.5 -184.5zM592 1190 q11 32 16.5 66.5t5.5 70.5q0 48 -13 73t-38 25q-21 0 -36 -17t-15 -42q0 -24 38 -81t42 -95zM518 969l-41 41q41 44 61.5 80.5t20.5 66.5q0 31 -46 97t-46 108q0 46 32.5 78.5t80.5 32.5q54 0 87 -40.5t33 -107.5q0 -78 -47.5 -171.5t-134.5 -184.5z"/>
<glyph unicode="„" horiz-adv-x="848" d="M594 -33q10 30 15 64t5 73q0 49 -13 75t-38 26q-21 0 -36 -17.5t-15 -42.5q0 -24 39 -81.5t43 -96.5zM518 -254l-41 41q41 44 61.5 81t20.5 66q0 31 -46 97.5t-46 107.5q0 46 33.5 78.5t81.5 32.5q54 0 86 -39.5t32 -106.5q0 -78 -47.5 -172.5t-134.5 -185.5zM250 -33 q11 33 16.5 67t5.5 70q0 48 -14 74.5t-39 26.5q-20 0 -34.5 -17t-14.5 -43q0 -24 38 -82t42 -96zM176 -254l-43 41q42 45 63 82t21 65q0 31 -46 97.5t-46 107.5q0 47 32.5 79t80.5 32q54 0 87 -39.5t33 -106.5q0 -78 -47.5 -172.5t-134.5 -185.5z"/>
<glyph unicode="•" horiz-adv-x="1208" d="M307 762q0 123 87 209t210 86q122 0 208.5 -86.5t86.5 -208.5t-87.5 -209.5t-209.5 -87.5q-123 0 -209 87t-86 210z"/>
<glyph unicode="…" horiz-adv-x="2048" d="M215 106q0 54 36 89.5t89 35.5q52 0 88.5 -36t36.5 -89q0 -52 -36.5 -88t-88.5 -36t-88.5 36t-36.5 88zM328 25q24 0 35.5 19t11.5 62q0 45 -11 63.5t-36 18.5q-31 0 -52.5 -23.5t-21.5 -58.5q0 -34 21.5 -57.5t52.5 -23.5zM897 106q0 54 36 89.5t89 35.5q52 0 88.5 -36 t36.5 -89q0 -52 -36.5 -88t-88.5 -36t-88.5 36t-36.5 88zM1010 25q24 0 35.5 19t11.5 62q0 45 -11 63.5t-36 18.5q-31 0 -52.5 -23.5t-21.5 -58.5q0 -34 21.5 -57.5t52.5 -23.5zM1581 106q0 54 36 89.5t89 35.5q52 0 88.5 -36t36.5 -89q0 -52 -36.5 -88t-88.5 -36t-88.5 36 t-36.5 88zM1694 25q24 0 35.5 19t11.5 62q0 45 -11 63.5t-36 18.5q-31 0 -52.5 -23.5t-21.5 -58.5q0 -34 21.5 -57.5t52.5 -23.5z"/>
<glyph unicode="‹" horiz-adv-x="483" d="M57 336q100 76 213 174t127 98q10 0 15.5 -5.5t5.5 -14.5q0 -23 -37 -79t-131 -173q88 -108 128 -167.5t40 -82.5q0 -9 -5.5 -15.5t-15.5 -7.5q-14 0 -128 98.5t-212 174.5zM281 195q-40 65 -59 93t-36 48q17 20 36 47.5t59 93.5q-33 -32 -74 -67.5t-90 -73.5 q49 -38 90 -73.5t74 -67.5z"/>
<glyph unicode="›" horiz-adv-x="483" d="M270 336q-27 -30 -84 -113l-20 -28q49 44 110.5 91.5t62.5 48.5q-2 3 -63 50.5t-110 91.5l20 -29q57 -82 84 -112zM424 336q-100 -77 -212.5 -175t-127.5 -98q-9 0 -15 6t-6 15q0 23 37 79t131 173q-85 105 -126.5 166.5t-41.5 85.5q0 8 6 14t15 6q14 0 128 -98t212 -174 z"/>
<glyph unicode="™" horiz-adv-x="1683" d="M795 1434h176l143 -406l154 406h168v-23l-31 -2q-21 0 -34 -15t-13 -40v-369q0 -25 13 -40t34 -15l31 -2v-25h-234v25l33 2q21 0 34 15t13 40v399l-182 -485h-13l-174 485v-399q0 -25 13 -40t35 -15l32 -2v-25h-198v25h32q22 0 34.5 15t12.5 40v371q0 24 -13.5 39.5 t-35.5 15.5l-30 2v23zM260 1434h438l11 -174h-25q-8 78 -41.5 114.5t-97.5 36.5h-23v-426q0 -25 13 -40t34 -15l33 -2v-25h-246v25l33 2q20 0 32.5 15.5t12.5 39.5v426h-22q-65 0 -98 -36.5t-40 -114.5h-24z"/>
<glyph unicode="" horiz-adv-x="645" d="M0 645h645v-645h-645v645z"/>
<glyph unicode="ﬁ" horiz-adv-x="1143" d="M807 1116q0 -28 13.5 -44.5t37.5 -16.5q22 0 36.5 17t14.5 44t-14.5 44.5t-36.5 17.5q-24 0 -37.5 -16.5t-13.5 -45.5zM670 0v37h6q56 0 80 28.5t24 96.5v338q0 58 -16.5 75t-69.5 17h-45v36q134 6 210 14.5t124 20.5v-507q0 -77 18 -98t76 -21h37v-37h-444zM897 119 l-1 489q-21 -5 -78 -7q-17 -1 -26 -1q12 -12 17.5 -32t5.5 -56v-365q0 -45 -8.5 -70.5t-28.5 -39.5h45q46 0 60 13.5t14 68.5zM776 1114q0 45 29 75t73 30t74.5 -30.5t30.5 -74.5q0 -43 -30.5 -72.5t-74.5 -29.5q-43 0 -72.5 29t-29.5 73zM561 1285l60 22q-22 66 -55.5 99 t-79.5 36q34 -16 53 -56t22 -101zM213 940v-793q0 -45 -8.5 -70.5t-28.5 -39.5h45q46 0 60 13.5t14 68.5v934q0 96 9.5 168.5t29.5 121.5q-60 -70 -90.5 -172t-30.5 -231zM381 608v-428q0 -80 29.5 -111.5t103.5 -31.5h55v-37h-538v37h37q59 0 84.5 28.5t25.5 96.5v446h-147 v37h147v279q0 234 93 390t223 156q71 0 126 -44t80 -123l-159 -70q-5 92 -28 143t-58 51q-41 0 -57.5 -50t-16.5 -183v-549h205v-37h-205z"/>
<glyph unicode="ﬂ" horiz-adv-x="1132" d="M805 1317v-1170q0 -45 -8.5 -70.5t-28.5 -39.5h45q47 0 61.5 14t14.5 68l-1 1296q-43 -5 -64.5 -7t-40.5 -3q11 -12 16.5 -32t5.5 -56zM641 0v37h18q60 0 85.5 28.5t25.5 96.5v1145q0 59 -16 75.5t-68 16.5h-45v34q120 6 199 14.5t133 22.5v-1314q0 -77 18 -98t76 -21h29 v-37h-455zM561 1285l60 22q-22 66 -55.5 99t-79.5 36q34 -16 53 -56t22 -101zM213 940v-793q0 -45 -8.5 -70.5t-28.5 -39.5h45q46 0 60 13.5t14 68.5v934q0 96 9.5 168.5t29.5 121.5q-60 -70 -90.5 -172t-30.5 -231zM381 608v-428q0 -80 29.5 -111.5t103.5 -31.5h55v-37 h-538v37h37q59 0 84.5 28.5t25.5 96.5v446h-147v37h147v279q0 234 93 390t223 156q71 0 126 -44t80 -123l-159 -70q-5 92 -28 143t-58 51q-41 0 -57.5 -50t-16.5 -183v-549h205v-37h-205z"/>
<glyph unicode="ﬃ" horiz-adv-x="1745" d="M1409 1116q0 -28 13.5 -44.5t37.5 -16.5q22 0 36.5 17t14.5 44t-14.5 44.5t-36.5 17.5q-24 0 -37.5 -16.5t-13.5 -45.5zM1272 0v37h6q56 0 80 28.5t24 96.5v338q0 58 -16.5 75t-69.5 17h-45v36q134 6 210 14.5t124 20.5v-507q0 -77 18 -98t76 -21h37v-37h-444zM1499 119 l-1 489q-21 -5 -78 -7q-17 -1 -26 -1q12 -12 17.5 -32t5.5 -56v-365q0 -45 -8.5 -70.5t-28.5 -39.5h45q46 0 60 13.5t14 68.5zM1378 1114q0 45 29 75t73 30t74.5 -30.5t30.5 -74.5q0 -43 -30.5 -72.5t-74.5 -29.5q-43 0 -72.5 29t-29.5 73zM1163 1285l60 22q-22 66 -55.5 99 t-79.5 36q34 -16 53 -56t22 -101zM815 940v-793q0 -45 -8.5 -70.5t-28.5 -39.5h45q46 0 60 13.5t14 68.5v934q0 96 9.5 168.5t29.5 121.5q-60 -70 -90.5 -172t-30.5 -231zM983 608v-428q0 -80 29.5 -111.5t103.5 -31.5h55v-37h-538v37h37q59 0 84.5 28.5t25.5 96.5v446h-147 v37h147v279q0 234 93 390t223 156q71 0 126 -44t80 -123l-159 -70q-5 92 -28 143t-58 51q-41 0 -57.5 -50t-16.5 -183v-549h205v-37h-205zM561 1285l60 22q-22 66 -55.5 99t-79.5 36q34 -16 53 -56t22 -101zM213 940v-793q0 -45 -8.5 -70.5t-28.5 -39.5h45q46 0 60 13.5 t14 68.5v934q0 96 9.5 168.5t29.5 121.5q-60 -70 -90.5 -172t-30.5 -231zM381 608v-428q0 -80 29.5 -111.5t103.5 -31.5h55v-37h-538v37h37q59 0 84.5 28.5t25.5 96.5v446h-147v37h147v279q0 234 93 390t223 156q71 0 126 -44t80 -123l-159 -70q-5 92 -28 143t-58 51 q-41 0 -57.5 -50t-16.5 -183v-549h205v-37h-205z"/>
<glyph unicode="ﬄ" horiz-adv-x="1734" d="M1407 1317v-1170q0 -45 -8.5 -70.5t-28.5 -39.5h45q47 0 61.5 14t14.5 68l-1 1296q-43 -5 -64.5 -7t-40.5 -3q11 -12 16.5 -32t5.5 -56zM1243 0v37h18q60 0 85.5 28.5t25.5 96.5v1145q0 59 -16 75.5t-68 16.5h-45v34q120 6 199 14.5t133 22.5v-1314q0 -77 18 -98t76 -21 h29v-37h-455zM1163 1285l60 22q-22 66 -55.5 99t-79.5 36q34 -16 53 -56t22 -101zM815 940v-793q0 -45 -8.5 -70.5t-28.5 -39.5h45q46 0 60 13.5t14 68.5v934q0 96 9.5 168.5t29.5 121.5q-60 -70 -90.5 -172t-30.5 -231zM983 608v-428q0 -80 29.5 -111.5t103.5 -31.5h55v-37 h-538v37h37q59 0 84.5 28.5t25.5 96.5v446h-147v37h147v279q0 234 93 390t223 156q71 0 126 -44t80 -123l-159 -70q-5 92 -28 143t-58 51q-41 0 -57.5 -50t-16.5 -183v-549h205v-37h-205zM561 1285l60 22q-22 66 -55.5 99t-79.5 36q34 -16 53 -56t22 -101zM213 940v-793 q0 -45 -8.5 -70.5t-28.5 -39.5h45q46 0 60 13.5t14 68.5v934q0 96 9.5 168.5t29.5 121.5q-60 -70 -90.5 -172t-30.5 -231zM381 608v-428q0 -80 29.5 -111.5t103.5 -31.5h55v-37h-538v37h37q59 0 84.5 28.5t25.5 96.5v446h-147v37h147v279q0 234 93 390t223 156q71 0 126 -44 t80 -123l-159 -70q-5 92 -28 143t-58 51q-41 0 -57.5 -50t-16.5 -183v-549h205v-37h-205z"/>
</font>
</defs>
</svg>
